<?xml version="1.0" encoding="UTF-8" standalone="no"?>
<!-- Generator: Adobe Illustrator 15.1.0, SVG Export Plug-In . SVG Version: 6.00 Build 0)  -->

<svg
   version="1.1"
   id="Ebene_1"
   x="0px"
   y="0px"
   width="1161px"
   height="484px"
   viewBox="0 0 1161 484"
   enable-background="new 0 0 1161 484"
   xml:space="preserve"
   sodipodi:docname="linear-polarization-filter.svg"
   inkscape:version="1.1.2 (0a00cf5339, 2022-02-04)"
   xmlns:inkscape="http://www.inkscape.org/namespaces/inkscape"
   xmlns:sodipodi="http://sodipodi.sourceforge.net/DTD/sodipodi-0.dtd"
   xmlns:xlink="http://www.w3.org/1999/xlink"
   xmlns="http://www.w3.org/2000/svg"
   xmlns:svg="http://www.w3.org/2000/svg"
   xmlns:rdf="http://www.w3.org/1999/02/22-rdf-syntax-ns#"
   xmlns:dc="http://purl.org/dc/elements/1.1/"
   xmlns:x="adobe:ns:meta/"
   xmlns:Iptc4xmpCore="http://iptc.org/std/Iptc4xmpCore/1.0/xmlns/"><sodipodi:namedview
   id="namedview336"
   pagecolor="#ffffff"
   bordercolor="#666666"
   borderopacity="1.0"
   inkscape:pageshadow="2"
   inkscape:pageopacity="0.0"
   inkscape:pagecheckerboard="0"
   showgrid="false"
   inkscape:zoom="1.3722992"
   inkscape:cx="453.61827"
   inkscape:cy="311.15663"
   inkscape:window-width="2520"
   inkscape:window-height="1412"
   inkscape:window-x="40"
   inkscape:window-y="212"
   inkscape:window-maximized="1"
   inkscape:current-layer="Ebene_1" /><defs
   id="defs599"><clipPath
   id="SVGID_2_-3"><use
     xlink:href="#SVGID_1_-5"
     overflow="visible"
     id="use7-6"
     x="0"
     y="0"
     width="100%"
     height="100%" /></clipPath><polygon
   id="SVGID_1_-5"
   enable-background="new    "
   points="72.144,-31.335 170.401,42.702 170.514,311.991 72.256,237.954 " />
	
	
	
	
	
	
	
	
	
	
	
	
	
	
	
	
	
	
	
	
	
	
	
	
	
	
	
	
	
	
	
	
	
	
	
	
	
	
	
	
	
	
	
	
	
	
	
	
	
	
	
	
</defs>
    <metadata
   id="metadata2">
<x:xmpmeta
   x:xmptk="Adobe XMP Core 5.0-c060 61.134777, 2010/02/12-17:32:00        ">
   <rdf:RDF>
      <rdf:Description
   rdf:about="">
         <dc:format>image/svg+xml</dc:format>
         <dc:title>
            <rdf:Alt>
               <rdf:li
   xml:lang="x-default">Polarisation von Licht mittels Polarisationsfilter</rdf:li>
            </rdf:Alt>
         </dc:title>
         <dc:creator>
            <rdf:Seq>
               <rdf:li>Stefan Richtberg (stefan@richtberg.org)</rdf:li>
            </rdf:Seq>
         </dc:creator>
         <dc:rights>
            <rdf:Alt>
               <rdf:li
   xml:lang="x-default">© Stefan Richtberg für LEIFIphysik</rdf:li>
            </rdf:Alt>
         </dc:rights>
                  <dc:description>
            <rdf:Alt>
               <rdf:li
   xml:lang="x-default">Polarisation von Licht mittels Polarisationsfilter</rdf:li>
            </rdf:Alt>
         </dc:description>
      </rdf:Description>
      <rdf:Description
   rdf:about="">
         <Iptc4xmpCore:CreatorContactInfo
   rdf:parseType="Resource">
            <Iptc4xmpCore:CiAdrExtadr>Trautmannstr. 7</Iptc4xmpCore:CiAdrExtadr>
            <Iptc4xmpCore:CiAdrCity>München</Iptc4xmpCore:CiAdrCity>
            <Iptc4xmpCore:CiAdrPcode>81373</Iptc4xmpCore:CiAdrPcode>
            <Iptc4xmpCore:CiAdrCtry>Germany</Iptc4xmpCore:CiAdrCtry>
            <Iptc4xmpCore:CiEmailWork>stefan@richtberg.org</Iptc4xmpCore:CiEmailWork>
            <Iptc4xmpCore:CiUrlWork>www.richtberg.org</Iptc4xmpCore:CiUrlWork>
         </Iptc4xmpCore:CreatorContactInfo>
      </rdf:Description>
   </rdf:RDF>
</x:xmpmeta>
	</metadata>
<g
   id="g60"
   transform="translate(496.922,57.095)"><g
     id="g58"><g
       enable-background="new    "
       id="g56"><defs
         id="defs5-7"><polygon
           id="polygon1192"
           enable-background="new    "
           points="170.401,42.702 170.514,311.991 72.256,237.954 72.144,-31.335 " /></defs><clipPath
         id="clipPath1148"><use
           xlink:href="#SVGID_1_-5"
           overflow="visible"
           id="use1146"
           x="0"
           y="0"
           width="100%"
           height="100%" /></clipPath><g
         clip-path="url(#SVGID_2_-3)"
         id="g54"><g
           id="g52"><g
             id="g50"><g
               id="g48"><path
                 fill="#0000ff"
                 d="m 122.334,12.274 -0.449,-3.341 -0.441,2.638 c -0.057,-0.043 -0.111,-0.085 -0.168,-0.128 -7.19,-5.418 -14.005,-6.111 -20.103,-2.768 l -3.263,-2.458 0.001,2.875 1.188,0.895 c -3.094,2.226 -5.983,5.532 -8.614,9.817 l -2.02,-1.522 10e-4,2.875 0.852,0.642 c -1.964,3.521 -3.772,7.616 -5.402,12.237 l -1.745,-1.314 10e-4,2.884 0.963,0.726 c -1.357,4.141 -2.579,8.67 -3.649,13.558 l -1.507,-1.136 0.001,2.876 0.982,0.74 c -0.927,4.55 -1.728,9.392 -2.391,14.506 l -1.386,-1.044 0.001,2.876 1.059,0.797 c -0.576,4.868 -1.031,9.968 -1.355,15.286 l -1.445,-1.089 0.001,2.875 1.289,0.971 c -0.268,5.166 -0.414,10.534 -0.432,16.076 l -1.202,0.441 1.204,2.254 c 0.026,5.906 0.196,11.833 0.502,17.739 l -1.346,-1.014 0.001,2.875 1.513,1.14 c 0.347,5.825 0.825,11.631 1.425,17.381 l -1.182,-0.891 10e-4,2.876 1.52,1.146 c 0.689,6.139 1.516,12.203 2.469,18.168 l -1.181,-0.891 0.001,2.876 1.719,1.295 c 1.103,6.533 2.356,12.925 3.747,19.131 l -1.258,-0.948 10e-4,2.884 2.058,1.551 c 1.674,7.121 3.528,13.972 5.54,20.474 l -1.29,-0.972 0.001,2.884 2.491,1.877 c 2.727,8.37 5.722,16.113 8.925,23.033 l -1.957,-1.475 0.001,2.875 4.137,3.117 c 5.877,11.672 12.39,20.61 19.238,25.771 0.049,0.037 0.098,0.072 0.147,0.109 l 0.466,3.469 0.469,-2.797 c 6.453,4.461 12.585,5.104 18.147,2.434 l 3.61,2.72 -0.001,-2.875 -1.431,-1.078 c 3.199,-2.095 6.189,-5.329 8.912,-9.593 l 2.314,1.744 -0.001,-2.884 -1.113,-0.839 c 2.008,-3.474 3.857,-7.533 5.526,-12.135 l 1.882,1.418 -0.001,-2.884 -1.082,-0.815 c 1.386,-4.113 2.635,-8.62 3.732,-13.495 l 1.543,1.162 -0.002,-2.875 -1.004,-0.757 c 0.949,-4.53 1.771,-9.354 2.455,-14.457 l 1.344,1.012 -0.001,-2.876 -1.006,-0.757 c 0.595,-4.851 1.068,-9.939 1.411,-15.244 l 0.989,0.745 -0.001,-2.875 -0.822,-0.62 c 0.305,-5.512 0.471,-11.246 0.488,-17.19 l 1.025,-0.376 -1.025,-1.922 c -0.02,-5.641 -0.171,-11.294 -0.446,-16.937 l 0.766,0.577 -0.002,-2.876 -0.922,-0.694 c -0.329,-5.811 -0.788,-11.6 -1.368,-17.339 l 0.882,0.665 -0.002,-2.876 -1.209,-0.911 c -0.668,-6.117 -1.473,-12.169 -2.404,-18.119 l 0.806,0.607 -0.001,-2.876 -1.331,-1.002 c -1.075,-6.504 -2.301,-12.878 -3.662,-19.067 l 0.786,0.593 -0.001,-2.884 -1.568,-1.182 c -1.635,-7.08 -3.447,-13.903 -5.415,-20.388 l 0.675,0.509 -0.002,-2.876 -1.843,-1.389 c -2.636,-8.254 -5.529,-15.917 -8.628,-22.808 l 0.662,0.498 -0.001,-2.875 -2.737,-2.062 C 135.586,27.06 129.135,17.813 122.334,12.274 m -1.061,-6.591 c 27.091,20.414 49.154,97.424 49.185,171.664 0.031,74.248 -21.981,118.04 -49.073,97.626 C 94.294,254.56 72.231,177.558 72.2,103.31 72.169,29.07 94.182,-14.73 121.273,5.683"
                 id="path10-3" /><path
                 fill="#0000ff"
                 d="m 122.458,120.633 45.292,34.128 0.922,0.694 0.002,2.876 -0.766,-0.577 -45.449,-34.246 -0.001,-2.875 m -49.012,-36.931 1.445,1.089 46.518,35.051 10e-4,2.875 -46.675,-35.168 -1.289,-0.971 v -2.876"
                 id="path12" /><path
                 fill="#0000ff"
                 d="m 122.466,139.821 34.654,26.112 0.306,1.672 -0.306,1.212 -34.653,-26.111 -0.001,-2.885 m -37.102,-27.956 36.053,27.166 0.001,2.884 -36.053,-27.166 -0.306,-1.672 0.305,-1.212"
                 id="path14" /><polyline
                 fill="#0000ff"
                 points="88.77,98.322 85.364,111.865 85.059,113.077 85.365,114.749 88.785,133.426 74.306,106.321          73.102,104.066 74.304,103.625 88.77,98.322        "
                 id="polyline16" /><polyline
                 fill="#0000ff"
                 points="153.697,147.245 168.354,174.69 169.38,176.612 168.354,176.988 153.712,182.349          157.12,168.816 157.426,167.604 157.12,165.933 153.697,147.245        "
                 id="polyline18" /><path
                 fill="#0000ff"
                 d="m 122.45,101.445 43.603,32.854 1.209,0.911 0.002,2.876 -0.882,-0.665 -43.931,-33.102 -10e-4,-2.874 m -47.263,-35.613 1.386,1.044 44.829,33.778 0.001,2.875 -45.157,-34.024 -1.059,-0.797 v -2.876"
                 id="path20" /><path
                 fill="#0000ff"
                 d="m 122.442,82.256 40.68,30.653 1.331,1.002 0.001,2.876 -0.806,-0.607 -41.205,-31.048 -0.001,-2.876 m -44.463,-33.502 1.507,1.136 41.906,31.576 0.001,2.876 -42.43,-31.972 -0.982,-0.74 -0.002,-2.876"
                 id="path22" /><path
                 fill="#0000ff"
                 d="m 122.434,63.06 36.243,27.309 1.568,1.182 0.001,2.884 -0.786,-0.593 -37.025,-27.897 -0.001,-2.885 m -40.262,-30.337 1.745,1.314 37.468,28.232 10e-4,2.884 -38.25,-28.821 -0.963,-0.726 -0.001,-2.883"
                 id="path24" /><path
                 fill="#0000ff"
                 d="m 122.426,43.872 29.666,22.353 1.843,1.389 0.002,2.876 -0.675,-0.509 -30.834,-23.233 -0.002,-2.876 m -33.96,-25.589 2.02,1.522 30.892,23.276 0.001,2.876 L 89.318,21.8 88.466,21.158 v -2.875"
                 id="path26" /><path
                 fill="#0000ff"
                 d="m 124.182,26.013 17.206,12.965 2.737,2.062 0.001,2.875 -0.662,-0.498 -18.852,-14.205 -0.43,-3.199 M 97.91,6.217 l 3.263,2.458 18.432,13.888 -0.427,2.553 L 99.099,9.988 97.911,9.093 97.91,6.217"
                 id="path28" /><path
                 fill="#0000ff"
                 d="m 122.475,159.977 45.392,34.202 0.822,0.62 0.001,2.875 -0.989,-0.745 -45.225,-34.077 -0.001,-2.875 m -49.013,-36.932 1.346,1.014 46.617,35.126 0.001,2.876 -46.45,-35.001 -1.513,-1.14 -10e-4,-2.875"
                 id="path30" /><path
                 fill="#0000ff"
                 d="m 122.482,179.164 43.807,33.009 1.006,0.757 0.001,2.876 -1.344,-1.012 -43.469,-32.754 -0.001,-2.876 m -47.263,-35.613 1.182,0.891 45.032,33.932 10e-4,2.876 -44.694,-33.678 -1.52,-1.146 -0.001,-2.875"
                 id="path32-5" /><path
                 fill="#0000ff"
                 d="m 122.49,198.353 41.007,30.898 1.004,0.757 0.002,2.875 -1.543,-1.162 -40.468,-30.493 -0.002,-2.875 m -44.462,-33.503 1.181,0.891 42.232,31.821 10e-4,2.876 -41.694,-31.417 -1.719,-1.295 -10e-4,-2.876"
                 id="path34-6" /><path
                 fill="#0000ff"
                 d="m 122.499,217.54 36.729,27.676 1.082,0.815 0.001,2.884 -1.882,-1.418 -35.929,-27.072 -0.001,-2.885 m -40.263,-30.337 1.258,0.948 37.955,28.599 0.001,2.884 -37.155,-27.996 -2.058,-1.551 -10e-4,-2.884"
                 id="path36-2" /><path
                 fill="#0000ff"
                 d="m 122.506,236.729 30.396,22.903 1.113,0.839 0.001,2.884 -2.314,-1.744 -29.194,-21.998 -0.002,-2.884 m -33.96,-25.589 1.29,0.972 31.622,23.826 0.001,2.885 -30.42,-22.923 -2.491,-1.877 -0.002,-2.883"
                 id="path38-9" /><path
                 fill="#0000ff"
                 d="m 124.564,257.47 18.226,13.733 1.431,1.078 0.001,2.875 -3.61,-2.72 -16.475,-12.414 0.427,-2.552 m -26.557,-20.011 1.957,1.475 19.452,14.656 0.429,3.199 -17.701,-13.338 -4.137,-3.117 v -2.875"
                 id="path40-1" /><polyline
                 fill="#ff0000"
                 points="121.895,30.781 122.421,32.015 122.426,43.872 122.427,46.748 122.434,63.06          122.435,65.944 122.442,82.256 122.443,85.132 122.45,101.445 122.451,104.32 122.458,120.633 122.459,123.508          122.466,139.821 122.467,142.705 122.475,159.977 122.476,162.852 122.482,179.164 122.483,182.04 122.49,198.353          122.492,201.228 122.499,217.54 122.5,220.425 122.506,236.729 122.508,239.612 122.512,250.511 121.986,250.952          121.463,249.725 121.458,238.822 121.457,235.938 121.45,219.634 121.449,216.75 121.442,200.438 121.441,197.562          121.435,181.249 121.433,178.373 121.426,162.062 121.425,159.186 121.418,141.914 121.417,139.03 121.41,122.718          121.409,119.842 121.402,103.53 121.401,100.654 121.394,84.342 121.393,81.466 121.386,65.153 121.385,62.27          121.378,45.957 121.377,43.081 121.372,31.22 121.895,30.781        "
                 id="polyline42" /><polyline
                 fill="#ff0000"
                 points="121.885,8.934 122.334,12.274 124.182,26.013 124.612,29.212 126.17,40.797 122.421,32.015          121.895,30.781 121.372,31.22 117.631,34.363 119.178,25.117 119.605,22.564 121.444,11.572 121.885,8.934        "
                 id="polyline44" /><polyline
                 fill="#ff0000"
                 points="117.717,240.941 121.463,249.725 121.986,250.952 122.512,250.511 126.256,247.376          124.564,257.47 124.137,260.022 122.464,270.003 121.996,272.8 121.53,269.331 119.845,256.789 119.416,253.59          117.717,240.941        "
                 id="polyline46" /></g></g></g></g></g></g></g><g
   id="g24"
   style="fill:#ffffff;fill-opacity:1">
	<g
   id="g22"
   style="fill:#ffffff;fill-opacity:1">
		<g
   enable-background="new    "
   id="g20"
   style="fill:#ffffff;fill-opacity:1">
			<defs
   id="defs5">
				<polygon
   id="SVGID_3_"
   enable-background="new    "
   points="619.027,260.892 619.205,165.783 1057.977,104.108       1057.799,199.217     " />
			</defs>
			<clipPath
   id="SVGID_1_">
				<use
   xlink:href="#SVGID_3_"
   overflow="visible"
   id="use7" />
			</clipPath>
			<g
   clip-path="url(#SVGID_1_)"
   id="g18"
   style="fill:#ffffff;fill-opacity:1">
				<g
   id="g16"
   style="fill:#ffffff;fill-opacity:1">
					<g
   id="g14"
   style="fill:#ffffff;fill-opacity:1">
						<g
   id="g12"
   style="fill:#ffffff;fill-opacity:1">
							<path
   d="M1032.161,107.737c-7.098,0.998-10.143,19.301-14.323,49.339c-2.832,20.392-6.363,45.774-11.666,46.52         c-5.303,0.745-8.74-23.658-11.507-43.263c-4.062-28.87-7.048-46.335-14.137-45.339c-7.089,0.997-10.134,19.31-14.314,49.338         c-2.833,20.392-6.363,45.774-11.666,46.519c-5.303,0.746-8.74-23.657-11.507-43.262         c-4.063-28.879-7.048-46.335-14.138-45.339c-7.089,0.996-10.134,19.3-14.313,49.338c-2.834,20.392-6.365,45.774-11.667,46.52         s-8.741-23.658-11.498-43.264c-4.07-28.878-7.048-46.335-14.138-45.338c-7.089,0.996-10.134,19.309-14.314,49.338         c-2.833,20.392-6.363,45.774-11.666,46.519c-5.303,0.746-8.74-23.657-11.499-43.263         c-4.062-28.879-7.048-46.335-14.137-45.339c-7.089,0.997-10.134,19.3-14.314,49.338c-2.833,20.392-6.363,45.774-11.666,46.52         s-8.74-23.658-11.499-43.264c-4.07-28.878-7.048-46.335-14.137-45.339c-7.089,0.997-10.135,19.3-14.314,49.338         c-2.833,20.392-6.364,45.774-11.666,46.52c-5.303,0.746-8.741-23.657-11.499-43.263c-4.07-28.869-7.048-46.335-14.137-45.339         s-10.135,19.3-14.315,49.338c-2.832,20.392-6.363,45.775-11.666,46.52s-8.74-23.658-11.498-43.264         c-4.07-28.869-7.049-46.335-14.137-45.339c-7.089,0.997-10.135,19.3-14.314,49.338c-2.833,20.392-6.364,45.774-11.667,46.52         c-5.303,0.746-8.741-23.657-11.499-43.264c-4.07-28.878-7.048-46.335-14.137-45.338l-0.005,2.879         c5.303-0.746,8.741,23.658,11.499,43.264c4.07,28.877,7.048,46.335,14.137,45.339c7.088-0.997,10.134-19.301,14.314-49.338         c2.833-20.392,6.364-45.774,11.667-46.52c5.303-0.746,8.74,23.658,11.498,43.264c4.07,28.877,7.049,46.335,14.138,45.338         c7.089-0.996,10.134-19.301,14.313-49.338c2.834-20.392,6.364-45.774,11.667-46.52c5.303-0.746,8.74,23.658,11.498,43.264         c4.07,28.878,7.049,46.335,14.138,45.339c7.089-0.997,10.134-19.301,14.313-49.338c2.834-20.392,6.365-45.774,11.668-46.52         c5.302-0.746,8.74,23.658,11.498,43.264c4.069,28.877,7.048,46.335,14.137,45.338c7.089-0.996,10.142-19.302,14.314-49.337         c2.833-20.392,6.364-45.775,11.667-46.52s8.74,23.658,11.498,43.264c4.069,28.878,7.048,46.335,14.138,45.339         c7.088-0.996,10.134-19.301,14.313-49.338c2.834-20.392,6.364-45.774,11.666-46.52c5.304-0.746,8.74,23.657,11.499,43.263         c4.07,28.878,7.048,46.335,14.137,45.339c7.09-0.997,10.135-19.301,14.314-49.338c2.833-20.392,6.364-45.774,11.667-46.52         c5.303-0.746,8.74,23.658,11.507,43.262c4.062,28.879,7.048,46.335,14.137,45.339s10.134-19.301,14.314-49.338         c2.833-20.392,6.364-45.774,11.667-46.52c5.311-0.747,8.74,23.658,11.506,43.263c4.062,28.879,7.049,46.335,14.138,45.339         c7.088-0.997,10.134-19.301,14.313-49.338c2.834-20.392,6.364-45.774,11.675-46.521c5.303-0.746,8.74,23.658,11.498,43.264         c4.07,28.877,7.049,46.335,14.146,45.337l0.005-2.879c-5.31,0.747-8.748-23.656-11.506-43.262         C1042.228,124.197,1039.25,106.74,1032.161,107.737"
   id="path10"
   style="fill:#ffffff;fill-opacity:1" />
						</g>
					</g>
				</g>
			</g>
		</g>
	</g>
</g>

<g
   id="g102"
   style="fill:#ffffff;fill-opacity:1">
	<g
   id="g100"
   style="fill:#ffffff;fill-opacity:1">
		<g
   enable-background="new    "
   id="g98"
   style="fill:#ffffff;fill-opacity:1">
			<defs
   id="defs81">
				<polygon
   id="SVGID_5_"
   enable-background="new    "
   points="131.957,300.21 132.015,268.962 1086.543,134.792 1086.484,166.04           " />
			</defs>
			<clipPath
   id="SVGID_6_">
				<use
   xlink:href="#SVGID_5_"
   overflow="visible"
   id="use83" />
			</clipPath>
			<g
   clip-path="url(#SVGID_6_)"
   id="g96"
   style="fill:#ffffff;fill-opacity:1">
				<g
   id="g94"
   style="fill:#ffffff;fill-opacity:1">
					<g
   id="g92"
   style="fill:#ffffff;fill-opacity:1">
						<g
   id="g90"
   style="fill:#ffffff;fill-opacity:1">
							<polyline
   points="1058.467,152.439 131.989,282.666 131.982,286.506 1058.46,156.278 1059.495,154.213 1058.467,152.439                 "
   id="polyline86"
   style="fill:#ffffff;fill-opacity:1" />
							<polyline
   points="1051.123,139.771 1058.467,152.439 1059.495,154.213 1058.46,156.278 1051.064,171.018 1086.514,150.416          1051.123,139.771        "
   id="polyline88"
   style="fill:#ffffff;fill-opacity:1" />
						</g>
					</g>
				</g>
			</g>
		</g>
	</g>
</g>



<g
   id="g224">
</g>
<g
   id="g420">
	<g
   id="g248">
		<g
   id="g246">
			<g
   enable-background="new    "
   id="g244">
				<defs
   id="defs227">
					<polygon
   id="SVGID_7_"
   enable-background="new    "
   points="209.754,387.168 194.044,375.329 194.002,268.829 209.712,280.668             " />
				</defs>
				<clipPath
   id="SVGID_8_">
					<use
   xlink:href="#SVGID_7_"
   overflow="visible"
   id="use229" />
				</clipPath>
				<g
   clip-path="url(#SVGID_8_)"
   id="g242">
					<g
   id="g240">
						<g
   id="g238">
							<g
   id="g236">
								<polyline
   fill="#009600"
   points="201.025,274.122 202.601,275.31 202.628,344.529 201.052,343.342 201.025,274.122                   "
   id="polyline232" />
								<polyline
   fill="#009600"
   points="194.029,338.05 201.052,343.342 202.628,344.529 209.739,349.889 201.899,381.248           194.029,338.05         "
   id="polyline234" />
							</g>
						</g>
					</g>
				</g>
			</g>
		</g>
	</g>
	<g
   id="g418">
		<g
   id="g272">
			<g
   id="g270">
				<g
   enable-background="new    "
   id="g268">
					<defs
   id="defs251">
						<polygon
   id="SVGID_9_"
   enable-background="new    "
   points="212.004,276.17 196.294,264.332 196.252,157.833 211.962,169.671               " />
					</defs>
					<clipPath
   id="SVGID_10_">
						<use
   xlink:href="#SVGID_9_"
   overflow="visible"
   id="use253" />
					</clipPath>
					<g
   clip-path="url(#SVGID_10_)"
   id="g266">
						<g
   id="g264">
							<g
   id="g262">
								<g
   id="g260">
									<polyline
   fill="#009600"
   points="203.378,200.47 204.954,201.657 204.981,270.878 203.405,269.69 203.378,200.47                     "
   id="polyline256" />
									<polyline
   fill="#009600"
   points="204.11,163.754 211.977,206.95 204.954,201.657 203.378,200.47 196.267,195.111            204.11,163.754          "
   id="polyline258" />
								</g>
							</g>
						</g>
					</g>
				</g>
			</g>
		</g>
		<g
   id="g296">
			<g
   id="g294">
				<g
   enable-background="new    "
   id="g292">
					<defs
   id="defs275">
						<polygon
   id="SVGID_11_"
   enable-background="new    "
   points="203.792,276.453 175.661,255.256 175.628,178.34 203.76,199.537               " />
					</defs>
					<clipPath
   id="SVGID_12_">
						<use
   xlink:href="#SVGID_11_"
   overflow="visible"
   id="use277" />
					</clipPath>
					<g
   clip-path="url(#SVGID_12_)"
   id="g290">
						<g
   id="g288">
							<g
   id="g286">
								<g
   id="g284">
									<polyline
   fill="#009600"
   points="186.981,214.395 203.791,273.06 202.554,275.52 185.745,216.855 186.981,214.395                     "
   id="polyline280" />
									<polyline
   fill="#009600"
   points="175.628,178.34 192.494,203.428 186.981,214.395 185.745,216.855 180.163,227.96            175.628,178.34          "
   id="polyline282" />
								</g>
							</g>
						</g>
					</g>
				</g>
			</g>
		</g>
		<g
   id="g320">
			<g
   id="g318">
				<g
   enable-background="new    "
   id="g316">
					<defs
   id="defs299">
						<polygon
   id="SVGID_13_"
   enable-background="new    "
   points="230.459,365.59 202.328,344.393 202.295,267.477         230.427,288.673       " />
					</defs>
					<clipPath
   id="SVGID_14_">
						<use
   xlink:href="#SVGID_13_"
   overflow="visible"
   id="use301" />
					</clipPath>
					<g
   clip-path="url(#SVGID_14_)"
   id="g314">
						<g
   id="g312">
							<g
   id="g310">
								<g
   id="g308">
									<polyline
   fill="#009600"
   points="203.531,268.407 220.341,327.077 219.105,329.537 202.297,270.87 203.531,268.407                     "
   id="polyline304" />
									<polyline
   fill="#009600"
   points="225.921,315.977 230.459,365.59 213.593,340.502 219.105,329.537 220.341,327.077            225.921,315.977          "
   id="polyline306" />
								</g>
							</g>
						</g>
					</g>
				</g>
			</g>
		</g>
		<g
   id="g344">
			<g
   id="g342">
				<g
   enable-background="new    "
   id="g340">
					<defs
   id="defs323">
						<polygon
   id="SVGID_15_"
   enable-background="new    "
   points="231.528,293.425 203.463,272.278 203.431,195.181         231.496,216.327       " />
					</defs>
					<clipPath
   id="SVGID_16_">
						<use
   xlink:href="#SVGID_15_"
   overflow="visible"
   id="use325" />
					</clipPath>
					<g
   clip-path="url(#SVGID_16_)"
   id="g338">
						<g
   id="g336">
							<g
   id="g334">
								<g
   id="g332">
									<polyline
   fill="#009600"
   points="220.233,235.52 221.473,239.847 204.701,273.211 203.461,268.885 220.233,235.52                     "
   id="polyline328" />
									<polyline
   fill="#009600"
   points="231.496,216.327 226.997,259.132 221.473,239.847 220.233,235.52 214.641,215.998            231.496,216.327          "
   id="polyline330" />
								</g>
							</g>
						</g>
					</g>
				</g>
			</g>
		</g>
		<g
   id="g368">
			<g
   id="g366">
				<g
   enable-background="new    "
   id="g364">
					<defs
   id="defs347">
						<polygon
   id="SVGID_17_"
   enable-background="new    "
   points="202.659,349.755 174.597,328.61 174.565,251.513         202.627,272.657       " />
					</defs>
					<clipPath
   id="SVGID_18_">
						<use
   xlink:href="#SVGID_17_"
   overflow="visible"
   id="use349" />
					</clipPath>
					<g
   clip-path="url(#SVGID_18_)"
   id="g362">
						<g
   id="g360">
							<g
   id="g358">
								<g
   id="g356">
									<polyline
   fill="#009600"
   points="201.389,271.725 202.628,276.051 185.857,309.408 184.618,305.081 201.389,271.725                     "
   id="polyline352" />
									<polyline
   fill="#009600"
   points="179.093,285.805 184.618,305.081 185.857,309.408 191.453,328.932 174.597,328.61            179.093,285.805          "
   id="polyline354" />
								</g>
							</g>
						</g>
					</g>
				</g>
			</g>
		</g>
		<g
   id="g392">
			<g
   id="g390">
				<g
   enable-background="new    "
   id="g388">
					<defs
   id="defs371">
						<polygon
   id="SVGID_19_"
   enable-background="new    "
   points="201.44,293.298 162.58,264.015 162.563,220.959 201.423,250.242               " />
					</defs>
					<clipPath
   id="SVGID_20_">
						<use
   xlink:href="#SVGID_19_"
   overflow="visible"
   id="use373" />
					</clipPath>
					<g
   clip-path="url(#SVGID_20_)"
   id="g386">
						<g
   id="g384">
							<g
   id="g382">
								<g
   id="g380">
									<polyline
   fill="#009600"
   points="176.176,250.459 201.431,269.49 201.432,273.808 176.178,254.777 176.176,250.459                     "
   id="polyline376" />
									<polyline
   fill="#009600"
   points="176.169,231.212 176.176,250.459 176.178,254.777 176.186,274.268 162.571,242.479            176.169,231.212          "
   id="polyline378" />
								</g>
							</g>
						</g>
					</g>
				</g>
			</g>
		</g>
		<g
   id="g416">
			<g
   id="g414">
				<g
   enable-background="new    "
   id="g412">
					<defs
   id="defs395">
						<polygon
   id="SVGID_21_"
   enable-background="new    "
   points="242.441,323.043 203.578,293.758 203.561,250.702         242.424,279.987       " />
					</defs>
					<clipPath
   id="SVGID_22_">
						<use
   xlink:href="#SVGID_21_"
   overflow="visible"
   id="use397" />
					</clipPath>
					<g
   clip-path="url(#SVGID_22_)"
   id="g410">
						<g
   id="g408">
							<g
   id="g406">
								<g
   id="g404">
									<polyline
   fill="#009600"
   points="203.569,270.192 228.826,289.226 228.828,293.543 203.57,274.51 203.569,270.192                     "
   id="polyline400" />
									<polyline
   fill="#009600"
   points="228.818,269.735 242.433,301.516 228.835,312.791 228.828,293.543 228.826,289.226            228.818,269.735          "
   id="polyline402" />
								</g>
							</g>
						</g>
					</g>
				</g>
			</g>
		</g>
	</g>
</g>
<g
   id="g444">
	<g
   id="g442">
		<g
   enable-background="new    "
   id="g440">
			<defs
   id="defs423">
				<polygon
   id="SVGID_23_"
   enable-background="new    "
   points="855.999,190.167 840.289,178.328 840.246,71.829 855.957,83.667           " />
			</defs>
			<clipPath
   id="SVGID_24_">
				<use
   xlink:href="#SVGID_23_"
   overflow="visible"
   id="use425" />
			</clipPath>
			<g
   clip-path="url(#SVGID_24_)"
   id="g438">
				<g
   id="g436">
					<g
   id="g434">
						<g
   id="g432">
							<polyline
   fill="#009600"
   points="847.372,114.475 848.948,115.662 848.976,184.874 847.4,183.687 847.372,114.475        "
   id="polyline428" />
							<polyline
   fill="#009600"
   points="848.102,77.748 855.972,120.954 848.948,115.662 847.372,114.475 840.261,109.116          848.102,77.748        "
   id="polyline430" />
						</g>
					</g>
				</g>
			</g>
		</g>
	</g>
</g>
<g
   id="g540"
   style="fill:#ffffff">
	<path
   d="m 100.755,412.213 c 0,1.836 0.036,3.419 0.144,4.787 h -2.808 l -0.18,-2.844 h -0.072 c -0.792,1.404 -2.664,3.239 -5.759,3.239 -2.735,0 -6.011,-1.548 -6.011,-7.631 v -10.187 h 3.168 v 9.611 c 0,3.312 1.043,5.579 3.887,5.579 2.124,0 3.6,-1.477 4.176,-2.916 0.18,-0.432 0.288,-1.008 0.288,-1.62 v -10.654 h 3.168 v 12.636 z"
   id="path446"
   style="fill:#ffffff" />
	<path
   d="m 106.012,404.294 c 0,-1.836 -0.036,-3.276 -0.144,-4.716 h 2.808 l 0.18,2.88 h 0.072 c 0.864,-1.62 2.879,-3.24 5.759,-3.24 2.412,0 6.155,1.44 6.155,7.415 V 417 h -3.168 v -10.043 c 0,-2.808 -1.043,-5.147 -4.031,-5.147 -2.052,0 -3.671,1.477 -4.248,3.24 -0.144,0.396 -0.216,0.936 -0.216,1.476 V 417 h -3.168 v -12.706 z"
   id="path448"
   style="fill:#ffffff" />
	<path
   d="m 125.992,405.266 c 0,-2.231 -0.072,-4.031 -0.144,-5.688 h 2.808 l 0.18,2.987 h 0.072 c 1.26,-2.123 3.348,-3.348 6.191,-3.348 4.248,0 7.415,3.564 7.415,8.819 0,6.264 -3.852,9.358 -7.955,9.358 -2.304,0 -4.32,-1.008 -5.364,-2.735 h -0.072 v 9.467 h -3.132 v -18.86 z m 3.132,4.643 c 0,0.468 0.036,0.899 0.144,1.296 0.576,2.195 2.483,3.707 4.751,3.707 3.348,0 5.291,-2.735 5.291,-6.731 0,-3.455 -1.835,-6.442 -5.183,-6.442 -2.16,0 -4.211,1.512 -4.788,3.887 -0.108,0.396 -0.216,0.864 -0.216,1.261 v 3.022 z"
   id="path450"
   style="fill:#ffffff" />
	<path
   d="m 162.242,408.146 c 0,6.442 -4.5,9.25 -8.675,9.25 -4.679,0 -8.351,-3.455 -8.351,-8.963 0,-5.795 3.852,-9.215 8.639,-9.215 5.003,0 8.387,3.636 8.387,8.928 z m -13.786,0.179 c 0,3.815 2.16,6.695 5.255,6.695 3.023,0 5.292,-2.844 5.292,-6.768 0,-2.951 -1.476,-6.659 -5.22,-6.659 -3.708,10e-4 -5.327,3.457 -5.327,6.732 z"
   id="path452"
   style="fill:#ffffff" />
	<path
   d="m 166.239,391.443 h 3.168 V 417 h -3.168 z"
   id="path454"
   style="fill:#ffffff" />
	<path
   d="m 186.974,412.824 c 0,1.512 0.072,2.988 0.252,4.176 h -2.844 l -0.252,-2.195 h -0.108 c -0.972,1.367 -2.844,2.591 -5.327,2.591 -3.528,0 -5.328,-2.483 -5.328,-5.003 0,-4.212 3.744,-6.516 10.475,-6.479 v -0.359 c 0,-1.404 -0.396,-4.032 -3.959,-3.996 -1.656,0 -3.348,0.468 -4.571,1.296 l -0.72,-2.123 c 1.439,-0.9 3.563,-1.513 5.759,-1.513 5.327,0 6.623,3.636 6.623,7.092 z m -3.06,-4.715 c -3.456,-0.072 -7.379,0.54 -7.379,3.923 0,2.088 1.368,3.024 2.952,3.024 2.304,0 3.78,-1.44 4.284,-2.916 0.108,-0.36 0.144,-0.72 0.144,-1.008 v -3.023 z"
   id="path456"
   style="fill:#ffffff" />
	<path
   d="m 192.087,405.014 c 0,-2.052 -0.036,-3.815 -0.144,-5.436 h 2.771 l 0.144,3.456 h 0.108 c 0.792,-2.34 2.736,-3.816 4.859,-3.816 0.324,0 0.576,0.036 0.864,0.072 v 2.988 c -0.324,-0.072 -0.648,-0.072 -1.08,-0.072 -2.232,0 -3.816,1.655 -4.248,4.031 -0.072,0.432 -0.108,0.972 -0.108,1.476 V 417 h -3.168 v -11.986 z"
   id="path458"
   style="fill:#ffffff" />
	<path
   d="m 207.531,394.683 c 0,1.08 -0.756,1.944 -2.016,1.944 -1.152,0 -1.908,-0.864 -1.908,-1.944 0,-1.08 0.792,-1.979 1.979,-1.979 1.153,-0.001 1.945,0.863 1.945,1.979 z M 204.003,417 v -17.422 h 3.168 V 417 Z"
   id="path460"
   style="fill:#ffffff" />
	<path
   d="m 211.995,413.797 c 0.972,0.575 2.627,1.224 4.211,1.224 2.268,0 3.348,-1.116 3.348,-2.592 0,-1.512 -0.9,-2.304 -3.204,-3.168 -3.167,-1.151 -4.644,-2.844 -4.644,-4.931 0,-2.809 2.304,-5.112 6.011,-5.112 1.764,0 3.312,0.469 4.248,1.08 l -0.756,2.304 c -0.684,-0.432 -1.944,-1.044 -3.563,-1.044 -1.872,0 -2.88,1.08 -2.88,2.376 0,1.439 1.008,2.088 3.276,2.987 2.987,1.116 4.571,2.628 4.571,5.22 0,3.096 -2.412,5.255 -6.479,5.255 -1.908,0 -3.671,-0.504 -4.895,-1.224 z"
   id="path462"
   style="fill:#ffffff" />
	<path
   d="m 230.21,394.683 c 0,1.08 -0.756,1.944 -2.016,1.944 -1.152,0 -1.908,-0.864 -1.908,-1.944 0,-1.08 0.792,-1.979 1.979,-1.979 1.154,-0.001 1.945,0.863 1.945,1.979 z M 226.683,417 v -17.422 h 3.168 V 417 Z"
   id="path464"
   style="fill:#ffffff" />
	<path
   d="m 236.871,408.865 c 0.072,4.283 2.771,6.047 5.975,6.047 2.268,0 3.671,-0.396 4.823,-0.899 l 0.576,2.268 c -1.116,0.504 -3.06,1.115 -5.832,1.115 -5.363,0 -8.567,-3.563 -8.567,-8.818 0,-5.256 3.096,-9.359 8.171,-9.359 5.724,0 7.199,4.968 7.199,8.172 0,0.647 -0.036,1.115 -0.108,1.476 h -12.237 z m 9.286,-2.267 c 0.036,-1.98 -0.828,-5.111 -4.392,-5.111 -3.239,0 -4.607,2.915 -4.859,5.111 z"
   id="path466"
   style="fill:#ffffff" />
	<path
   d="m 253.142,405.014 c 0,-2.052 -0.036,-3.815 -0.144,-5.436 h 2.771 l 0.144,3.456 h 0.108 c 0.792,-2.34 2.736,-3.816 4.859,-3.816 0.324,0 0.576,0.036 0.864,0.072 v 2.988 c -0.324,-0.072 -0.648,-0.072 -1.08,-0.072 -2.232,0 -3.815,1.655 -4.248,4.031 -0.072,0.432 -0.108,0.972 -0.108,1.476 V 417 h -3.168 v -11.986 z"
   id="path468"
   style="fill:#ffffff" />
	<path
   d="m 269.593,395.402 v 4.176 h 4.535 v 2.412 h -4.535 v 9.395 c 0,2.16 0.612,3.384 2.375,3.384 0.864,0 1.368,-0.072 1.836,-0.216 l 0.144,2.411 c -0.612,0.216 -1.584,0.432 -2.808,0.432 -1.476,0 -2.664,-0.504 -3.42,-1.331 -0.864,-0.973 -1.224,-2.52 -1.224,-4.571 v -9.503 h -2.7 v -2.412 h 2.7 v -3.239 z"
   id="path470"
   style="fill:#ffffff" />
	<path
   d="m 279.241,408.865 c 0.072,4.283 2.771,6.047 5.975,6.047 2.268,0 3.671,-0.396 4.823,-0.899 l 0.576,2.268 c -1.116,0.504 -3.06,1.115 -5.832,1.115 -5.363,0 -8.567,-3.563 -8.567,-8.818 0,-5.256 3.096,-9.359 8.171,-9.359 5.724,0 7.199,4.968 7.199,8.172 0,0.647 -0.036,1.115 -0.108,1.476 h -12.237 z m 9.287,-2.267 c 0.036,-1.98 -0.828,-5.111 -4.392,-5.111 -3.239,0 -4.607,2.915 -4.859,5.111 z"
   id="path472"
   style="fill:#ffffff" />
	<path
   d="m 295.081,413.797 c 0.972,0.575 2.627,1.224 4.211,1.224 2.268,0 3.348,-1.116 3.348,-2.592 0,-1.512 -0.9,-2.304 -3.204,-3.168 -3.167,-1.151 -4.644,-2.844 -4.644,-4.931 0,-2.809 2.304,-5.112 6.011,-5.112 1.764,0 3.312,0.469 4.248,1.08 l -0.756,2.304 c -0.684,-0.432 -1.944,-1.044 -3.563,-1.044 -1.872,0 -2.88,1.08 -2.88,2.376 0,1.439 1.008,2.088 3.276,2.987 2.987,1.116 4.571,2.628 4.571,5.22 0,3.096 -2.412,5.255 -6.479,5.255 -1.908,0 -3.671,-0.504 -4.895,-1.224 z"
   id="path474"
   style="fill:#ffffff" />
	<path
   d="m 317.473,392.739 h 3.167 v 21.633 h 10.367 V 417 h -13.534 z"
   id="path476"
   style="fill:#ffffff" />
	<path
   d="m 337.92,394.683 c 0,1.08 -0.756,1.944 -2.016,1.944 -1.152,0 -1.908,-0.864 -1.908,-1.944 0,-1.08 0.792,-1.979 1.979,-1.979 1.153,-0.001 1.945,0.863 1.945,1.979 z M 334.392,417 v -17.422 h 3.168 V 417 Z"
   id="path478"
   style="fill:#ffffff" />
	<path
   d="m 355.234,416.388 c -0.828,0.396 -2.664,1.008 -5.003,1.008 -5.255,0 -8.675,-3.563 -8.675,-8.891 0,-5.363 3.672,-9.287 9.359,-9.287 1.872,0 3.528,0.469 4.392,0.937 l -0.72,2.411 c -0.756,-0.396 -1.943,-0.827 -3.671,-0.827 -3.996,0 -6.155,2.987 -6.155,6.587 0,4.031 2.592,6.515 6.047,6.515 1.8,0 2.988,-0.432 3.888,-0.827 z"
   id="path480"
   style="fill:#ffffff" />
	<path
   d="m 358.944,391.443 h 3.168 v 10.906 h 0.072 c 0.504,-0.899 1.296,-1.728 2.268,-2.268 0.936,-0.54 2.052,-0.864 3.24,-0.864 2.34,0 6.083,1.44 6.083,7.415 V 417 h -3.168 v -10.007 c 0,-2.808 -1.043,-5.147 -4.031,-5.147 -2.052,0 -3.636,1.44 -4.248,3.132 -0.18,0.468 -0.216,0.936 -0.216,1.512 V 417 h -3.168 z"
   id="path482"
   style="fill:#ffffff" />
	<path
   d="m 382.595,395.402 v 4.176 h 4.535 v 2.412 h -4.535 v 9.395 c 0,2.16 0.612,3.384 2.375,3.384 0.864,0 1.368,-0.072 1.836,-0.216 l 0.144,2.411 c -0.612,0.216 -1.584,0.432 -2.808,0.432 -1.476,0 -2.664,-0.504 -3.42,-1.331 -0.864,-0.973 -1.224,-2.52 -1.224,-4.571 v -9.503 h -2.7 v -2.412 h 2.7 v -3.239 z"
   id="path484"
   style="fill:#ffffff" />
	<path
   d="m 17.813,428.02 c -2.627,3.563 -4.5,8.207 -4.5,14.758 0,6.407 1.98,10.979 4.5,14.578 h -2.448 c -2.268,-2.987 -4.715,-7.595 -4.715,-14.614 0.036,-7.055 2.448,-11.698 4.715,-14.722 z"
   id="path486"
   style="fill:#ffffff" />
	<path
   d="m 20.766,449.797 c 0.972,0.575 2.627,1.224 4.211,1.224 2.268,0 3.348,-1.116 3.348,-2.592 0,-1.512 -0.9,-2.304 -3.204,-3.168 -3.167,-1.151 -4.644,-2.844 -4.644,-4.931 0,-2.809 2.304,-5.112 6.011,-5.112 1.764,0 3.312,0.469 4.248,1.08 l -0.756,2.304 c -0.684,-0.432 -1.944,-1.044 -3.563,-1.044 -1.872,0 -2.88,1.08 -2.88,2.376 0,1.439 1.008,2.088 3.276,2.987 2.987,1.116 4.571,2.628 4.571,5.22 0,3.096 -2.412,5.255 -6.479,5.255 -1.908,0 -3.671,-0.504 -4.895,-1.224 z"
   id="path488"
   style="fill:#ffffff" />
	<path
   d="m 47.872,452.388 c -0.828,0.396 -2.664,1.008 -5.003,1.008 -5.255,0 -8.675,-3.563 -8.675,-8.891 0,-5.363 3.672,-9.287 9.359,-9.287 1.872,0 3.528,0.469 4.392,0.937 l -0.72,2.411 c -0.756,-0.396 -1.944,-0.827 -3.672,-0.827 -3.996,0 -6.155,2.987 -6.155,6.587 0,4.031 2.592,6.515 6.047,6.515 1.8,0 2.988,-0.432 3.888,-0.827 z"
   id="path490"
   style="fill:#ffffff" />
	<path
   d="m 51.581,427.443 h 3.168 v 10.906 h 0.072 c 0.504,-0.899 1.296,-1.728 2.268,-2.268 0.936,-0.54 2.052,-0.864 3.24,-0.864 2.34,0 6.083,1.44 6.083,7.415 V 453 h -3.168 v -10.007 c 0,-2.808 -1.044,-5.147 -4.031,-5.147 -2.052,0 -3.636,1.44 -4.248,3.132 -0.18,0.468 -0.216,0.936 -0.216,1.512 V 453 h -3.168 z"
   id="path492"
   style="fill:#ffffff" />
	<path
   d="m 72.354,435.578 2.339,8.854 c 0.468,1.944 0.936,3.744 1.26,5.544 h 0.108 c 0.396,-1.764 0.972,-3.636 1.548,-5.508 l 2.843,-8.891 h 2.664 l 2.699,8.711 c 0.648,2.088 1.152,3.924 1.548,5.688 h 0.108 c 0.288,-1.764 0.756,-3.6 1.332,-5.651 l 2.484,-8.747 h 3.131 L 88.803,453 h -2.879 l -2.664,-8.315 c -0.612,-1.943 -1.116,-3.671 -1.547,-5.723 H 81.64 c -0.432,2.088 -0.972,3.888 -1.584,5.759 L 77.249,453 H 74.37 l -5.255,-17.422 z"
   id="path494"
   style="fill:#ffffff" />
	<path
   d="m 101.117,430.683 c 0,1.08 -0.756,1.944 -2.016,1.944 -1.152,0 -1.908,-0.864 -1.908,-1.944 0,-1.08 0.792,-1.979 1.979,-1.979 1.153,-0.001 1.945,0.863 1.945,1.979 z M 97.589,453 v -17.422 h 3.168 V 453 Z"
   id="path496"
   style="fill:#ffffff" />
	<path
   d="m 106.013,440.294 c 0,-1.836 -0.036,-3.276 -0.144,-4.716 h 2.808 l 0.18,2.88 h 0.072 c 0.864,-1.62 2.879,-3.24 5.759,-3.24 2.412,0 6.155,1.44 6.155,7.415 V 453 h -3.168 v -10.043 c 0,-2.808 -1.044,-5.147 -4.031,-5.147 -2.052,0 -3.671,1.477 -4.248,3.24 -0.144,0.396 -0.216,0.936 -0.216,1.476 V 453 h -3.168 v -12.706 z"
   id="path498"
   style="fill:#ffffff" />
	<path
   d="m 140.895,450.444 c 0,4.031 -0.828,6.443 -2.484,7.991 -1.728,1.548 -4.175,2.088 -6.371,2.088 -2.087,0 -4.391,-0.504 -5.795,-1.44 l 0.792,-2.447 c 1.152,0.756 2.952,1.403 5.111,1.403 3.24,0 5.615,-1.691 5.615,-6.119 v -1.907 h -0.072 c -0.936,1.619 -2.844,2.915 -5.543,2.915 -4.319,0 -7.415,-3.671 -7.415,-8.495 0,-5.902 3.852,-9.215 7.883,-9.215 3.023,0 4.643,1.548 5.435,2.988 h 0.072 l 0.108,-2.628 h 2.808 c -0.108,1.224 -0.144,2.664 -0.144,4.752 z m -3.167,-7.991 c 0,-0.54 -0.036,-1.008 -0.18,-1.403 -0.576,-1.872 -2.088,-3.384 -4.427,-3.384 -3.024,0 -5.184,2.556 -5.184,6.587 0,3.42 1.764,6.264 5.147,6.264 1.98,0 3.744,-1.225 4.392,-3.24 0.18,-0.54 0.252,-1.151 0.252,-1.691 z"
   id="path500"
   style="fill:#ffffff" />
	<path
   d="m 149.932,431.402 v 4.176 h 4.535 v 2.412 h -4.535 v 9.395 c 0,2.16 0.612,3.384 2.375,3.384 0.864,0 1.368,-0.072 1.836,-0.216 l 0.144,2.411 c -0.612,0.216 -1.584,0.432 -2.808,0.432 -1.476,0 -2.664,-0.504 -3.42,-1.331 -0.864,-0.973 -1.224,-2.52 -1.224,-4.571 v -9.503 h -2.7 v -2.412 h 2.7 v -3.239 z"
   id="path502"
   style="fill:#ffffff" />
	<path
   d="m 169.191,430.683 c 0,1.08 -0.756,1.944 -2.016,1.944 -1.152,0 -1.908,-0.864 -1.908,-1.944 0,-1.08 0.792,-1.979 1.979,-1.979 1.153,-0.001 1.945,0.863 1.945,1.979 z M 165.664,453 v -17.422 h 3.168 V 453 Z"
   id="path504"
   style="fill:#ffffff" />
	<path
   d="m 174.087,440.294 c 0,-1.836 -0.036,-3.276 -0.144,-4.716 h 2.808 l 0.18,2.88 h 0.072 c 0.864,-1.62 2.879,-3.24 5.759,-3.24 2.412,0 6.155,1.44 6.155,7.415 V 453 h -3.168 v -10.043 c 0,-2.808 -1.043,-5.147 -4.031,-5.147 -2.052,0 -3.671,1.477 -4.248,3.24 -0.144,0.396 -0.216,0.936 -0.216,1.476 V 453 h -3.168 v -12.706 z"
   id="path506"
   style="fill:#ffffff" />
	<path
   d="m 213.938,448.824 c 0,1.512 0.072,2.988 0.252,4.176 h -2.844 l -0.252,-2.195 h -0.108 c -0.972,1.367 -2.844,2.591 -5.327,2.591 -3.528,0 -5.328,-2.483 -5.328,-5.003 0,-4.212 3.744,-6.516 10.475,-6.479 v -0.359 c 0,-1.404 -0.396,-4.032 -3.959,-3.996 -1.656,0 -3.348,0.468 -4.571,1.296 l -0.72,-2.123 c 1.439,-0.9 3.563,-1.513 5.759,-1.513 5.327,0 6.623,3.636 6.623,7.092 z m -3.06,-4.715 c -3.456,-0.072 -7.379,0.54 -7.379,3.923 0,2.088 1.368,3.024 2.952,3.024 2.304,0 3.78,-1.44 4.284,-2.916 0.108,-0.36 0.144,-0.72 0.144,-1.008 v -3.023 z"
   id="path508"
   style="fill:#ffffff" />
	<path
   d="m 219.05,427.443 h 3.168 V 453 h -3.168 z"
   id="path510"
   style="fill:#ffffff" />
	<path
   d="m 227.546,427.443 h 3.168 V 453 h -3.168 z"
   id="path512"
   style="fill:#ffffff" />
	<path
   d="m 237.806,444.865 c 0.072,4.283 2.771,6.047 5.975,6.047 2.268,0 3.671,-0.396 4.823,-0.899 l 0.576,2.268 c -1.116,0.504 -3.06,1.115 -5.832,1.115 -5.363,0 -8.567,-3.563 -8.567,-8.818 0,-5.256 3.096,-9.359 8.171,-9.359 5.724,0 7.199,4.968 7.199,8.172 0,0.647 -0.036,1.115 -0.108,1.476 h -12.237 z m 9.286,-2.267 c 0.036,-1.98 -0.828,-5.111 -4.392,-5.111 -3.239,0 -4.607,2.915 -4.859,5.111 z"
   id="path514"
   style="fill:#ffffff" />
	<path
   d="m 254.077,440.294 c 0,-1.836 -0.036,-3.276 -0.144,-4.716 h 2.808 l 0.18,2.88 h 0.072 c 0.864,-1.62 2.879,-3.24 5.759,-3.24 2.412,0 6.155,1.44 6.155,7.415 V 453 h -3.168 v -10.043 c 0,-2.808 -1.044,-5.147 -4.031,-5.147 -2.052,0 -3.671,1.477 -4.248,3.24 -0.144,0.396 -0.216,0.936 -0.216,1.476 V 453 h -3.168 v -12.706 z"
   id="path516"
   style="fill:#ffffff" />
	<path
   d="m 281.797,429.063 c 1.583,-0.288 3.887,-0.505 6.011,-0.505 3.347,0 5.543,0.648 7.019,1.98 1.188,1.08 1.908,2.735 1.908,4.644 0,3.167 -2.016,5.291 -4.536,6.155 v 0.107 c 1.836,0.648 2.952,2.376 3.528,4.896 0.792,3.384 1.368,5.724 1.872,6.659 h -3.24 c -0.396,-0.72 -0.936,-2.771 -1.583,-5.795 -0.72,-3.348 -2.052,-4.607 -4.896,-4.716 h -2.952 V 453 h -3.131 z m 3.132,11.05 h 3.204 c 3.348,0 5.471,-1.835 5.471,-4.607 0,-3.131 -2.268,-4.499 -5.579,-4.499 -1.512,0 -2.556,0.108 -3.096,0.252 z"
   id="path518"
   style="fill:#ffffff" />
	<path
   d="m 304.944,430.683 c 0,1.08 -0.756,1.944 -2.016,1.944 -1.152,0 -1.908,-0.864 -1.908,-1.944 0,-1.08 0.792,-1.979 1.979,-1.979 1.153,-0.001 1.945,0.863 1.945,1.979 z M 301.416,453 v -17.422 h 3.168 V 453 Z"
   id="path520"
   style="fill:#ffffff" />
	<path
   d="m 322.258,452.388 c -0.828,0.396 -2.664,1.008 -5.003,1.008 -5.255,0 -8.675,-3.563 -8.675,-8.891 0,-5.363 3.672,-9.287 9.359,-9.287 1.872,0 3.528,0.469 4.392,0.937 l -0.72,2.411 c -0.756,-0.396 -1.944,-0.827 -3.672,-0.827 -3.996,0 -6.155,2.987 -6.155,6.587 0,4.031 2.592,6.515 6.047,6.515 1.8,0 2.988,-0.432 3.888,-0.827 z"
   id="path522"
   style="fill:#ffffff" />
	<path
   d="m 325.968,427.443 h 3.168 v 10.906 h 0.072 c 0.504,-0.899 1.296,-1.728 2.268,-2.268 0.936,-0.54 2.052,-0.864 3.24,-0.864 2.34,0 6.083,1.44 6.083,7.415 V 453 h -3.168 v -10.007 c 0,-2.808 -1.044,-5.147 -4.031,-5.147 -2.052,0 -3.636,1.44 -4.248,3.132 -0.18,0.468 -0.216,0.936 -0.216,1.512 V 453 h -3.168 z"
   id="path524"
   style="fill:#ffffff" />
	<path
   d="m 349.62,431.402 v 4.176 h 4.535 v 2.412 h -4.535 v 9.395 c 0,2.16 0.612,3.384 2.375,3.384 0.864,0 1.368,-0.072 1.836,-0.216 l 0.144,2.411 c -0.612,0.216 -1.584,0.432 -2.808,0.432 -1.476,0 -2.664,-0.504 -3.42,-1.331 -0.864,-0.973 -1.224,-2.52 -1.224,-4.571 v -9.503 h -2.7 v -2.412 h 2.7 v -3.239 z"
   id="path526"
   style="fill:#ffffff" />
	<path
   d="m 372.299,448.213 c 0,1.836 0.036,3.419 0.144,4.787 h -2.808 l -0.18,-2.844 h -0.072 c -0.792,1.404 -2.664,3.239 -5.759,3.239 -2.735,0 -6.011,-1.548 -6.011,-7.631 v -10.187 h 3.168 v 9.611 c 0,3.312 1.043,5.579 3.887,5.579 2.124,0 3.6,-1.477 4.176,-2.916 0.18,-0.432 0.288,-1.008 0.288,-1.62 v -10.654 h 3.168 v 12.636 z"
   id="path528"
   style="fill:#ffffff" />
	<path
   d="m 377.556,440.294 c 0,-1.836 -0.036,-3.276 -0.144,-4.716 h 2.808 l 0.18,2.88 h 0.072 c 0.864,-1.62 2.879,-3.24 5.759,-3.24 2.412,0 6.155,1.44 6.155,7.415 V 453 h -3.168 v -10.043 c 0,-2.808 -1.043,-5.147 -4.031,-5.147 -2.052,0 -3.671,1.477 -4.248,3.24 -0.144,0.396 -0.216,0.936 -0.216,1.476 V 453 h -3.168 v -12.706 z"
   id="path530"
   style="fill:#ffffff" />
	<path
   d="m 412.438,450.444 c 0,4.031 -0.828,6.443 -2.484,7.991 -1.728,1.548 -4.175,2.088 -6.371,2.088 -2.087,0 -4.391,-0.504 -5.795,-1.44 l 0.792,-2.447 c 1.152,0.756 2.952,1.403 5.111,1.403 3.24,0 5.615,-1.691 5.615,-6.119 v -1.907 h -0.072 c -0.936,1.619 -2.844,2.915 -5.543,2.915 -4.319,0 -7.415,-3.671 -7.415,-8.495 0,-5.902 3.852,-9.215 7.883,-9.215 3.023,0 4.643,1.548 5.435,2.988 h 0.072 l 0.108,-2.628 h 2.808 c -0.108,1.224 -0.144,2.664 -0.144,4.752 z m -3.167,-7.991 c 0,-0.54 -0.036,-1.008 -0.18,-1.403 -0.576,-1.872 -2.088,-3.384 -4.427,-3.384 -3.024,0 -5.184,2.556 -5.184,6.587 0,3.42 1.764,6.264 5.147,6.264 1.98,0 3.744,-1.225 4.392,-3.24 0.18,-0.54 0.252,-1.151 0.252,-1.691 z"
   id="path532"
   style="fill:#ffffff" />
	<path
   d="m 419.423,444.865 c 0.072,4.283 2.771,6.047 5.975,6.047 2.268,0 3.671,-0.396 4.823,-0.899 l 0.576,2.268 c -1.116,0.504 -3.06,1.115 -5.832,1.115 -5.363,0 -8.567,-3.563 -8.567,-8.818 0,-5.256 3.096,-9.359 8.171,-9.359 5.724,0 7.199,4.968 7.199,8.172 0,0.647 -0.036,1.115 -0.108,1.476 h -12.237 z m 9.287,-2.267 c 0.036,-1.98 -0.828,-5.111 -4.392,-5.111 -3.239,0 -4.607,2.915 -4.859,5.111 z"
   id="path534"
   style="fill:#ffffff" />
	<path
   d="m 435.695,440.294 c 0,-1.836 -0.036,-3.276 -0.144,-4.716 h 2.808 l 0.18,2.88 h 0.072 c 0.864,-1.62 2.879,-3.24 5.759,-3.24 2.412,0 6.155,1.44 6.155,7.415 V 453 h -3.168 v -10.043 c 0,-2.808 -1.043,-5.147 -4.031,-5.147 -2.052,0 -3.671,1.477 -4.248,3.24 -0.144,0.396 -0.216,0.936 -0.216,1.476 V 453 h -3.168 v -12.706 z"
   id="path536"
   style="fill:#ffffff" />
	<path
   d="m 453.767,457.355 c 2.52,-3.563 4.5,-8.207 4.5,-14.687 0,-6.479 -1.944,-11.05 -4.5,-14.649 h 2.448 c 2.268,2.951 4.715,7.595 4.715,14.649 -0.036,7.056 -2.447,11.663 -4.715,14.687 z"
   id="path538"
   style="fill:#ffffff" />
</g>
<g
   id="g594">
	
	
	
	
	
	
	
	
	
	
	
	
	
	
	
	
	
	
	
	
	
	
	
	
	
	
<text
   xml:space="preserve"
   style="font-size:32px;line-height:1.25;font-family:sans-serif;word-spacing:0px;fill:none"
   x="869.97748"
   y="371.9043"
   id="text22233-35-9-2"
   transform="rotate(-7.0231223)"><tspan
     sodipodi:role="line"
     x="869.97748"
     y="371.9043"
     style="text-align:center;text-anchor:middle;fill:none"
     id="tspan45223-7">Vertically polarized light</tspan></text><text
   xml:space="preserve"
   style="font-style:italic;font-variant:normal;font-weight:normal;font-stretch:normal;font-size:32px;line-height:1.25;font-family:serif;-inkscape-font-specification:'serif Italic';stroke-width:1;fill:#ffffff;fill-opacity:1"
   x="762.59106"
   y="68.746422"
   id="text38072"><tspan
     id="tspan38070"
     style="font-style:italic;font-variant:normal;font-weight:normal;font-stretch:normal;font-size:32px;font-family:serif;-inkscape-font-specification:'serif Italic';stroke-width:1;fill:#ffffff;fill-opacity:1"
     x="762.59106"
     y="68.746422">I<tspan
   style="font-size:20.8px;baseline-shift:sub;stroke-width:1;fill:#ffffff;fill-opacity:1"
   id="tspan88181">1</tspan> = I<tspan
   style="font-size:20.8px;baseline-shift:sub;stroke-width:1;fill:#ffffff;fill-opacity:1"
   id="tspan92545">0</tspan> · 0,5</tspan></text><text
   xml:space="preserve"
   style="font-size:32px;line-height:1.25;font-family:sans-serif;word-spacing:0px;fill:#ffffff;fill-opacity:1"
   x="777.95746"
   y="32.340168"
   id="text22233"><tspan
     sodipodi:role="line"
     id="tspan22231"
     x="777.95746"
     y="32.340168">Intensity:</tspan></text></g>
<text
   xml:space="preserve"
   style="font-style:italic;font-variant:normal;font-weight:normal;font-stretch:normal;font-size:32px;line-height:1.25;font-family:serif;-inkscape-font-specification:'serif Italic';stroke-width:1;fill:#ffffff"
   x="394.57281"
   y="215.89371"
   id="text38072-3"><tspan
     id="tspan38070-6"
     style="font-style:italic;font-variant:normal;font-weight:normal;font-stretch:normal;font-size:32px;font-family:serif;-inkscape-font-specification:'serif Italic';stroke-width:1;fill:#ffffff"
     x="394.57281"
     y="215.89371">I<tspan
   style="font-size:20.8px;baseline-shift:sub;stroke-width:1;fill:#ffffff"
   id="tspan98163">0</tspan></tspan></text><text
   xml:space="preserve"
   style="font-weight:bold;font-size:18.6667px;line-height:1.25;font-family:sans-serif;-inkscape-font-specification:'sans-serif Bold';word-spacing:0px;fill:#0000ff"
   x="391.85089"
   y="110.42939"
   id="text95264"><tspan
     sodipodi:role="line"
     id="tspan95262"
     x="391.85089"
     y="110.42939"
     style="text-align:center;text-anchor:middle">Possible oscillation direction</tspan><tspan
     sodipodi:role="line"
     x="391.85089"
     y="133.76276"
     id="tspan100546"
     style="text-align:center;text-anchor:middle">of the moleculs</tspan></text><text
   xml:space="preserve"
   style="font-weight:bold;font-size:18.6667px;line-height:1.25;font-family:sans-serif;-inkscape-font-specification:'sans-serif Bold';word-spacing:0px;fill:#ff0000"
   x="434.37936"
   y="297.90424"
   id="text95264-1"><tspan
     sodipodi:role="line"
     id="tspan95262-2"
     x="434.37936"
     y="297.90424"
     style="text-align:center;text-anchor:middle;fill:#ff0000">Oscillation direction</tspan><tspan
     sodipodi:role="line"
     x="434.37936"
     y="321.23761"
     id="tspan100546-9"
     style="text-align:center;text-anchor:middle;fill:#ff0000">of the polarized light</tspan><tspan
     sodipodi:role="line"
     x="434.37936"
     y="344.57098"
     style="text-align:center;text-anchor:middle;fill:#ff0000"
     id="tspan122329">after the polarization filter</tspan></text><text
   xml:space="preserve"
   style="font-size:32px;line-height:1.25;font-family:sans-serif;word-spacing:0px;fill:#ffffff"
   x="672.15601"
   y="385.49188"
   id="text22233-35-9"><tspan
     sodipodi:role="line"
     x="672.15601"
     y="385.49188"
     id="tspan40812-2"
     style="text-align:center;text-anchor:middle;fill:#ffffff">Polarization filter</tspan><tspan
     sodipodi:role="line"
     x="672.15601"
     y="425.49188"
     style="text-align:center;text-anchor:middle;fill:#ffffff"
     id="tspan45221">with vertical</tspan><tspan
     sodipodi:role="line"
     x="672.15601"
     y="465.49191"
     style="text-align:center;text-anchor:middle;fill:#ffffff"
     id="tspan45223">polarization axis</tspan></text><text
   xml:space="preserve"
   style="font-size:32px;line-height:1.25;font-family:sans-serif;word-spacing:0px;fill:#ffffff"
   x="331.56909"
   y="181.06569"
   id="text22233-3"><tspan
     sodipodi:role="line"
     id="tspan22231-6"
     x="331.56909"
     y="181.06569">Intensity:</tspan></text></svg>
