<?xml version="1.0" encoding="UTF-8" standalone="no"?>
<!-- Generator: Adobe Illustrator 15.1.0, SVG Export Plug-In . SVG Version: 6.00 Build 0)  -->

<svg
   version="1.1"
   id="Ebene_1"
   x="0px"
   y="0px"
   width="1160"
   height="460"
   viewBox="0 0 1160 460"
   enable-background="new 0 0 1400 518"
   xml:space="preserve"
   sodipodi:docname="malus-law.svg"
   inkscape:version="1.1.2 (0a00cf5339, 2022-02-04)"
   xmlns:inkscape="http://www.inkscape.org/namespaces/inkscape"
   xmlns:sodipodi="http://sodipodi.sourceforge.net/DTD/sodipodi-0.dtd"
   xmlns:xlink="http://www.w3.org/1999/xlink"
   xmlns="http://www.w3.org/2000/svg"
   xmlns:svg="http://www.w3.org/2000/svg"
   xmlns:rdf="http://www.w3.org/1999/02/22-rdf-syntax-ns#"
   xmlns:dc="http://purl.org/dc/elements/1.1/"
   xmlns:x="adobe:ns:meta/"
   xmlns:Iptc4xmpCore="http://iptc.org/std/Iptc4xmpCore/1.0/xmlns/"><defs
   id="defs719" /><sodipodi:namedview
   id="namedview717"
   pagecolor="#ffffff"
   bordercolor="#666666"
   borderopacity="1.0"
   inkscape:pageshadow="2"
   inkscape:pageopacity="0.0"
   inkscape:pagecheckerboard="0"
   showgrid="false"
   fit-margin-top="0"
   fit-margin-left="0"
   fit-margin-right="0"
   fit-margin-bottom="0"
   inkscape:zoom="1.2528541"
   inkscape:cx="457.75482"
   inkscape:cy="222.69153"
   inkscape:window-width="2520"
   inkscape:window-height="1412"
   inkscape:window-x="40"
   inkscape:window-y="212"
   inkscape:window-maximized="1"
   inkscape:current-layer="Ebene_1"
   inkscape:snap-bbox="true"
   inkscape:bbox-paths="true"
   inkscape:bbox-nodes="true"
   inkscape:snap-bbox-edge-midpoints="true"
   inkscape:snap-bbox-midpoints="true" />
<metadata
   id="metadata2">
<x:xmpmeta
   x:xmptk="Adobe XMP Core 5.0-c060 61.134777, 2010/02/12-17:32:00        ">
   <rdf:RDF>
      <rdf:Description
   rdf:about="">
         <dc:format>image/svg+xml</dc:format>
         <dc:title>
            <rdf:Alt>
               <rdf:li
   xml:lang="x-default">Gesetz von Malus</rdf:li>
            </rdf:Alt>
         </dc:title>
         <dc:creator>
            <rdf:Seq>
               <rdf:li>Stefan Richtberg (stefan@richtberg.org)</rdf:li>
            </rdf:Seq>
         </dc:creator>
         <dc:rights>
            <rdf:Alt>
               <rdf:li
   xml:lang="x-default">© Stefan Richtberg für LEIFIphysik</rdf:li>
            </rdf:Alt>
         </dc:rights>
                  <dc:description>
            <rdf:Alt>
               <rdf:li
   xml:lang="x-default">Darstellung des Gesetzes von Malus über die Intensitäten beim Durchgang durch einen Polarisationsfilter</rdf:li>
            </rdf:Alt>
         </dc:description>
      </rdf:Description>
      <rdf:Description
   rdf:about="">
         <Iptc4xmpCore:CreatorContactInfo
   rdf:parseType="Resource">
            <Iptc4xmpCore:CiAdrExtadr>Trautmannstr. 7</Iptc4xmpCore:CiAdrExtadr>
            <Iptc4xmpCore:CiAdrCity>München</Iptc4xmpCore:CiAdrCity>
            <Iptc4xmpCore:CiAdrPcode>81373</Iptc4xmpCore:CiAdrPcode>
            <Iptc4xmpCore:CiAdrCtry>Germany</Iptc4xmpCore:CiAdrCtry>
            <Iptc4xmpCore:CiEmailWork>stefan@richtberg.org</Iptc4xmpCore:CiEmailWork>
            <Iptc4xmpCore:CiUrlWork>www.richtberg.org</Iptc4xmpCore:CiUrlWork>
         </Iptc4xmpCore:CreatorContactInfo>
      </rdf:Description>
   </rdf:RDF>
</x:xmpmeta>
	</metadata>
















<g
   id="g58"
   transform="translate(-65.224,-33.574756)">
	<g
   id="g56">
		<g
   enable-background="new    "
   id="g54">
			<defs
   id="defs5">
				<polygon
   id="SVGID_1_"
   enable-background="new    "
   points="931.01,355.953 832.773,281.933 832.661,12.643 930.897,86.664 " />
			</defs>
			<clipPath
   id="SVGID_2_">
				<use
   xlink:href="#SVGID_1_"
   overflow="visible"
   id="use7"
   x="0"
   y="0"
   width="100%"
   height="100%" />
			</clipPath>
			<g
   clip-path="url(#SVGID_2_)"
   id="g52">
				<g
   id="g50">
					<g
   id="g48">
						<g
   id="g46">
							<path
   fill="#ffffff"
   d="m 911.122,292.472 4.101,7.804 c -0.035,0.071 -0.07,0.142 -0.105,0.211 -4.777,9.504 -10.405,15.196 -16.543,16.949 l 12.547,-24.964 m -3.813,-19.577 2.816,9.831 -4.185,-0.118 4.134,7.869 -13.785,27.425 c -3.378,0.422 -6.894,-0.31 -10.492,-2.212 l 21.512,-42.795 m -4.957,-17.299 4.214,14.706 -22.355,44.476 c -0.774,-0.48 -1.551,-1.015 -2.331,-1.603 -1.951,-1.47 -3.884,-3.25 -5.792,-5.324 l 26.264,-52.255 m 23.482,7.608 c -2.197,14.27 -5.558,26.416 -9.962,35.732 l -1.72,-12.494 11.682,-23.238 m -28.438,-24.908 4.212,14.704 -26.83,53.376 c -2.331,-2.718 -4.622,-5.878 -6.854,-9.449 l 29.472,-58.631 m -4.958,-17.302 4.213,14.704 -29.851,59.387 c -2.036,-3.415 -4.022,-7.176 -5.944,-11.259 l 31.582,-62.832 m -4.956,-17.299 4.212,14.704 -31.819,63.306 c -1.796,-3.962 -3.536,-8.213 -5.206,-12.727 l 32.813,-65.283 m 41.214,26.65 c -0.291,9.641 -0.986,18.749 -2.066,27.196 l -12.918,25.699 -1.738,-12.626 -1.105,10.635 -2.817,-9.832 20.644,-41.072 m -46.42,-44.819 4.462,15.573 -32.931,65.513 c -1.679,-4.696 -3.284,-9.662 -4.808,-14.886 l 33.277,-66.2 m -4.956,-17.299 4.215,14.712 -33.276,66.201 c -1.414,-5.015 -2.716,-10.134 -3.907,-15.33 l 32.968,-65.583 m 51.174,35.356 c 0.235,5.404 0.355,10.792 0.357,16.142 10e-4,2.139 -0.017,4.254 -0.054,6.347 l -21.49,42.752 -4.214,-14.706 25.401,-50.535 m -56.131,-52.655 4.214,14.707 -32.856,65.368 c -1.206,-5.475 -2.29,-11.028 -3.252,-16.623 l 31.894,-63.452 m 54.38,28.983 c 0.692,6.633 1.218,13.305 1.571,19.958 l -25.964,51.654 -4.213,-14.703 28.606,-56.909 m -59.337,-46.286 4.214,14.707 -31.663,62.995 c -0.98,-5.999 -1.82,-12.04 -2.521,-18.078 l 29.97,-59.624 m -4.955,-17.296 4.213,14.707 -29.6,58.882 c -0.713,-6.644 -1.257,-13.273 -1.631,-19.84 l 27.018,-53.749 m 61.446,42.079 c 0.964,5.99 1.793,12.052 2.481,18.148 l -28.986,57.665 -4.212,-14.703 30.717,-61.11 m -66.403,-59.379 4.213,14.704 -26.466,52.656 c -0.358,-7.568 -0.49,-15.035 -0.395,-22.309 l 22.648,-45.051 m 62.678,39.629 c 1.189,5.469 2.265,11.042 3.219,16.68 l -30.954,61.586 -4.213,-14.704 31.948,-63.562 m -66.486,-52.922 3.065,10.699 -21.821,43.412 c 0.24,-9.357 0.864,-18.359 1.875,-26.824 l 14.184,-28.218 1.594,11.565 1.103,-10.634 m 61.743,33.836 c 1.489,5.291 2.862,10.72 4.116,16.262 l -32.065,63.79 -4.462,-15.572 32.411,-64.48 m -66.777,-51.716 1.896,13.754 -13.021,25.904 c 2.258,-15.73 5.926,-29.319 11.005,-39.421 0.04,-0.079 0.08,-0.157 0.12,-0.237 m 61.515,35.028 c 1.576,4.465 3.085,9.168 4.521,14.101 l -32.411,64.479 -4.215,-14.711 32.105,-63.869 m -6.021,-15.186 c 1.784,3.994 3.509,8.267 5.167,12.806 l -31.995,63.656 -4.214,-14.706 31.042,-61.756 M 865.979,50.911 853.781,75.179 849.29,66.632 c 4.849,-9.074 10.523,-14.357 16.689,-15.721 m 31.294,23.297 c 2.021,3.45 3.991,7.241 5.898,11.35 l -30.812,61.301 -4.214,-14.707 29.128,-57.944 m -7.906,-11.426 c 2.313,2.767 4.583,5.966 6.796,9.573 l -28.759,57.208 -4.213,-14.706 26.176,-52.075 m -10.894,-9.561 -20.981,41.741 -3.065,-10.699 4.187,0.11 -3.785,-7.204 13.358,-26.577 c 3.318,-0.23 6.763,0.639 10.286,2.629 m 3.298,2.175 c 2.125,1.601 4.229,3.57 6.3,5.886 l -25.623,50.979 -4.213,-14.703 21.808,-43.379 c 0.573,0.376 1.149,0.782 1.728,1.217"
   id="path10" />
							<path
   fill="#0000ff"
   d="m 880.042,54.179 0.449,-0.895 -0.744,-2.598 -1.274,2.535 c -3.522,-1.99 -6.968,-2.859 -10.287,-2.629 l 0.423,-0.84 -0.741,-2.596 -1.888,3.755 c -6.167,1.364 -11.841,6.647 -16.689,15.721 l -1.093,-2.08 0.455,3.305 c -0.04,0.08 -0.08,0.157 -0.12,0.237 -5.079,10.102 -8.747,23.691 -11.005,39.421 l -2.301,4.577 0.741,2.596 0.837,-1.665 c -1.011,8.464 -1.635,17.466 -1.875,26.824 l -1.423,2.83 0.741,2.596 0.599,-1.192 c -0.096,7.274 0.036,14.741 0.395,22.309 l -1.229,2.446 0.745,2.589 0.677,-1.347 c 0.374,6.566 0.918,13.196 1.631,19.84 l -1.066,2.118 0.744,2.589 0.692,-1.377 c 0.7,6.039 1.54,12.08 2.521,18.078 l -0.979,1.946 0.745,2.59 0.745,-1.483 c 0.962,5.595 2.046,11.148 3.252,16.623 l -1.02,2.029 0.741,2.587 0.909,-1.809 c 1.191,5.196 2.493,10.315 3.907,15.33 l -0.848,1.687 0.741,2.586 0.848,-1.686 c 1.523,5.224 3.129,10.189 4.808,14.886 l -0.945,1.882 0.744,2.599 1.063,-2.114 c 1.67,4.514 3.41,8.765 5.206,12.727 l -0.82,1.634 0.744,2.589 1.057,-2.102 c 1.922,4.083 3.908,7.844 5.944,11.259 l -0.811,1.611 0.745,2.599 1.189,-2.368 c 2.232,3.571 4.523,6.731 6.854,9.449 l -0.865,1.721 0.745,2.599 1.429,-2.845 c 1.908,2.074 3.841,3.854 5.792,5.324 0.78,0.588 1.557,1.122 2.331,1.603 l -0.888,1.765 0.741,2.596 1.733,-3.448 c 3.599,1.902 7.114,2.634 10.492,2.212 l -1.335,2.656 0.744,2.599 2.876,-5.721 c 6.138,-1.753 11.766,-7.445 16.543,-16.949 0.035,-0.069 0.07,-0.14 0.105,-0.211 l 1.131,2.152 -0.481,-3.491 c 4.404,-9.316 7.765,-21.463 9.962,-35.732 l 2.505,-4.983 -0.744,-2.599 -0.965,1.919 c 1.08,-8.447 1.775,-17.555 2.066,-27.196 l 1.607,-3.198 -0.741,-2.596 -0.765,1.521 c 0.037,-2.093 0.055,-4.208 0.054,-6.347 -0.002,-5.35 -0.122,-10.738 -0.357,-16.142 l 1.305,-2.595 -0.741,-2.596 -0.743,1.477 c -0.354,-6.653 -0.879,-13.325 -1.571,-19.958 l 1.067,-2.123 -0.744,-2.599 -0.688,1.367 c -0.688,-6.096 -1.518,-12.158 -2.481,-18.148 l 0.934,-1.857 -0.744,-2.599 -0.696,1.385 c -0.954,-5.638 -2.029,-11.21 -3.219,-16.68 l 0.692,-1.377 -0.744,-2.59 -0.575,1.144 c -1.254,-5.542 -2.627,-10.971 -4.116,-16.262 l 0.725,-1.441 -0.741,-2.587 -0.725,1.44 c -1.436,-4.932 -2.944,-9.635 -4.521,-14.101 l 0.536,-1.066 -0.744,-2.598 -0.646,1.285 c -1.658,-4.539 -3.383,-8.812 -5.167,-12.806 l 0.61,-1.213 -0.745,-2.599 -0.84,1.671 c -1.907,-4.109 -3.877,-7.9 -5.898,-11.35 l 0.547,-1.089 -0.74,-2.587 -0.917,1.824 c -2.213,-3.607 -4.482,-6.807 -6.796,-9.573 l 0.53,-1.055 -0.745,-2.599 -1.082,2.154 c -2.071,-2.316 -4.175,-4.285 -6.3,-5.886 -0.576,-0.438 -1.152,-0.844 -1.726,-1.22 m 1.727,-4.533 c 13.124,9.889 25.465,33.182 34.755,65.605 9.29,32.423 14.415,70.091 14.43,106.058 0.016,35.958 -5.081,65.924 -14.35,84.364 -9.27,18.438 -21.599,23.15 -34.723,13.262 -13.123,-9.889 -25.468,-33.192 -34.758,-65.615 -19.177,-66.929 -19.212,-152.351 -0.08,-190.422 9.27,-18.44 21.603,-23.141 34.726,-13.252"
   id="path12" />
							<path
   fill="#0000ff"
   d="m 876.577,165.634 0.743,2.593 -32.969,65.583 -0.909,1.809 -0.741,-2.587 1.02,-2.029 32.856,-65.369 m 33.382,-66.415 0.744,2.598 -0.536,1.066 -32.105,63.869 -0.743,-2.592 31.995,-63.656 0.645,-1.285"
   id="path14" />
							<path
   fill="#0000ff"
   d="m 881.535,182.939 0.741,2.587 -33.276,66.201 -0.848,1.686 -0.741,-2.586 0.848,-1.687 33.276,-66.201 m 33.877,-67.395 0.741,2.587 -0.725,1.441 -32.411,64.479 -0.741,-2.588 32.411,-64.479 0.725,-1.44"
   id="path16" />
							<path
   fill="#0000ff"
   d="m 871.62,148.332 0.743,2.596 -31.895,63.452 -0.745,1.483 -0.745,-2.59 0.979,-1.946 31.663,-62.995 m 32.392,-64.445 0.745,2.599 -0.61,1.213 -31.042,61.756 -0.744,-2.595 30.812,-61.301 0.839,-1.672"
   id="path18" />
							<path
   fill="#0000ff"
   d="m 866.664,131.036 0.742,2.59 -29.97,59.623 -0.692,1.377 -0.744,-2.59 1.064,-2.118 29.6,-58.882 m 30.416,-60.505 0.74,2.587 -0.547,1.089 -29.127,57.945 -0.742,-2.59 28.759,-57.208 0.917,-1.823"
   id="path20" />
							<path
   fill="#0000ff"
   d="m 861.707,113.733 0.744,2.595 -27.018,53.75 -0.677,1.347 -0.745,-2.589 1.229,-2.446 26.467,-52.657 m 27.445,-54.605 0.745,2.599 -0.53,1.055 -26.176,52.075 -0.744,-2.596 25.623,-50.979 1.082,-2.154"
   id="path22" />
							<path
   fill="#0000ff"
   d="m 856.751,96.435 0.743,2.595 -22.647,45.051 -0.599,1.192 -0.741,-2.596 1.423,-2.83 21.821,-43.412 m 22.996,-45.749 0.744,2.598 -0.449,0.895 -21.808,43.379 -0.743,-2.596 20.981,-41.741 1.275,-2.535"
   id="path24" />
							<path
   fill="#0000ff"
   d="m 850.548,81.611 0.44,3.194 -14.184,28.218 -0.837,1.665 -0.741,-2.596 2.301,-4.577 13.021,-25.904 m 17.319,-34.455 0.741,2.596 -0.423,0.84 -13.358,26.577 -1.046,-1.99 12.198,-24.268 1.888,-3.755"
   id="path26" />
							<path
   fill="#0000ff"
   d="m 886.738,201.099 0.744,2.596 -32.813,65.283 -1.063,2.114 -0.744,-2.599 0.945,-1.882 32.931,-65.512 m 33.382,-66.409 0.744,2.59 -0.692,1.377 -31.948,63.562 -0.744,-2.596 32.065,-63.79 0.575,-1.143"
   id="path28" />
							<path
   fill="#0000ff"
   d="m 891.694,218.399 0.744,2.595 -31.583,62.832 -1.057,2.102 -0.744,-2.589 0.82,-1.634 31.82,-63.306 m 32.393,-64.446 0.744,2.599 -0.934,1.857 -30.717,61.11 -0.744,-2.595 30.954,-61.586 0.697,-1.385"
   id="path30" />
							<path
   fill="#0000ff"
   d="m 896.651,235.698 0.744,2.598 -29.472,58.63 -1.189,2.368 -0.745,-2.599 0.811,-1.611 29.851,-59.386 m 30.415,-60.509 0.744,2.599 -1.067,2.123 -28.605,56.909 -0.745,-2.599 28.986,-57.665 0.687,-1.367"
   id="path32" />
							<path
   fill="#0000ff"
   d="m 901.608,253 0.743,2.596 -26.265,52.255 -1.429,2.845 -0.745,-2.599 0.865,-1.721 L 901.608,253 m 27.45,-54.607 0.741,2.596 -1.305,2.595 -25.4,50.535 -0.743,-2.595 25.964,-51.654 0.743,-1.477"
   id="path34" />
							<path
   fill="#0000ff"
   d="m 906.565,270.302 0.743,2.593 -21.512,42.795 -1.733,3.448 -0.741,-2.596 0.888,-1.765 22.355,-44.475 m 22.998,-45.751 0.741,2.596 -1.607,3.198 -20.646,41.072 -0.743,-2.593 21.49,-42.752 0.765,-1.521"
   id="path36" />
							<path
   fill="#0000ff"
   d="m 910.074,290.477 1.048,1.995 -12.548,24.964 -2.876,5.721 -0.744,-2.599 1.335,-2.656 13.785,-27.425 m 17.521,-34.855 0.744,2.599 -2.505,4.983 -11.682,23.238 -0.44,-3.202 12.918,-25.699 0.965,-1.919"
   id="path38" />
							<polyline
   fill="#ff0000"
   points="854.426,84.264 857.491,94.962 858.234,97.558 862.447,112.261 863.191,114.856          867.404,129.563 868.146,132.152 872.36,146.859 873.104,149.454 877.318,164.16 878.062,166.752 882.276,181.464          883.018,184.052 887.479,199.624 888.224,202.22 892.437,216.923 893.181,219.519 897.393,234.222 898.138,236.82          902.351,251.523 903.094,254.118 907.308,268.824 908.051,271.417 910.868,281.249 910.713,282.742 910.125,282.726          907.309,272.895 906.565,270.302 902.352,255.596 901.608,253 897.396,238.296 896.651,235.698 892.438,220.994          891.694,218.399 887.482,203.695 886.738,201.099 882.276,185.526 881.535,182.939 877.32,168.227 876.577,165.634          872.363,150.928 871.62,148.332 867.406,133.625 866.664,131.036 862.451,116.329 861.707,113.733 857.494,99.029          856.751,96.435 853.686,85.736 853.84,84.248 854.426,84.264        "
   id="polyline40" />
							<polyline
   fill="#ff0000"
   points="848.197,64.552 849.29,66.632 853.781,75.179 854.827,77.169 858.612,84.374          854.426,84.264 853.84,84.248 853.686,85.736 852.582,96.37 850.988,84.805 850.548,81.611 848.652,67.856 848.197,64.552                 "
   id="polyline42" />
							<polyline
   fill="#ff0000"
   points="911.974,270.614 913.712,283.24 914.152,286.442 915.872,298.937 916.354,302.428          915.223,300.275 911.122,292.472 910.074,290.477 905.94,282.607 910.125,282.726 910.713,282.742 910.868,281.249          911.974,270.614        "
   id="polyline44" />
						</g>
					</g>
				</g>
			</g>
		</g>
	</g>
</g><g
   id="g121"
   transform="translate(-65.224,-33.574756)">
	<g
   id="g119">
		<g
   enable-background="new    "
   id="g117">
			<defs
   id="defs68">
				<polygon
   id="SVGID_3_"
   enable-background="new    "
   points="537.938,404.086 439.676,330.046 439.564,60.756 537.825,134.796 " />
			</defs>
			<clipPath
   id="SVGID_4_">
				<use
   xlink:href="#SVGID_3_"
   overflow="visible"
   id="use70"
   x="0"
   y="0"
   width="100%"
   height="100%" />
			</clipPath>
			<g
   clip-path="url(#SVGID_4_)"
   id="g115">
				<g
   id="g113">
					<g
   id="g111">
						<g
   id="g109">
							<path
   fill="#ffffff"
   d="m 491.559,352.115 16.469,12.409 c -5.559,2.664 -11.691,2.02 -18.139,-2.437 l 1.67,-9.972 m -21.986,-16.566 17.693,13.333 1.685,12.533 c -0.049,-0.036 -0.096,-0.071 -0.146,-0.108 -6.845,-5.158 -13.357,-14.095 -19.232,-25.758 m 20.358,-3.842 29.19,21.995 c -2.725,4.266 -5.712,7.497 -8.914,9.59 l -18.222,-13.729 1.69,-10.096 -3.74,3.139 -0.004,-10.899 m -31.469,-23.712 30.416,22.919 0.005,10.898 -3.746,-8.779 1.7,12.649 -19.446,-14.652 c -3.206,-6.923 -6.199,-14.659 -8.929,-23.035 m 31.461,4.515 35.93,27.073 c -1.67,4.604 -3.521,8.666 -5.53,12.141 L 489.93,328.823 489.923,312.51 m -38.208,-28.789 37.155,27.996 0.007,16.313 -31.618,-23.824 c -2.013,-6.506 -3.869,-13.361 -5.544,-20.485 m 38.199,9.601 40.468,30.492 c -1.098,4.874 -2.347,9.381 -3.733,13.494 l -36.728,-27.674 -0.007,-16.312 m -42.745,-32.209 41.693,31.416 0.007,16.313 -37.953,-28.598 c -1.39,-6.205 -2.644,-12.598 -3.747,-19.131 m 42.737,13.021 43.469,32.753 c -0.685,5.103 -1.507,9.927 -2.456,14.457 l -41.006,-30.897 -0.007,-16.313 m -45.746,-34.47 44.694,33.677 0.007,16.313 -42.231,-31.821 c -0.954,-5.965 -1.78,-12.031 -2.47,-18.169 m 45.738,15.281 45.225,34.077 c -0.343,5.305 -0.816,10.395 -1.411,15.243 l -43.807,-33.008 -0.007,-16.312 m -47.502,-35.793 46.45,35 0.007,16.313 -45.031,-33.931 c -0.6,-5.749 -1.079,-11.557 -1.426,-17.382 m 47.495,15.639 45.886,34.576 c -0.022,5.839 -0.188,11.479 -0.487,16.897 l -45.392,-34.202 -0.007,-17.271 m -48.165,-36.292 47.112,35.499 0.007,17.271 -46.617,-35.126 c -0.305,-5.875 -0.475,-11.768 -0.502,-17.644 m 48.156,17.104 45.449,34.245 c 0.271,5.543 0.422,11.102 0.444,16.643 l -45.887,-34.575 -0.006,-16.313 m -47.727,-35.963 46.675,35.169 0.007,16.313 -47.113,-35.5 c 0.019,-5.51 0.165,-10.843 0.431,-15.982 m 47.719,16.774 43.93,33.102 c 0.581,5.739 1.04,11.529 1.369,17.339 l -45.292,-34.128 -0.007,-16.313 m -46.207,-34.817 45.156,34.024 0.006,16.313 -46.518,-35.051 c 0.324,-5.319 0.779,-10.419 1.356,-15.286 m 46.199,15.629 41.205,31.048 c 0.931,5.95 1.736,12.002 2.404,18.119 l -43.603,-32.854 -0.006,-16.313 m -43.483,-32.764 42.431,31.971 0.007,16.313 -44.828,-33.778 c 0.662,-5.114 1.463,-9.956 2.39,-14.506 m 43.475,13.576 37.023,27.897 c 1.36,6.185 2.586,12.557 3.661,19.058 l -40.678,-30.651 -0.006,-16.304 m -39.301,-29.614 38.249,28.821 0.007,16.304 -41.903,-31.575 c 1.069,-4.883 2.29,-9.412 3.647,-13.55 m 39.294,10.417 30.832,23.233 c 1.969,6.485 3.782,13.308 5.416,20.388 l -36.241,-27.308 -0.007,-16.313 m -33.111,-24.948 32.058,24.156 0.007,16.312 -37.467,-28.231 c 1.629,-4.621 3.437,-8.716 5.402,-12.237 m 35.294,7.412 18.852,14.205 c 3.099,6.892 5.991,14.554 8.628,22.809 l -29.665,-22.353 -0.005,-11.865 3.746,8.779 -1.556,-11.575 m -25.513,-19.224 20.076,15.128 -1.547,9.236 3.741,-3.138 0.005,11.865 -30.89,-23.275 c 2.632,-4.285 5.521,-7.59 8.615,-9.816 m 23.237,2.287 c 6.799,5.538 13.25,14.784 19.052,26.703 l -17.205,-12.964 -1.847,-13.739 m -1.06,-0.83 c 0.056,0.042 0.113,0.086 0.168,0.128 l -1.841,10.991 -18.43,-13.887 c 6.097,-3.344 12.913,-2.65 20.103,2.768"
   id="path73" />
							<path
   fill="#0000ff"
   d="m 489.758,104.368 -0.449,-3.341 -0.442,2.638 c -0.055,-0.042 -0.112,-0.086 -0.168,-0.128 -7.19,-5.418 -14.006,-6.112 -20.103,-2.769 l -3.263,-2.458 10e-4,2.876 1.188,0.894 c -3.095,2.226 -5.983,5.531 -8.615,9.816 l -2.018,-1.521 10e-4,2.875 0.85,0.64 c -1.964,3.521 -3.772,7.616 -5.402,12.237 l -1.743,-1.313 10e-4,2.884 0.961,0.724 c -1.356,4.138 -2.578,8.667 -3.647,13.55 l -1.507,-1.135 10e-4,2.884 0.979,0.738 c -0.927,4.55 -1.728,9.392 -2.391,14.506 l -1.383,-1.042 0.001,2.875 1.056,0.795 c -0.577,4.868 -1.032,9.968 -1.356,15.286 l -1.445,-1.089 10e-4,2.875 1.289,0.971 c -0.266,5.139 -0.413,10.472 -0.432,15.982 l -1.2,-0.904 10e-4,2.875 1.201,0.905 c 0.027,5.876 0.198,11.769 0.502,17.644 l -1.346,-1.014 0.001,2.884 1.512,1.14 c 0.348,5.825 0.826,11.632 1.426,17.381 l -1.18,-0.889 0.001,2.876 1.517,1.143 c 0.689,6.138 1.516,12.204 2.47,18.168 l -1.179,-0.889 10e-4,2.876 1.717,1.294 c 1.103,6.532 2.357,12.926 3.748,19.131 l -1.257,-0.947 10e-4,2.876 2.055,1.548 c 1.675,7.124 3.531,13.979 5.544,20.484 l -1.29,-0.972 10e-4,2.884 2.492,1.878 c 2.73,8.376 5.722,16.112 8.928,23.035 l -1.961,-1.478 10e-4,2.875 4.143,3.121 c 5.875,11.663 12.387,20.601 19.232,25.758 0.05,0.037 0.097,0.072 0.146,0.108 l 0.467,3.479 0.471,-2.806 c 6.447,4.456 12.58,5.101 18.139,2.437 l 3.618,2.727 -0.002,-2.876 -1.437,-1.083 c 3.202,-2.093 6.189,-5.324 8.914,-9.59 l 2.318,1.746 -10e-4,-2.884 -1.116,-0.841 c 2.009,-3.475 3.86,-7.537 5.53,-12.141 l 1.881,1.417 -10e-4,-2.875 -1.084,-0.816 c 1.387,-4.113 2.636,-8.62 3.733,-13.494 l 1.544,1.163 -0.002,-2.876 -1.005,-0.758 c 0.949,-4.53 1.771,-9.354 2.456,-14.457 l 1.344,1.013 -10e-4,-2.875 -1.006,-0.759 c 0.595,-4.849 1.068,-9.938 1.411,-15.243 l 0.986,0.743 -10e-4,-2.884 -0.819,-0.618 c 0.3,-5.419 0.465,-11.059 0.487,-16.897 l 1.027,0.773 -0.001,-2.875 -1.027,-0.774 c -0.022,-5.541 -0.174,-11.1 -0.444,-16.643 l 0.763,0.575 -0.002,-2.876 -0.919,-0.692 c -0.329,-5.81 -0.788,-11.6 -1.369,-17.339 l 0.883,0.665 -10e-4,-2.875 -1.21,-0.912 C 532.806,220.271 532,214.219 531.07,208.269 l 0.806,0.607 -10e-4,-2.884 -1.333,-1.004 c -1.075,-6.5 -2.301,-12.873 -3.661,-19.058 l 0.787,0.593 -10e-4,-2.884 -1.569,-1.183 c -1.634,-7.08 -3.447,-13.903 -5.416,-20.388 l 0.677,0.509 -0.001,-2.875 -1.845,-1.39 c -2.637,-8.254 -5.529,-15.917 -8.628,-22.809 l 0.663,0.5 -10e-4,-2.875 -2.738,-2.063 c -5.801,-11.913 -12.252,-21.159 -19.051,-26.697 m -1.062,-6.591 c 27.088,20.411 49.153,97.416 49.185,171.663 0.031,74.248 -21.984,118.037 -49.072,97.626 -27.092,-20.413 -49.158,-97.417 -49.188,-171.665 -0.032,-74.248 21.983,-118.037 49.075,-97.624"
   id="path75" />
							<path
   fill="#0000ff"
   d="m 489.881,212.727 45.292,34.128 0.919,0.692 0.002,2.876 -0.763,-0.575 -45.449,-34.245 -0.001,-2.876 m -49.015,-36.933 1.445,1.089 46.518,35.051 0.002,2.876 -46.675,-35.169 -1.289,-0.971 -0.001,-2.876"
   id="path77" />
							<path
   fill="#0000ff"
   d="m 489.889,231.915 45.887,34.575 1.027,0.774 10e-4,2.875 -1.027,-0.773 -45.886,-34.576 -0.002,-2.875 m -49.365,-37.197 1.2,0.904 47.113,35.5 0.001,2.875 -47.112,-35.499 -1.201,-0.905 -10e-4,-2.875"
   id="path79" />
							<path
   fill="#0000ff"
   d="m 489.873,193.539 43.603,32.854 1.21,0.912 10e-4,2.875 -0.883,-0.665 -43.93,-33.102 -0.001,-2.874 m -47.264,-35.613 1.383,1.042 44.828,33.778 0.002,2.875 -45.156,-34.024 -1.056,-0.795 -0.001,-2.876"
   id="path81" />
							<path
   fill="#0000ff"
   d="m 489.865,174.342 40.678,30.651 1.333,1.004 10e-4,2.884 -0.806,-0.607 -41.205,-31.048 -10e-4,-2.884 m -44.463,-33.502 1.507,1.135 41.903,31.575 10e-4,2.884 -42.431,-31.971 -0.979,-0.738 -0.001,-2.885"
   id="path83" />
							<path
   fill="#0000ff"
   d="m 489.857,155.154 36.241,27.308 1.569,1.183 10e-4,2.884 -0.787,-0.593 -37.023,-27.897 -10e-4,-2.885 m -40.262,-30.338 1.743,1.313 37.467,28.231 10e-4,2.884 -38.249,-28.821 -0.961,-0.724 -10e-4,-2.883"
   id="path85" />
							<path
   fill="#0000ff"
   d="m 489.849,135.966 29.665,22.353 1.845,1.39 10e-4,2.875 -0.677,-0.509 -30.832,-23.233 -0.002,-2.876 m -33.96,-25.589 2.018,1.521 30.89,23.275 10e-4,2.876 -32.058,-24.156 -0.85,-0.64 -10e-4,-2.876"
   id="path87" />
							<path
   fill="#0000ff"
   d="m 491.604,118.106 17.205,12.964 2.738,2.063 10e-4,2.875 -0.663,-0.5 -18.852,-14.205 -0.429,-3.197 m -26.271,-19.795 3.263,2.458 18.43,13.887 -0.428,2.553 -20.076,-15.128 -1.188,-0.894 -10e-4,-2.876"
   id="path89" />
							<path
   fill="#0000ff"
   d="m 489.897,252.062 45.392,34.202 0.819,0.618 0.001,2.884 -0.986,-0.743 -45.225,-34.077 -0.001,-2.884 m -49.015,-36.934 1.346,1.014 46.617,35.126 10e-4,2.884 -46.45,-35 -1.512,-1.14 -0.002,-2.884"
   id="path91" />
							<path
   fill="#0000ff"
   d="m 489.905,271.258 43.807,33.008 1.006,0.759 0.001,2.875 -1.344,-1.013 -43.469,-32.753 -0.001,-2.876 m -47.263,-35.613 1.18,0.889 45.031,33.931 0.002,2.876 -44.694,-33.677 -1.517,-1.143 -0.002,-2.876"
   id="path93" />
							<path
   fill="#0000ff"
   d="m 489.913,290.446 41.006,30.897 1.005,0.758 0.002,2.876 -1.544,-1.163 -40.468,-30.492 -10e-4,-2.876 m -44.462,-33.503 1.179,0.889 42.231,31.821 0.001,2.876 -41.693,-31.416 -1.717,-1.294 -10e-4,-2.876"
   id="path95" />
							<path
   fill="#0000ff"
   d="m 489.921,309.635 36.728,27.674 1.084,0.816 0.001,2.875 -1.881,-1.417 -35.93,-27.073 -0.002,-2.875 m -40.262,-30.338 1.257,0.947 37.953,28.598 10e-4,2.875 -37.155,-27.996 -2.055,-1.548 -0.001,-2.876"
   id="path97" />
							<path
   fill="#0000ff"
   d="m 489.93,328.822 30.393,22.901 1.116,0.841 0.001,2.884 -2.318,-1.746 -29.19,-21.995 -0.002,-2.885 m -33.961,-25.589 1.29,0.972 31.618,23.824 10e-4,2.885 -30.416,-22.919 -2.492,-1.878 -0.001,-2.884"
   id="path99" />
							<path
   fill="#0000ff"
   d="m 491.985,349.563 18.222,13.729 1.437,1.083 0.002,2.876 -3.618,-2.727 -16.469,-12.409 0.426,-2.552 m -26.555,-20.01 1.961,1.478 19.446,14.652 0.43,3.199 -17.693,-13.333 -4.143,-3.121 -10e-4,-2.875"
   id="path101" />
							<polyline
   fill="#ff0000"
   points="489.317,122.867 489.844,124.101 489.849,135.966 489.851,138.841 489.857,155.154          489.858,158.038 489.865,174.342 489.866,177.226 489.873,193.539 489.874,196.414 489.881,212.727 489.882,215.603          489.889,231.915 489.891,234.791 489.897,252.062 489.898,254.945 489.905,271.258 489.906,274.134 489.913,290.446          489.914,293.322 489.921,309.635 489.923,312.51 489.93,328.822 489.931,331.707 489.936,342.605 489.409,343.046          488.883,341.813 488.878,330.914 488.877,328.029 488.87,311.717 488.869,308.842 488.862,292.529 488.861,289.653          488.854,273.341 488.853,270.465 488.846,254.152 488.845,251.269 488.838,233.998 488.837,231.122 488.83,214.81          488.828,211.934 488.822,195.621 488.82,192.746 488.813,176.433 488.813,173.549 488.806,157.245 488.805,154.361          488.798,138.049 488.797,135.173 488.792,123.308 489.317,122.867        "
   id="polyline103" />
							<polyline
   fill="#ff0000"
   points="489.309,101.027 489.758,104.368 491.604,118.106 492.034,121.305 493.59,132.879          489.844,124.101 489.317,122.867 488.792,123.308 485.051,126.445 486.598,117.209 487.025,114.656 488.866,103.666          489.309,101.027        "
   id="polyline105" />
							<polyline
   fill="#ff0000"
   points="485.137,333.033 488.883,341.813 489.409,343.046 489.936,342.605 493.676,339.467          491.985,349.563 491.559,352.115 489.889,362.088 489.418,364.894 488.951,361.415 487.267,348.882 486.837,345.683          485.137,333.033        "
   id="polyline107" />
						</g>
					</g>
				</g>
			</g>
		</g>
	</g>
</g><g
   id="g339"
   transform="translate(-65.224,-33.574756)">
	<g
   id="g337">
		<g
   enable-background="new    "
   id="g335">
			<defs
   id="defs318">
				<polygon
   id="SVGID_5_"
   enable-background="new    "
   points="991.293,175.453 963.162,154.255 963.131,77.34 991.262,98.538 " />
			</defs>
			<clipPath
   id="SVGID_6_">
				<use
   xlink:href="#SVGID_5_"
   overflow="visible"
   id="use320"
   x="0"
   y="0"
   width="100%"
   height="100%" />
			</clipPath>
			<g
   clip-path="url(#SVGID_6_)"
   id="g333">
				<g
   id="g331">
					<g
   id="g329">
						<g
   id="g327">
							<polyline
   fill="#009600"
   points="974.485,113.392 991.291,172.059 990.055,174.52 973.248,115.852 974.485,113.392                 "
   id="polyline323" />
							<polyline
   fill="#009600"
   points="963.131,77.34 979.996,102.429 974.485,113.392 973.248,115.852 967.668,126.952          963.131,77.34        "
   id="polyline325" />
						</g>
					</g>
				</g>
			</g>
		</g>
	</g>
</g><g
   id="g428"
   transform="translate(-65.224,-33.574756)">
	<g
   id="g426">
		<g
   enable-background="new    "
   id="g424">
			<defs
   id="defs407">
				<polygon
   id="SVGID_7_"
   enable-background="new    "
   points="701.498,224.167 685.787,212.328 685.745,105.829 701.455,117.667 " />
			</defs>
			<clipPath
   id="SVGID_8_">
				<use
   xlink:href="#SVGID_7_"
   overflow="visible"
   id="use409"
   x="0"
   y="0"
   width="100%"
   height="100%" />
			</clipPath>
			<g
   clip-path="url(#SVGID_8_)"
   id="g422">
				<g
   id="g420">
					<g
   id="g418">
						<g
   id="g416">
							<polyline
   fill="#009600"
   points="692.871,148.475 694.447,149.662 694.475,218.874 692.899,217.687 692.871,148.475                 "
   id="polyline412" />
							<polyline
   fill="#009600"
   points="693.601,111.748 701.471,154.954 694.447,149.662 692.871,148.475 685.76,143.116          693.601,111.748        "
   id="polyline414" />
						</g>
					</g>
				</g>
			</g>
		</g>
	</g>
</g><g
   id="g452"
   transform="translate(-65.224,-33.574756)"
   style="fill:#ffffff">
	<g
   id="g450"
   style="fill:#ffffff">
		<g
   enable-background="new    "
   id="g448"
   style="fill:#ffffff">
			<defs
   id="defs431">
				<polygon
   id="SVGID_9_"
   enable-background="new    "
   points="90.469,314.924 90.527,283.686 1069.525,146.075 1069.467,177.314 " />
			</defs>
			<clipPath
   id="SVGID_10_">
				<use
   xlink:href="#SVGID_9_"
   overflow="visible"
   id="use433"
   x="0"
   y="0"
   width="100%"
   height="100%" />
			</clipPath>
			<g
   clip-path="url(#SVGID_10_)"
   id="g446"
   style="fill:#ffffff">
				<g
   id="g444"
   style="fill:#ffffff">
					<g
   id="g442"
   style="fill:#ffffff">
						<g
   id="g440"
   style="fill:#ffffff">
							<polyline
   points="1041.453,163.713 90.501,297.381 90.494,301.229 1041.45,167.56 1042.486,165.495 1041.453,163.713                 "
   id="polyline436"
   style="fill:#ffffff" />
							<polyline
   points="1034.113,151.053 1041.453,163.713 1042.486,165.495 1041.45,167.56 1034.055,182.292 1069.496,161.699          1034.113,151.053        "
   id="polyline438"
   style="fill:#ffffff" />
						</g>
					</g>
				</g>
			</g>
		</g>
	</g>
</g><g
   id="g648"
   transform="translate(-65.224,-33.574756)">
	<g
   id="g476">
		<g
   id="g474">
			<g
   enable-background="new    "
   id="g472">
				<defs
   id="defs455">
					<polygon
   id="SVGID_11_"
   enable-background="new    "
   points="178.248,402.169 162.537,390.33 162.495,283.83 178.205,295.669 " />
				</defs>
				<clipPath
   id="SVGID_12_">
					<use
   xlink:href="#SVGID_11_"
   overflow="visible"
   id="use457"
   x="0"
   y="0"
   width="100%"
   height="100%" />
				</clipPath>
				<g
   clip-path="url(#SVGID_12_)"
   id="g470">
					<g
   id="g468">
						<g
   id="g466">
							<g
   id="g464">
								<polyline
   fill="#009600"
   points="169.518,289.123 171.094,290.311 171.121,359.53 169.545,358.344 169.518,289.123                   "
   id="polyline460" />
								<polyline
   fill="#009600"
   points="162.522,353.051 169.545,358.344 171.121,359.53 178.232,364.89 170.389,396.247           162.522,353.051         "
   id="polyline462" />
							</g>
						</g>
					</g>
				</g>
			</g>
		</g>
	</g>
	<g
   id="g646">
		<g
   id="g500">
			<g
   id="g498">
				<g
   enable-background="new    "
   id="g496">
					<defs
   id="defs479">
						<polygon
   id="SVGID_13_"
   enable-background="new    "
   points="180.501,291.17 164.793,279.334 164.751,172.834 180.458,184.671 " />
					</defs>
					<clipPath
   id="SVGID_14_">
						<use
   xlink:href="#SVGID_13_"
   overflow="visible"
   id="use481"
   x="0"
   y="0"
   width="100%"
   height="100%" />
					</clipPath>
					<g
   clip-path="url(#SVGID_14_)"
   id="g494">
						<g
   id="g492">
							<g
   id="g490">
								<g
   id="g488">
									<polyline
   fill="#009600"
   points="171.874,215.47 173.449,216.657 173.477,285.878 171.901,284.69 171.874,215.47                     "
   id="polyline484" />
									<polyline
   fill="#009600"
   points="172.606,178.754 180.473,221.95 173.449,216.657 171.874,215.47 164.766,210.113            172.606,178.754          "
   id="polyline486" />
								</g>
							</g>
						</g>
					</g>
				</g>
			</g>
		</g>
		<g
   id="g524">
			<g
   id="g522">
				<g
   enable-background="new    "
   id="g520">
					<defs
   id="defs503">
						<polygon
   id="SVGID_15_"
   enable-background="new    "
   points="172.294,291.454 144.163,270.257 144.13,193.341 172.262,214.538 " />
					</defs>
					<clipPath
   id="SVGID_16_">
						<use
   xlink:href="#SVGID_15_"
   overflow="visible"
   id="use505"
   x="0"
   y="0"
   width="100%"
   height="100%" />
					</clipPath>
					<g
   clip-path="url(#SVGID_16_)"
   id="g518">
						<g
   id="g516">
							<g
   id="g514">
								<g
   id="g512">
									<polyline
   fill="#009600"
   points="155.483,229.395 172.293,288.061 171.056,290.521 154.248,231.853 155.483,229.395                     "
   id="polyline508" />
									<polyline
   fill="#009600"
   points="144.13,193.341 160.996,218.429 155.483,229.395 154.248,231.853 148.668,242.954            144.13,193.341          "
   id="polyline510" />
								</g>
							</g>
						</g>
					</g>
				</g>
			</g>
		</g>
		<g
   id="g548">
			<g
   id="g546">
				<g
   enable-background="new    "
   id="g544">
					<defs
   id="defs527">
						<polygon
   id="SVGID_17_"
   enable-background="new    "
   points="198.961,380.591 170.83,359.394 170.797,282.477 198.929,303.674 " />
					</defs>
					<clipPath
   id="SVGID_18_">
						<use
   xlink:href="#SVGID_17_"
   overflow="visible"
   id="use529"
   x="0"
   y="0"
   width="100%"
   height="100%" />
					</clipPath>
					<g
   clip-path="url(#SVGID_18_)"
   id="g542">
						<g
   id="g540">
							<g
   id="g538">
								<g
   id="g536">
									<polyline
   fill="#009600"
   points="172.036,283.41 188.844,342.081 187.608,344.538 170.799,285.871 172.036,283.41                     "
   id="polyline532" />
									<polyline
   fill="#009600"
   points="194.426,330.979 198.961,380.591 182.095,355.503 187.608,344.538 188.844,342.081            194.426,330.979          "
   id="polyline534" />
								</g>
							</g>
						</g>
					</g>
				</g>
			</g>
		</g>
		<g
   id="g572">
			<g
   id="g570">
				<g
   enable-background="new    "
   id="g568">
					<defs
   id="defs551">
						<polygon
   id="SVGID_19_"
   enable-background="new    "
   points="200.024,308.426 171.962,287.281 171.93,210.183 199.992,231.328 " />
					</defs>
					<clipPath
   id="SVGID_20_">
						<use
   xlink:href="#SVGID_19_"
   overflow="visible"
   id="use553"
   x="0"
   y="0"
   width="100%"
   height="100%" />
					</clipPath>
					<g
   clip-path="url(#SVGID_20_)"
   id="g566">
						<g
   id="g564">
							<g
   id="g562">
								<g
   id="g560">
									<polyline
   fill="#009600"
   points="188.732,250.521 189.97,254.844 173.2,288.214 171.961,283.887 188.732,250.521                     "
   id="polyline556" />
									<polyline
   fill="#009600"
   points="199.992,231.328 195.496,274.125 189.97,254.844 188.732,250.521 183.137,230.998            199.992,231.328          "
   id="polyline558" />
								</g>
							</g>
						</g>
					</g>
				</g>
			</g>
		</g>
		<g
   id="g596">
			<g
   id="g594">
				<g
   enable-background="new    "
   id="g592">
					<defs
   id="defs575">
						<polygon
   id="SVGID_21_"
   enable-background="new    "
   points="171.161,364.756 143.099,343.611 143.067,266.514 171.129,287.658 " />
					</defs>
					<clipPath
   id="SVGID_22_">
						<use
   xlink:href="#SVGID_21_"
   overflow="visible"
   id="use577"
   x="0"
   y="0"
   width="100%"
   height="100%" />
					</clipPath>
					<g
   clip-path="url(#SVGID_22_)"
   id="g590">
						<g
   id="g588">
							<g
   id="g586">
								<g
   id="g584">
									<polyline
   fill="#009600"
   points="169.894,286.728 171.13,291.044 154.361,324.412 153.122,320.086 169.894,286.728                     "
   id="polyline580" />
									<polyline
   fill="#009600"
   points="147.598,300.808 153.122,320.086 154.361,324.412 159.954,343.933 143.099,343.611            147.598,300.808          "
   id="polyline582" />
								</g>
							</g>
						</g>
					</g>
				</g>
			</g>
		</g>
		<g
   id="g620">
			<g
   id="g618">
				<g
   enable-background="new    "
   id="g616">
					<defs
   id="defs599">
						<polygon
   id="SVGID_23_"
   enable-background="new    "
   points="169.939,308.3 131.076,279.015 131.059,235.959 169.922,265.244 " />
					</defs>
					<clipPath
   id="SVGID_24_">
						<use
   xlink:href="#SVGID_23_"
   overflow="visible"
   id="use601"
   x="0"
   y="0"
   width="100%"
   height="100%" />
					</clipPath>
					<g
   clip-path="url(#SVGID_24_)"
   id="g614">
						<g
   id="g612">
							<g
   id="g610">
								<g
   id="g608">
									<polyline
   fill="#009600"
   points="144.672,265.459 169.93,284.492 169.931,288.81 144.674,269.776 144.672,265.459                     "
   id="polyline604" />
									<polyline
   fill="#009600"
   points="144.665,246.211 144.672,265.459 144.674,269.776 144.682,289.267 131.067,257.478            144.665,246.211          "
   id="polyline606" />
								</g>
							</g>
						</g>
					</g>
				</g>
			</g>
		</g>
		<g
   id="g644">
			<g
   id="g642">
				<g
   enable-background="new    "
   id="g640">
					<defs
   id="defs623">
						<polygon
   id="SVGID_25_"
   enable-background="new    "
   points="210.937,338.043 172.077,308.76 172.06,265.704 210.92,294.987 " />
					</defs>
					<clipPath
   id="SVGID_26_">
						<use
   xlink:href="#SVGID_25_"
   overflow="visible"
   id="use625"
   x="0"
   y="0"
   width="100%"
   height="100%" />
					</clipPath>
					<g
   clip-path="url(#SVGID_26_)"
   id="g638">
						<g
   id="g636">
							<g
   id="g634">
								<g
   id="g632">
									<polyline
   fill="#009600"
   points="172.068,285.194 197.322,304.226 197.324,308.543 172.069,289.512 172.068,285.194                     "
   id="polyline628" />
									<polyline
   fill="#009600"
   points="197.314,284.734 210.929,316.516 197.332,327.791 197.324,308.543 197.322,304.226            197.314,284.734          "
   id="polyline630" />
								</g>
							</g>
						</g>
					</g>
				</g>
			</g>
		</g>
	</g>
</g><text
   xml:space="preserve"
   style="font-style:italic;font-variant:normal;font-weight:normal;font-stretch:normal;font-size:32px;line-height:1.25;font-family:serif;-inkscape-font-specification:'serif Italic';stroke-width:1;fill:#ffffff"
   x="238.28615"
   y="176.79138"
   id="text38072-3"><tspan
     id="tspan38070-6"
     style="font-style:italic;font-variant:normal;font-weight:normal;font-stretch:normal;font-size:32px;font-family:serif;-inkscape-font-specification:'serif Italic';stroke-width:1;fill:#ffffff"
     x="238.28615"
     y="176.79138">I<tspan
   style="font-size:20.8px;baseline-shift:sub;stroke-width:1;fill:#ffffff"
   id="tspan98163">0</tspan></tspan></text><text
   xml:space="preserve"
   style="font-style:italic;font-variant:normal;font-weight:normal;font-stretch:normal;font-size:32px;line-height:1.25;font-family:serif;-inkscape-font-specification:'serif Italic';stroke-width:1;fill:#ffffff"
   x="532.07275"
   y="66.046005"
   id="text38072"><tspan
     id="tspan38070"
     style="font-style:italic;font-variant:normal;font-weight:normal;font-stretch:normal;font-size:32px;font-family:serif;-inkscape-font-specification:'serif Italic';stroke-width:1;fill:#ffffff"
     x="532.07275"
     y="66.046005">I<tspan
   style="font-size:20.8px;baseline-shift:sub;stroke-width:1;fill:#ffffff"
   id="tspan88181">1</tspan> = I<tspan
   style="font-size:20.8px;baseline-shift:sub;stroke-width:1;fill:#ffffff"
   id="tspan92545">0</tspan> · 0,5</tspan></text><text
   xml:space="preserve"
   style="font-style:italic;font-variant:normal;font-weight:normal;font-stretch:normal;font-size:32px;line-height:1.25;font-family:serif;-inkscape-font-specification:'serif Italic';stroke-width:1;fill:#ffffff"
   x="915.84332"
   y="233.16107"
   id="text38072-5"><tspan
     id="tspan38070-3"
     style="font-style:italic;font-variant:normal;font-weight:normal;font-stretch:normal;font-size:32px;font-family:serif;-inkscape-font-specification:'serif Italic';stroke-width:1;fill:#ffffff"
     x="915.84332"
     y="233.16107">I<tspan
   style="font-size:65%;baseline-shift:sub;fill:#ffffff"
   id="tspan107616">2</tspan> = I<tspan
   style="font-size:65%;baseline-shift:sub;fill:#ffffff"
   id="tspan11386">1</tspan> · cos<tspan
   style="font-size:65%;baseline-shift:super;fill:#ffffff"
   id="tspan16182">2</tspan>(α) </tspan></text><text
   xml:space="preserve"
   style="font-size:32px;line-height:1.25;font-family:sans-serif;word-spacing:0px;fill:#ffffff"
   x="547.43915"
   y="29.639751"
   id="text22233"><tspan
     sodipodi:role="line"
     id="tspan22231"
     x="547.43915"
     y="29.639751">Intensity:</tspan></text><text
   xml:space="preserve"
   style="font-size:32px;line-height:1.25;font-family:sans-serif;word-spacing:0px;fill:#ffffff"
   x="176.87341"
   y="146.80701"
   id="text22233-3"><tspan
     sodipodi:role="line"
     id="tspan22231-6"
     x="176.87341"
     y="146.80701">Intensity:</tspan></text><text
   xml:space="preserve"
   style="font-size:32px;line-height:1.25;font-family:sans-serif;word-spacing:0px;fill:#ffffff"
   x="963.45154"
   y="194.26732"
   id="text22233-7"><tspan
     sodipodi:role="line"
     id="tspan22231-5"
     x="963.45154"
     y="194.26732">Intensity:</tspan></text><text
   xml:space="preserve"
   style="font-size:32px;line-height:1.25;font-family:sans-serif;word-spacing:0px;fill:#ffffff"
   x="97.360497"
   y="396.98474"
   id="text22233-35"><tspan
     sodipodi:role="line"
     id="tspan22231-62"
     x="97.360497"
     y="396.98474"
     style="text-align:center;text-anchor:middle;fill:#ffffff">Unpolarized</tspan><tspan
     sodipodi:role="line"
     x="97.360497"
     y="436.98474"
     id="tspan40812"
     style="text-align:center;text-anchor:middle;fill:#ffffff">light</tspan></text><text
   xml:space="preserve"
   style="font-size:32px;line-height:1.25;font-family:sans-serif;word-spacing:0px;fill:#ffffff"
   x="416.40607"
   y="370.81549"
   id="text22233-35-9"><tspan
     sodipodi:role="line"
     x="416.40607"
     y="370.81549"
     id="tspan40812-2"
     style="text-align:center;text-anchor:middle;fill:#ffffff">Polarization filter</tspan><tspan
     sodipodi:role="line"
     x="416.40607"
     y="410.81549"
     style="text-align:center;text-anchor:middle;fill:#ffffff"
     id="tspan45221">with vertical</tspan><tspan
     sodipodi:role="line"
     x="416.40607"
     y="450.81549"
     style="text-align:center;text-anchor:middle;fill:#ffffff"
     id="tspan45223">polarization axis</tspan></text><text
   xml:space="preserve"
   style="font-size:32px;line-height:1.25;font-family:sans-serif;word-spacing:0px;fill:#ffffff"
   x="828.85419"
   y="333.98331"
   id="text22233-35-9-7"><tspan
     sodipodi:role="line"
     x="828.85419"
     y="333.98331"
     id="tspan40812-2-0"
     style="text-align:center;text-anchor:middle;fill:#ffffff">Polarization filter</tspan><tspan
     sodipodi:role="line"
     x="828.85419"
     y="373.98331"
     style="text-align:center;text-anchor:middle;fill:#ffffff"
     id="tspan45221-9">with α rotated</tspan><tspan
     sodipodi:role="line"
     x="828.85419"
     y="413.98331"
     style="text-align:center;text-anchor:middle;fill:#ffffff"
     id="tspan45223-3">polarization axis</tspan></text></svg>
