<?xml version="1.0" encoding="UTF-8" standalone="no"?>
<!-- Created with Inkscape (http://www.inkscape.org/) -->

<svg
   width="1164"
   height="464"
   viewBox="0 0 1164 464"
   version="1.1"
   id="svg8"
   sodipodi:docname="orthogonal-polarization-filters.svg"
   inkscape:version="1.1.2 (0a00cf5339, 2022-02-04)"
   xmlns:inkscape="http://www.inkscape.org/namespaces/inkscape"
   xmlns:sodipodi="http://sodipodi.sourceforge.net/DTD/sodipodi-0.dtd"
   xmlns:xlink="http://www.w3.org/1999/xlink"
   xmlns="http://www.w3.org/2000/svg"
   xmlns:svg="http://www.w3.org/2000/svg"
   xmlns:rdf="http://www.w3.org/1999/02/22-rdf-syntax-ns#"
   xmlns:cc="http://creativecommons.org/ns#"
   xmlns:dc="http://purl.org/dc/elements/1.1/">
  <sodipodi:namedview
     id="namedview424"
     pagecolor="#ffffff"
     bordercolor="#666666"
     borderopacity="1.0"
     inkscape:pageshadow="2"
     inkscape:pageopacity="0.0"
     inkscape:pagecheckerboard="0"
     showgrid="false"
     inkscape:snap-global="true"
     inkscape:zoom="0.79303426"
     inkscape:cx="602.11774"
     inkscape:cy="487.99909"
     inkscape:window-width="2520"
     inkscape:window-height="1412"
     inkscape:window-x="40"
     inkscape:window-y="212"
     inkscape:window-maximized="1"
     inkscape:current-layer="svg8"
     inkscape:snap-bbox="true"
     inkscape:bbox-paths="true"
     inkscape:bbox-nodes="true"
     inkscape:snap-bbox-edge-midpoints="true"
     inkscape:snap-bbox-midpoints="false"
     showguides="false" />
  <defs
     id="defs2">
    <polygon
       id="SVGID_1_"
       enable-background="new    "
       points="436.676,339.047 436.564,69.757 534.822,143.794 534.934,413.084 " />
    <polygon
       id="SVGID_3_"
       enable-background="new    "
       points="859.676,280.052 859.564,10.754 957.822,84.791 957.934,354.089 " />
    <polygon
       id="SVGID_5_"
       enable-background="new    "
       points="682.647,212.987 682.604,106.485 696.568,117.008 696.612,223.51 " />
    <polygon
       id="SVGID_7_"
       enable-background="new    "
       points="99.712,282.629 1227.344,124.127 1227.285,155.375 99.654,313.877 " />
    <polygon
       id="SVGID_11_"
       enable-background="new    "
       points="162.537,390.33 162.495,283.83 178.205,295.669 178.248,402.169 " />
    <polygon
       id="SVGID_13_"
       enable-background="new    "
       points="164.793,279.334 164.751,172.834 180.458,184.671 180.501,291.17 " />
    <polygon
       id="SVGID_15_"
       enable-background="new    "
       points="144.163,270.257 144.13,193.341 172.262,214.538 172.294,291.454 " />
    <polygon
       id="SVGID_17_"
       enable-background="new    "
       points="170.83,359.394 170.797,282.477 198.929,303.674 198.961,380.591 " />
    <polygon
       id="SVGID_19_"
       enable-background="new    "
       points="171.962,287.281 171.93,210.183 199.992,231.328 200.024,308.426 " />
    <polygon
       id="SVGID_21_"
       enable-background="new    "
       points="143.099,343.611 143.067,266.514 171.129,287.658 171.161,364.756 " />
    <polygon
       id="SVGID_23_"
       enable-background="new    "
       points="131.076,279.015 131.059,235.959 169.922,265.244 169.939,308.3 " />
    <polygon
       id="SVGID_25_"
       enable-background="new    "
       points="172.077,308.76 172.06,265.704 210.92,294.987 210.937,338.043 " />
    <polygon
       id="SVGID_24_"
       enable-background="new    "
       points="1033.791,158.33 1033.747,51.828 1049.457,63.666 1049.502,170.167 " />
    <polygon
       id="SVGID_27_"
       enable-background="new    "
       points="487.855,191.903 864.324,138.986 864.146,234.095 487.676,287.013 " />
    <polygon
       id="SVGID_29_"
       enable-background="new    "
       points="797.851,148.406 1174.32,95.489 1174.143,190.598 797.672,243.516 " />
    <clipPath
       id="SVGID_2_-3">
      <use
         xlink:href="#SVGID_1_-6"
         overflow="visible"
         id="use7"
         x="0"
         y="0"
         width="100%"
         height="100%" />
    </clipPath>
    <polygon
       id="SVGID_1_-6"
       enable-background="new    "
       points="841.699,14.047 939.957,88.085 940.068,357.374 841.811,283.337 " />
    <clipPath
       id="SVGID_4_">
      <use
         xlink:href="#SVGID_3_-7"
         overflow="visible"
         id="use63"
         x="0"
         y="0"
         width="100%"
         height="100%" />
    </clipPath>
    <polygon
       id="SVGID_3_-7"
       enable-background="new    "
       points="864.324,137.987 864.146,233.096 487.676,286.014 487.854,190.904 " />
  </defs>
  <metadata
     id="metadata5">
    <rdf:RDF>
      <cc:Work
         rdf:about="">
        <dc:format>image/svg+xml</dc:format>
        <dc:type
           rdf:resource="http://purl.org/dc/dcmitype/StillImage" />
      </cc:Work>
    </rdf:RDF>
  </metadata>
  <g
     id="g58"
     transform="translate(-52.558,-38.801749)">
    <g
       id="g56">
      <g
         enable-background="new    "
         id="g54">
        <defs
           id="defs5">
          <polygon
             id="polygon2084"
             enable-background="new    "
             points="841.811,283.337 841.699,14.047 939.957,88.085 940.068,357.374 " />
        </defs>
        <clipPath
           id="clipPath1534">
          <use
             xlink:href="#SVGID_1_-6"
             overflow="visible"
             id="use1532"
             x="0"
             y="0"
             width="100%"
             height="100%" />
        </clipPath>
        <g
           clip-path="url(#SVGID_2_-3)"
           id="g52">
          <g
             id="g50">
            <g
               id="g48">
              <g
                 id="g46">
                <path
                   fill="#ffffff"
                   d="m 926.38,215.608 4.335,3.266 -2.163,8.601 3.782,-1.39 0.022,51.727 c -1.661,7.222 -3.658,13.626 -5.942,19.11 l -0.034,-81.314 m -7.001,-5.275 5.952,4.485 0.035,84.512 c -1.824,4.009 -3.813,7.466 -5.946,10.325 l -0.041,-99.322 m -7.005,-5.278 5.952,4.485 0.042,101.463 c -1.882,2.303 -3.871,4.155 -5.947,5.526 l -0.047,-111.474 m -7.001,-5.275 5.952,4.485 0.047,112.912 c -1.915,1.101 -3.9,1.802 -5.949,2.079 l -0.05,-119.476 m -7.002,-5.276 5.952,4.485 0.051,120.374 c -1.935,0.125 -3.921,-0.12 -5.951,-0.758 l -0.052,-124.101 m -7.001,-5.275 5.952,4.485 0.052,124.529 c -1.948,-0.733 -3.935,-1.825 -5.951,-3.288 L 891.37,189.229 m -7.354,-5.541 6.303,4.748 0.052,125.724 c -2.137,-1.681 -4.241,-3.729 -6.302,-6.11 l -0.053,-124.362 m -7.001,-5.276 5.952,4.485 0.052,123.905 c -2.03,-2.478 -4.02,-5.282 -5.954,-8.378 l -0.05,-120.012 m -7.001,-5.276 5.952,4.485 0.05,119.086 c -2.052,-3.43 -4.04,-7.188 -5.955,-11.239 l -0.047,-112.332 m -7.002,-5.275 5.952,4.485 0.047,110.855 c -2.082,-4.585 -4.073,-9.518 -5.957,-14.743 l -0.042,-100.597 m -7.001,-5.276 5.949,4.482 0.041,98.405 c -2.14,-6.194 -4.134,-12.78 -5.955,-19.661 l -0.035,-83.226 m -5.009,-3.774 3.957,2.981 0.033,79.929 c -2.31,-9.217 -4.315,-18.933 -5.963,-28.959 l -0.021,-49.886 4.164,7.801 -2.17,-11.866 m -7.132,-5.561 4.089,7.66 0.019,45.075 c -2.501,-17.108 -3.955,-34.974 -4.108,-52.735 m 94.033,70.789 c -0.143,18.559 -1.743,35.052 -4.5,48.888 l -0.021,-47.227 4.521,-1.661 m -89.969,-123.294 0.021,48.435 -4.097,1.499 c 0,-0.134 -10e-4,-0.268 -10e-4,-0.402 -0.008,-18.735 1.45,-35.44 4.077,-49.532 m 85.422,61.792 c 2.913,18.928 4.55,38.875 4.558,58.611 0,0.156 0,0.309 0,0.464 l -4.536,-8.489 -0.022,-50.586 m -78.433,-86.977 0.034,83.357 -3.973,-2.993 2.179,-8.649 -4.16,1.521 -0.022,-53.247 c 1.64,-7.549 3.638,-14.248 5.942,-19.989 m 71.421,52.43 c 2.29,8.933 4.294,18.352 5.962,28.081 l 0.022,55.088 -3.786,-7.086 2.188,11.938 -4.351,-3.279 -0.035,-84.742 m -64.428,-65.632 0.043,101.834 -5.949,-4.483 -0.036,-86.655 c 1.816,-4.139 3.806,-7.723 5.942,-10.696 m 57.419,42.349 c 2.136,6.076 4.13,12.535 5.958,19.294 l 0.036,87.941 -5.952,-4.485 -0.042,-102.75 m -50.42,-49.521 0.048,114.284 -5.952,-4.484 -0.043,-104.026 c 1.88,-2.391 3.868,-4.326 5.947,-5.774 m 43.41,32.09 c 2.079,4.503 4.07,9.355 5.956,14.497 l 0.044,104.892 -5.952,-4.485 -0.048,-114.904 m -36.412,-35.045 0.051,122.514 -5.951,-4.485 -0.049,-115.76 c 1.913,-1.166 3.899,-1.93 5.949,-2.269 m 29.407,21.768 c 2.05,3.367 4.038,7.061 5.955,11.049 l 0.049,116.341 -5.952,-4.485 -0.052,-122.905 m -22.408,-21.311 0.054,127.333 -5.952,-4.485 -0.052,-123.441 c 1.933,-0.182 3.921,0.01 5.95,0.593 m 15.405,11.411 c 2.03,2.424 4.018,5.171 5.953,8.213 l 0.052,123.801 -5.952,-4.485 -0.053,-127.529 m -8.054,-7.691 0.054,129.152 -6.302,-4.749 -0.053,-127.79 c 2.059,0.723 4.164,1.847 6.301,3.387 m 1.052,0.791 c 2.017,1.575 4.003,3.479 5.952,5.681 l 0.054,127.958 -5.952,-4.485 -0.054,-129.154"
                   id="path10" />
                <path
                   fill="#0000ff"
                   d="m 891.315,57.199 -0.002,-3.254 -1.052,-0.793 10e-4,3.256 c -2.137,-1.541 -4.241,-2.664 -6.301,-3.387 l -0.002,-3.66 -1.049,-0.791 10e-4,4.116 c -2.029,-0.582 -4.018,-0.774 -5.95,-0.592 l -10e-4,-3.216 -1.05,-0.791 0.002,4.143 c -2.05,0.339 -4.036,1.103 -5.949,2.269 l -10e-4,-3.22 -1.05,-0.791 0.002,4.695 c -2.079,1.449 -4.067,3.384 -5.947,5.773 l -0.002,-3.434 -1.052,-0.793 0.002,5.626 c -2.136,2.973 -4.126,6.556 -5.942,10.696 l -0.002,-3.534 -1.052,-0.793 0.003,6.832 c -2.304,5.741 -4.302,12.44 -5.942,19.989 l -0.002,-5.4 -1.05,-0.791 0.005,11.387 c -2.627,14.092 -4.085,30.796 -4.077,49.531 0,0.134 10e-4,0.268 10e-4,0.402 l -1.138,0.416 1.15,2.155 c 0.153,17.761 1.606,35.627 4.107,52.735 l 0.005,10.022 1.049,0.791 -0.002,-4.036 c 1.647,10.027 3.653,19.743 5.963,28.959 l 0.002,6.426 1.053,0.793 -0.001,-3.129 c 1.821,6.881 3.815,13.467 5.955,19.661 l 0.002,5.221 1.053,0.793 -0.002,-3.028 c 1.884,5.226 3.875,10.158 5.957,14.743 l 10e-4,4.29 1.05,0.791 -0.001,-2.814 c 1.915,4.052 3.903,7.81 5.955,11.239 l 10e-4,3.736 1.05,0.791 -0.002,-2.811 c 1.935,3.096 3.924,5.9 5.954,8.378 l 10e-4,2.752 1.05,0.79 -10e-4,-2.295 c 2.061,2.382 4.165,4.43 6.302,6.11 l 10e-4,2.851 1.053,0.793 -10e-4,-2.849 c 2.017,1.463 4.003,2.555 5.951,3.288 l 10e-4,2.128 1.05,0.791 -0.002,-2.557 c 2.03,0.638 4.017,0.883 5.951,0.758 l 10e-4,2.449 1.049,0.791 -10e-4,-3.347 c 2.049,-0.277 4.034,-0.979 5.949,-2.079 l 0.001,2.233 1.049,0.791 -10e-4,-3.672 c 2.076,-1.371 4.065,-3.224 5.947,-5.526 l 10e-4,2.163 1.053,0.793 -0.002,-4.304 c 2.133,-2.859 4.122,-6.316 5.946,-10.325 v 1.843 l 1.05,0.79 -0.002,-5.041 c 2.284,-5.484 4.281,-11.889 5.942,-19.11 v 1.771 l 1.05,0.791 -0.003,-7.447 c 2.757,-13.836 4.357,-30.329 4.5,-48.888 l 1.092,-0.401 -1.081,-2.025 c 0,-0.156 0,-0.309 0,-0.464 -0.008,-19.737 -1.645,-39.684 -4.558,-58.611 l -0.003,-8.812 -1.05,-0.791 0.002,3.136 c -1.668,-9.729 -3.672,-19.148 -5.962,-28.081 l -0.003,-5.446 -1.049,-0.791 10e-4,2.248 c -1.828,-6.759 -3.822,-13.218 -5.958,-19.294 l -0.002,-4.709 -1.053,-0.793 10e-4,2.568 c -1.886,-5.141 -3.877,-9.993 -5.956,-14.497 l -0.002,-4.076 -1.049,-0.791 10e-4,2.639 c -1.917,-3.988 -3.905,-7.682 -5.955,-11.049 l -0.002,-3.751 -1.049,-0.791 10e-4,2.855 c -1.936,-3.042 -3.923,-5.79 -5.953,-8.213 l -0.002,-3.92 -1.049,-0.791 10e-4,3.492 c -1.948,-2.195 -3.934,-4.099 -5.951,-5.674 m -0.487,-6.133 c 27.091,20.414 49.153,97.416 49.185,171.664 0.032,74.248 -21.981,118.04 -49.073,97.626 -27.088,-20.411 -49.153,-97.415 -49.185,-171.663 -0.032,-74.248 21.984,-118.038 49.073,-97.627"
                   id="path12" />
                <path
                   fill="#0000ff"
                   d="m 897.322,193.713 1.049,0.791 0.052,124.101 0.002,2.557 -1.05,-0.791 -10e-4,-2.128 -0.052,-124.53 m -0.055,-134.325 1.049,0.791 0.002,3.92 0.053,127.53 -1.049,-0.791 -0.054,-127.958 -10e-4,-3.492"
                   id="path14" />
                <path
                   fill="#0000ff"
                   d="m 890.318,188.436 1.052,0.793 0.053,125.726 10e-4,2.849 -1.053,-0.793 -10e-4,-2.851 -0.052,-125.724 m -0.056,-135.284 1.052,0.793 0.002,3.254 0.054,129.154 -1.053,-0.793 -0.054,-129.152 -0.001,-3.256"
                   id="path16" />
                <path
                   fill="#0000ff"
                   d="m 904.323,198.989 1.05,0.791 0.05,119.476 10e-4,3.347 -1.049,-0.791 -10e-4,-2.449 -0.051,-120.374 m -0.053,-129.532 1.049,0.791 0.002,3.751 0.052,122.905 -1.05,-0.791 -0.052,-123.801 -10e-4,-2.855"
                   id="path18" />
                <path
                   fill="#0000ff"
                   d="m 911.325,204.265 1.049,0.791 0.047,111.474 10e-4,3.672 -1.049,-0.791 -0.001,-2.233 -0.047,-112.913 m -0.051,-121.856 1.049,0.791 0.002,4.076 0.048,114.903 -1.049,-0.791 -0.049,-116.341 -10e-4,-2.638"
                   id="path20" />
                <path
                   fill="#0000ff"
                   d="m 918.326,209.54 1.053,0.793 0.041,99.322 0.002,4.304 -1.053,-0.793 -10e-4,-2.163 -0.042,-101.463 m -0.046,-110.336 1.053,0.793 0.002,4.709 0.042,102.75 -1.052,-0.793 -0.044,-104.892 -10e-4,-2.567"
                   id="path22" />
                <path
                   fill="#0000ff"
                   d="m 925.331,214.818 1.049,0.791 0.034,81.313 0.002,5.041 -1.05,-0.79 v -1.843 l -0.035,-84.512 m -0.039,-93.065 1.049,0.791 0.003,5.446 0.035,84.743 -1.05,-0.791 -0.036,-87.942 -10e-4,-2.247"
                   id="path24" />
                <path
                   fill="#0000ff"
                   d="m 933.383,225.7 0.021,47.227 0.003,7.447 -1.05,-0.791 v -1.771 l -0.022,-51.727 1.048,-0.385 m -1.079,-72.765 1.05,0.791 0.003,8.812 0.021,50.586 -1.05,-1.965 -0.022,-55.088 -0.002,-3.136"
                   id="path26" />
                <path
                   fill="#0000ff"
                   d="m 882.967,182.896 1.049,0.791 0.053,124.361 0.001,2.295 -1.05,-0.79 -10e-4,-2.752 -0.052,-123.905 m -0.056,-134.325 1.049,0.791 0.002,3.66 0.053,127.79 -1.049,-0.791 -0.054,-127.333 -0.001,-4.117"
                   id="path28" />
                <path
                   fill="#0000ff"
                   d="m 875.966,177.621 1.049,0.791 0.05,120.012 0.002,2.811 -1.05,-0.791 -0.001,-3.736 -0.05,-119.087 m -0.055,-129.532 1.05,0.791 10e-4,3.216 0.052,123.441 -1.05,-0.791 -0.051,-122.514 -0.002,-4.143"
                   id="path30" />
                <path
                   fill="#0000ff"
                   d="m 868.964,172.346 1.05,0.791 0.047,112.332 10e-4,2.814 -1.05,-0.791 -10e-4,-4.29 -0.047,-110.856 m -0.051,-121.856 1.05,0.791 0.001,3.22 0.049,115.76 -1.05,-0.791 -0.048,-114.284 -0.002,-4.696"
                   id="path32" />
                <path
                   fill="#0000ff"
                   d="m 861.96,167.068 1.052,0.793 0.042,100.597 0.002,3.028 -1.053,-0.793 -0.002,-5.221 -0.041,-98.404 m -0.046,-110.336 1.052,0.793 0.002,3.434 0.043,104.026 -1.052,-0.793 -0.043,-101.834 -0.002,-5.626"
                   id="path34" />
                <path
                   fill="#0000ff"
                   d="m 854.959,161.792 1.052,0.793 0.035,83.226 10e-4,3.129 -1.053,-0.793 -0.002,-6.426 -0.033,-79.929 m -0.039,-93.064 1.052,0.793 0.002,3.534 0.036,86.655 -1.053,-0.793 -0.034,-83.357 -0.003,-6.832"
                   id="path36" />
                <path
                   fill="#0000ff"
                   d="m 847.959,160.909 1.05,1.967 0.021,49.886 0.002,4.036 -1.049,-0.791 -0.005,-10.022 -0.019,-45.076 m -0.03,-71.551 1.05,0.791 0.002,5.4 0.022,53.247 -1.049,0.384 -0.021,-48.435 -0.004,-11.387"
                   id="path38" />
                <polyline
                   fill="#ff0000"
                   points="850.984,155.923 854.957,158.917 856.01,159.709 861.959,164.192 863.011,164.985          868.963,169.47 870.013,170.261 875.964,174.746 877.014,175.536 882.966,180.021 884.015,180.812 890.316,185.56          891.369,186.353 897.321,190.838 898.37,191.628 904.322,196.113 905.372,196.904 911.324,201.389 912.373,202.179          918.325,206.664 919.377,207.457 925.329,211.942 926.379,212.732 930.729,216.011 931.027,217.634 930.715,218.875          926.38,215.608 925.331,214.818 919.379,210.333 918.326,209.54 912.374,205.055 911.325,204.265 905.373,199.78          904.323,198.989 898.371,194.504 897.322,193.713 891.37,189.229 890.318,188.436 884.016,183.688 882.967,182.896          877.015,178.412 875.966,177.621 870.014,173.136 868.964,172.346 863.012,167.861 861.96,167.068 856.011,162.585          854.959,161.792 851.002,158.811 850.688,157.099 850.984,155.923        "
                   id="polyline40" />
                <polyline
                   fill="#ff0000"
                   points="928.542,204.073 932.328,211.159 933.378,213.124 937.914,221.613 938.995,223.638          937.903,224.039 933.383,225.7 932.334,226.085 928.552,227.475 930.715,218.875 931.027,217.634 930.729,216.011          928.542,204.073        "
                   id="polyline42" />
                <polyline
                   fill="#ff0000"
                   points="853.163,147.274 850.984,155.923 850.688,157.099 851.002,158.811 853.173,170.677          849.009,162.876 847.959,160.909 843.87,153.25 842.72,151.094 843.857,150.678 847.954,149.18 849.003,148.796          853.163,147.274        "
                   id="polyline44" />
              </g>
            </g>
          </g>
        </g>
      </g>
    </g>
  </g>
  <g
     id="g881"
     transform="translate(-65.224,-35.726749)">
    <g
       id="g879">
      <g
         enable-background="new    "
         id="g877">
        <defs
           id="defs828">
          <polygon
             id="polygon1546"
             enable-background="new    "
             points="534.822,143.794 534.934,413.084 436.676,339.047 436.564,69.757 " />
        </defs>
        <clipPath
           id="SVGID_2_">
          <use
             xlink:href="#SVGID_1_"
             overflow="visible"
             id="use830"
             x="0"
             y="0"
             width="100%"
             height="100%" />
        </clipPath>
        <g
           clip-path="url(#SVGID_2_)"
           id="g875">
          <g
             id="g873">
            <g
               id="g871">
              <g
                 id="g869">
                <path
                   fill="#ffffff"
                   d="m 488.555,361.114 16.471,12.41 c -5.559,2.664 -11.692,2.02 -18.141,-2.438 l 1.67,-9.972 m -21.985,-16.566 17.695,13.334 1.683,12.532 c -0.049,-0.036 -0.097,-0.071 -0.146,-0.108 -6.845,-5.159 -13.357,-14.096 -19.232,-25.758 m 20.358,-3.843 29.191,21.996 c -2.724,4.267 -5.711,7.497 -8.914,9.591 l -18.223,-13.731 1.69,-10.095 -3.741,3.138 -0.003,-10.899 m -31.469,-23.711 30.418,22.921 0.005,10.902 -3.746,-8.783 1.699,12.649 -19.448,-14.654 c -3.205,-6.923 -6.198,-14.659 -8.928,-23.035 m 31.461,4.515 35.931,27.074 c -1.67,4.604 -3.521,8.666 -5.53,12.141 l -30.394,-22.902 -0.007,-16.313 m -38.208,-28.789 37.158,27.999 0.007,16.312 -31.621,-23.826 c -2.013,-6.506 -3.869,-13.361 -5.544,-20.485 m 38.199,9.6 40.469,30.493 c -1.098,4.875 -2.348,9.381 -3.733,13.494 l -36.729,-27.675 -0.007,-16.312 m -42.745,-32.208 41.696,31.418 0.007,16.313 -37.956,-28.6 c -1.391,-6.206 -2.644,-12.598 -3.747,-19.131 m 42.737,13.021 43.469,32.754 c -0.685,5.102 -1.506,9.926 -2.456,14.456 l -41.006,-30.897 -0.007,-16.313 m -45.746,-34.47 44.697,33.679 0.007,16.313 -42.234,-31.823 c -0.954,-5.965 -1.78,-12.031 -2.47,-18.169 m 45.739,15.281 45.225,34.077 c -0.343,5.305 -0.816,10.395 -1.411,15.243 l -43.807,-33.008 -0.007,-16.312 m -47.503,-35.793 46.454,35.003 0.007,16.313 -45.036,-33.935 c -0.599,-5.748 -1.078,-11.556 -1.425,-17.381 m 47.494,15.638 45.887,34.575 c -0.022,5.839 -0.188,11.479 -0.487,16.898 l -45.392,-34.202 -0.008,-17.271 m -48.164,-36.291 47.115,35.501 0.007,17.271 -46.62,-35.128 c -0.305,-5.876 -0.475,-11.768 -0.502,-17.644 m 48.156,17.103 45.449,34.246 c 0.271,5.543 0.421,11.101 0.444,16.643 l -45.887,-34.576 -0.006,-16.313 m -47.727,-35.962 46.678,35.171 0.007,16.313 -47.116,-35.502 c 0.019,-5.51 0.165,-10.844 0.431,-15.982 m 47.719,16.774 43.931,33.102 c 0.58,5.739 1.039,11.528 1.368,17.339 l -45.292,-34.128 -0.007,-16.313 m -46.208,-34.818 45.159,34.027 0.007,16.313 -46.521,-35.054 c 0.324,-5.318 0.779,-10.418 1.355,-15.286 m 46.2,15.63 41.205,31.048 c 0.932,5.95 1.736,12.002 2.404,18.119 l -43.603,-32.854 -0.006,-16.313 m -43.483,-32.765 42.434,31.974 0.007,16.313 -44.831,-33.781 c 0.662,-5.113 1.463,-9.955 2.39,-14.506 m 43.475,13.577 37.024,27.897 c 1.36,6.186 2.586,12.557 3.661,19.058 l -40.679,-30.651 -0.006,-16.304 m -39.301,-29.614 38.252,28.823 0.007,16.304 -41.907,-31.577 c 1.07,-4.884 2.291,-9.412 3.648,-13.55 m 39.294,10.417 30.834,23.233 c 1.968,6.485 3.78,13.308 5.415,20.388 l -36.243,-27.309 -0.006,-16.312 m -33.111,-24.948 32.061,24.158 0.007,16.313 -37.47,-28.234 c 1.629,-4.622 3.437,-8.716 5.402,-12.237 m 35.294,7.412 18.853,14.206 c 3.099,6.892 5.992,14.554 8.628,22.808 l -29.666,-22.353 -0.005,-11.866 3.746,8.779 -1.556,-11.574 m -25.512,-19.224 20.078,15.129 -1.546,9.237 3.741,-3.142 0.005,11.87 -30.893,-23.277 c 2.631,-4.286 5.52,-7.591 8.615,-9.817 m 23.236,2.287 c 6.8,5.538 13.251,14.785 19.054,26.703 l -17.207,-12.965 -1.847,-13.738 m -1.06,-0.831 c 0.057,0.043 0.111,0.085 0.169,0.128 l -1.84,10.992 -18.433,-13.888 c 6.098,-3.344 12.914,-2.65 20.104,2.768"
                   id="path833" />
                <path
                   fill="#0000ff"
                   d="m 486.755,113.367 -0.449,-3.341 -0.441,2.638 c -0.058,-0.043 -0.112,-0.085 -0.169,-0.128 -7.19,-5.418 -14.006,-6.112 -20.104,-2.768 l -3.262,-2.458 0.001,2.875 1.188,0.895 c -3.095,2.226 -5.983,5.531 -8.615,9.816 l -2.018,-1.521 10e-4,2.875 0.85,0.641 c -1.964,3.521 -3.772,7.616 -5.402,12.237 l -1.743,-1.313 0.001,2.884 0.961,0.724 c -1.356,4.138 -2.578,8.666 -3.648,13.55 l -1.506,-1.135 0.001,2.884 0.979,0.738 c -0.927,4.55 -1.728,9.392 -2.391,14.506 l -1.383,-1.042 0.001,2.876 1.056,0.795 c -0.576,4.868 -1.031,9.968 -1.355,15.286 l -1.445,-1.089 10e-4,2.875 1.289,0.971 c -0.266,5.138 -0.413,10.472 -0.432,15.982 l -1.2,-0.904 10e-4,2.875 1.201,0.905 c 0.027,5.876 0.197,11.769 0.502,17.644 l -1.346,-1.014 10e-4,2.884 1.512,1.14 c 0.348,5.825 0.826,11.632 1.425,17.381 l -1.179,-0.889 0.001,2.876 1.517,1.144 c 0.689,6.138 1.516,12.204 2.47,18.168 l -1.179,-0.889 10e-4,2.876 1.717,1.294 c 1.103,6.532 2.356,12.925 3.748,19.131 l -1.257,-0.947 10e-4,2.876 2.055,1.548 c 1.675,7.124 3.531,13.979 5.544,20.484 l -1.29,-0.972 10e-4,2.884 2.492,1.878 c 2.729,8.376 5.722,16.112 8.928,23.035 l -1.961,-1.478 0.001,2.875 4.143,3.121 c 5.875,11.662 12.387,20.6 19.232,25.758 0.049,0.037 0.097,0.072 0.146,0.108 l 0.467,3.479 0.47,-2.806 c 6.448,4.457 12.582,5.102 18.141,2.438 l 3.617,2.725 -0.002,-2.875 -1.436,-1.082 c 3.203,-2.094 6.19,-5.324 8.914,-9.591 l 2.317,1.746 -0.001,-2.884 -1.115,-0.84 c 2.009,-3.475 3.86,-7.537 5.53,-12.141 l 1.88,1.416 -10e-4,-2.876 -1.083,-0.815 c 1.386,-4.113 2.636,-8.619 3.733,-13.494 l 1.543,1.162 -0.002,-2.875 -1.005,-0.758 c 0.95,-4.53 1.771,-9.354 2.456,-14.456 l 1.344,1.012 -10e-4,-2.876 -1.006,-0.758 c 0.595,-4.849 1.068,-9.938 1.411,-15.243 l 0.989,0.745 -10e-4,-2.884 -0.822,-0.62 c 0.3,-5.42 0.465,-11.06 0.487,-16.898 l 1.027,0.774 -10e-4,-2.876 -1.027,-0.773 c -0.023,-5.542 -0.174,-11.1 -0.444,-16.643 l 0.766,0.577 -0.002,-2.876 -0.922,-0.694 c -0.329,-5.811 -0.788,-11.6 -1.368,-17.339 l 0.882,0.665 -0.002,-2.876 -1.209,-0.911 c -0.668,-6.117 -1.473,-12.168 -2.404,-18.119 l 0.806,0.607 -10e-4,-2.884 -1.332,-1.004 c -1.075,-6.5 -2.301,-12.872 -3.661,-19.058 l 0.786,0.593 -0.001,-2.884 -1.568,-1.182 c -1.635,-7.08 -3.447,-13.903 -5.415,-20.388 l 0.675,0.508 -0.002,-2.875 -1.843,-1.389 c -2.636,-8.254 -5.529,-15.917 -8.628,-22.808 l 0.662,0.498 -10e-4,-2.875 -2.736,-2.062 c -5.803,-11.917 -12.254,-21.164 -19.054,-26.702 m -1.062,-6.591 c 27.088,20.411 49.153,97.416 49.185,171.664 0.032,74.248 -21.984,118.037 -49.073,97.626 -27.091,-20.413 -49.154,-97.415 -49.185,-171.663 -0.031,-74.248 21.982,-118.04 49.073,-97.627"
                   id="path835" />
                <path
                   fill="#0000ff"
                   d="m 486.878,221.726 45.292,34.128 0.922,0.694 0.002,2.876 -0.766,-0.577 -45.449,-34.246 -0.001,-2.875 m -49.016,-36.934 1.445,1.089 46.521,35.054 0.001,2.875 -46.678,-35.171 -1.289,-0.971 v -2.876"
                   id="path837" />
                <path
                   fill="#0000ff"
                   d="m 486.886,240.914 45.887,34.576 1.027,0.773 0.001,2.876 -1.027,-0.774 -45.887,-34.575 -10e-4,-2.876 m -49.365,-37.197 1.2,0.904 47.116,35.502 0.001,2.876 -47.115,-35.501 -1.201,-0.905 -10e-4,-2.876"
                   id="path839" />
                <path
                   fill="#0000ff"
                   d="m 486.87,202.538 43.603,32.854 1.209,0.911 0.002,2.876 -0.882,-0.665 -43.931,-33.102 -10e-4,-2.874 m -47.264,-35.614 1.383,1.042 44.831,33.781 0.002,2.875 -45.159,-34.027 -1.056,-0.795 -0.001,-2.876"
                   id="path841" />
                <path
                   fill="#0000ff"
                   d="m 486.862,183.341 40.679,30.651 1.332,1.004 10e-4,2.884 -0.806,-0.607 -41.205,-31.048 -10e-4,-2.884 m -44.463,-33.503 1.506,1.135 41.907,31.577 10e-4,2.884 -42.433,-31.974 -0.979,-0.738 -0.002,-2.884"
                   id="path843" />
                <path
                   fill="#0000ff"
                   d="m 486.854,164.153 36.243,27.309 1.568,1.182 0.001,2.884 -0.786,-0.593 -37.024,-27.897 -0.002,-2.885 m -40.262,-30.338 1.743,1.313 37.47,28.234 10e-4,2.884 -38.252,-28.823 -0.961,-0.724 -0.001,-2.884"
                   id="path845" />
                <path
                   fill="#0000ff"
                   d="m 486.846,144.965 29.666,22.353 1.843,1.389 0.002,2.875 -0.675,-0.508 -30.834,-23.233 -0.002,-2.876 m -33.96,-25.59 2.018,1.521 30.893,23.277 10e-4,2.876 -32.061,-24.158 -0.85,-0.641 -10e-4,-2.875"
                   id="path847" />
                <path
                   fill="#0000ff"
                   d="m 488.602,127.105 17.207,12.965 2.736,2.062 10e-4,2.875 -0.662,-0.498 -18.853,-14.206 -0.429,-3.198 m -26.272,-19.795 3.262,2.458 18.433,13.888 -0.428,2.553 -20.078,-15.129 -1.188,-0.895 -0.001,-2.875"
                   id="path849" />
                <path
                   fill="#0000ff"
                   d="m 486.895,261.061 45.392,34.202 0.822,0.62 10e-4,2.884 -0.989,-0.745 -45.225,-34.077 -0.001,-2.884 m -49.016,-36.934 1.346,1.014 46.62,35.128 0.002,2.885 -46.454,-35.003 -1.512,-1.14 -0.002,-2.884"
                   id="path851" />
                <path
                   fill="#0000ff"
                   d="m 486.902,280.257 43.807,33.008 1.006,0.758 10e-4,2.876 -1.344,-1.012 -43.469,-32.754 -0.001,-2.876 m -47.263,-35.613 1.179,0.889 45.036,33.935 0.001,2.875 -44.697,-33.679 -1.517,-1.144 -0.002,-2.876"
                   id="path853" />
                <path
                   fill="#0000ff"
                   d="m 486.91,299.445 41.006,30.897 1.005,0.758 0.002,2.875 -1.543,-1.162 -40.469,-30.493 -10e-4,-2.875 m -44.462,-33.503 1.179,0.889 42.234,31.823 0.001,2.876 -41.696,-31.418 -1.717,-1.294 -0.001,-2.876"
                   id="path855" />
                <path
                   fill="#0000ff"
                   d="m 486.918,318.633 36.729,27.675 1.083,0.815 10e-4,2.876 -1.88,-1.416 -35.931,-27.074 -0.002,-2.876 m -40.262,-30.337 1.257,0.947 37.956,28.6 10e-4,2.876 -37.158,-27.999 -2.055,-1.548 -10e-4,-2.876"
                   id="path857" />
                <path
                   fill="#0000ff"
                   d="m 486.927,337.821 30.394,22.902 1.115,0.84 10e-4,2.884 -2.317,-1.746 -29.191,-21.996 -0.002,-2.884 m -33.961,-25.589 1.29,0.972 31.621,23.826 10e-4,2.885 -30.418,-22.921 -2.492,-1.878 -0.002,-2.884"
                   id="path859" />
                <path
                   fill="#0000ff"
                   d="m 488.982,358.561 18.223,13.731 1.436,1.082 0.002,2.875 -3.617,-2.725 -16.471,-12.41 0.427,-2.553 m -26.555,-20.009 1.961,1.478 19.448,14.654 0.43,3.198 -17.695,-13.334 -4.143,-3.121 -10e-4,-2.875"
                   id="path861" />
                <polyline
                   fill="#ff0000"
                   points="486.314,131.866 486.841,133.099 486.846,144.965 486.848,147.84 486.854,164.153          486.855,167.037 486.862,183.341 486.863,186.225 486.87,202.538 486.871,205.413 486.878,221.726 486.879,224.601          486.886,240.914 486.887,243.789 486.895,261.061 486.896,263.944 486.902,280.257 486.903,283.133 486.91,299.445          486.911,302.32 486.918,318.633 486.92,321.509 486.927,337.821 486.928,340.705 486.932,351.604 486.406,352.045          485.883,350.817 485.878,339.915 485.877,337.03 485.87,320.719 485.869,317.843 485.862,301.53 485.861,298.654          485.854,282.342 485.854,279.467 485.847,263.154 485.845,260.27 485.838,242.999 485.837,240.123 485.83,223.811          485.829,220.935 485.822,204.623 485.82,201.747 485.813,185.435 485.813,182.55 485.806,166.246 485.805,163.362          485.798,147.05 485.797,144.174 485.792,132.304 486.314,131.866        "
                   id="polyline863" />
                <polyline
                   fill="#ff0000"
                   points="486.306,110.026 486.755,113.367 488.602,127.105 489.031,130.304 490.587,141.878          486.841,133.099 486.314,131.866 485.792,132.304 482.051,135.446 483.597,126.209 484.024,123.656 485.864,112.665          486.306,110.026        "
                   id="polyline865" />
                <polyline
                   fill="#ff0000"
                   points="482.137,342.034 485.883,350.817 486.406,352.045 486.932,351.604 490.673,348.466          488.982,358.561 488.555,361.114 486.885,371.087 486.415,373.893 485.948,370.414 484.266,357.882 483.836,354.684          482.137,342.034        "
                   id="polyline867" />
              </g>
            </g>
          </g>
        </g>
      </g>
    </g>
  </g>
  <g
     id="g1194"
     transform="translate(-65.224,-35.726749)">
    <g
       id="g1192">
      <g
         enable-background="new    "
         id="g1190">
        <defs
           id="defs1173">
          <polygon
             id="polygon1727"
             enable-background="new    "
             points="696.568,117.008 696.612,223.51 682.647,212.987 682.604,106.485 " />
        </defs>
        <clipPath
           id="SVGID_6_">
          <use
             xlink:href="#SVGID_5_"
             overflow="visible"
             id="use1175"
             x="0"
             y="0"
             width="100%"
             height="100%" />
        </clipPath>
        <g
           clip-path="url(#SVGID_6_)"
           id="g1188">
          <g
             id="g1186">
            <g
               id="g1184">
              <g
                 id="g1182">
                <polyline
                   fill="#009600"
                   points="688.938,144.391 690.337,145.445 690.367,218.804 688.969,217.75 688.938,144.391                 "
                   id="polyline1178" />
                <polyline
                   fill="#009600"
                   points="689.586,111.747 696.582,150.151 690.337,145.445 688.938,144.391 682.617,139.628          689.586,111.747        "
                   id="polyline1180" />
              </g>
            </g>
          </g>
        </g>
      </g>
    </g>
  </g>
  <g
     id="g1218"
     transform="translate(-65.224,-35.726749)"
     style="fill:#ffffff">
    <g
       id="g1216"
       style="fill:#ffffff">
      <g
         enable-background="new    "
         id="g1214"
         style="fill:#ffffff">
        <defs
           id="defs1197">
          <polygon
             id="polygon1741"
             enable-background="new    "
             points="1227.285,155.375 99.654,313.877 99.712,282.629 1227.344,124.127 " />
        </defs>
        <clipPath
           id="SVGID_8_">
          <use
             xlink:href="#SVGID_7_"
             overflow="visible"
             id="use1199"
             x="0"
             y="0"
             width="100%"
             height="100%" />
        </clipPath>
        <g
           clip-path="url(#SVGID_8_)"
           id="g1212"
           style="fill:#ffffff">
          <g
             id="g1210"
             style="fill:#ffffff">
            <g
               id="g1208"
               style="fill:#ffffff">
              <g
                 id="g1206"
                 style="fill:#ffffff">
                <polyline
                   points="1199.269,141.774 99.687,296.333 99.68,300.173 1199.262,145.613 1200.297,143.549 1199.269,141.774                 "
                   id="polyline1202"
                   style="fill:#ffffff" />
                <polyline
                   points="1191.924,129.105 1199.269,141.774 1200.297,143.549 1199.262,145.613 1191.865,160.354 1227.314,139.751          1191.924,129.105        "
                   id="polyline1204"
                   style="fill:#ffffff" />
              </g>
            </g>
          </g>
        </g>
      </g>
    </g>
  </g>
  <g
     id="g1414"
     transform="translate(-65.224,-35.726749)">
    <g
       id="g1242">
      <g
         id="g1240">
        <g
           enable-background="new    "
           id="g1238">
          <defs
             id="defs1221">
            <polygon
               id="polygon1755"
               enable-background="new    "
               points="178.205,295.669 178.248,402.169 162.537,390.33 162.495,283.83 " />
          </defs>
          <clipPath
             id="SVGID_9_">
            <use
               xlink:href="#SVGID_11_"
               overflow="visible"
               id="use1223"
               x="0"
               y="0"
               width="100%"
               height="100%" />
          </clipPath>
          <g
             clip-path="url(#SVGID_9_)"
             id="g1236">
            <g
               id="g1234">
              <g
                 id="g1232">
                <g
                   id="g1230">
                  <polyline
                     fill="#009600"
                     points="169.518,289.123 171.094,290.311 171.121,359.53 169.545,358.344 169.518,289.123                   "
                     id="polyline1226" />
                  <polyline
                     fill="#009600"
                     points="162.522,353.051 169.545,358.344 171.121,359.53 178.232,364.89 170.389,396.247           162.522,353.051         "
                     id="polyline1228" />
                </g>
              </g>
            </g>
          </g>
        </g>
      </g>
    </g>
    <g
       id="g1412">
      <g
         id="g1266">
        <g
           id="g1264">
          <g
             enable-background="new    "
             id="g1262">
            <defs
               id="defs1245">
              <polygon
                 id="polygon1769"
                 enable-background="new    "
                 points="180.458,184.671 180.501,291.17 164.793,279.334 164.751,172.834 " />
            </defs>
            <clipPath
               id="SVGID_10_">
              <use
                 xlink:href="#SVGID_13_"
                 overflow="visible"
                 id="use1247"
                 x="0"
                 y="0"
                 width="100%"
                 height="100%" />
            </clipPath>
            <g
               clip-path="url(#SVGID_10_)"
               id="g1260">
              <g
                 id="g1258">
                <g
                   id="g1256">
                  <g
                     id="g1254">
                    <polyline
                       fill="#009600"
                       points="171.874,215.47 173.449,216.657 173.477,285.878 171.901,284.69 171.874,215.47                     "
                       id="polyline1250" />
                    <polyline
                       fill="#009600"
                       points="172.606,178.754 180.473,221.95 173.449,216.657 171.874,215.47 164.766,210.113            172.606,178.754          "
                       id="polyline1252" />
                  </g>
                </g>
              </g>
            </g>
          </g>
        </g>
      </g>
      <g
         id="g1290">
        <g
           id="g1288">
          <g
             enable-background="new    "
             id="g1286">
            <defs
               id="defs1269">
              <polygon
                 id="polygon1783"
                 enable-background="new    "
                 points="172.262,214.538 172.294,291.454 144.163,270.257 144.13,193.341 " />
            </defs>
            <clipPath
               id="SVGID_12_">
              <use
                 xlink:href="#SVGID_15_"
                 overflow="visible"
                 id="use1271"
                 x="0"
                 y="0"
                 width="100%"
                 height="100%" />
            </clipPath>
            <g
               clip-path="url(#SVGID_12_)"
               id="g1284">
              <g
                 id="g1282">
                <g
                   id="g1280">
                  <g
                     id="g1278">
                    <polyline
                       fill="#009600"
                       points="155.483,229.395 172.293,288.061 171.056,290.521 154.248,231.853 155.483,229.395                     "
                       id="polyline1274" />
                    <polyline
                       fill="#009600"
                       points="144.13,193.341 160.996,218.429 155.483,229.395 154.248,231.853 148.668,242.954            144.13,193.341          "
                       id="polyline1276" />
                  </g>
                </g>
              </g>
            </g>
          </g>
        </g>
      </g>
      <g
         id="g1314">
        <g
           id="g1312">
          <g
             enable-background="new    "
             id="g1310">
            <defs
               id="defs1293">
              <polygon
                 id="polygon1797"
                 enable-background="new    "
                 points="198.929,303.674 198.961,380.591 170.83,359.394 170.797,282.477 " />
            </defs>
            <clipPath
               id="SVGID_14_">
              <use
                 xlink:href="#SVGID_17_"
                 overflow="visible"
                 id="use1295"
                 x="0"
                 y="0"
                 width="100%"
                 height="100%" />
            </clipPath>
            <g
               clip-path="url(#SVGID_14_)"
               id="g1308">
              <g
                 id="g1306">
                <g
                   id="g1304">
                  <g
                     id="g1302">
                    <polyline
                       fill="#009600"
                       points="172.036,283.41 188.844,342.081 187.608,344.538 170.799,285.871 172.036,283.41                     "
                       id="polyline1298" />
                    <polyline
                       fill="#009600"
                       points="194.426,330.979 198.961,380.591 182.095,355.503 187.608,344.538 188.844,342.081            194.426,330.979          "
                       id="polyline1300" />
                  </g>
                </g>
              </g>
            </g>
          </g>
        </g>
      </g>
      <g
         id="g1338">
        <g
           id="g1336">
          <g
             enable-background="new    "
             id="g1334">
            <defs
               id="defs1317">
              <polygon
                 id="polygon1811"
                 enable-background="new    "
                 points="199.992,231.328 200.024,308.426 171.962,287.281 171.93,210.183 " />
            </defs>
            <clipPath
               id="SVGID_16_">
              <use
                 xlink:href="#SVGID_19_"
                 overflow="visible"
                 id="use1319"
                 x="0"
                 y="0"
                 width="100%"
                 height="100%" />
            </clipPath>
            <g
               clip-path="url(#SVGID_16_)"
               id="g1332">
              <g
                 id="g1330">
                <g
                   id="g1328">
                  <g
                     id="g1326">
                    <polyline
                       fill="#009600"
                       points="188.732,250.521 189.97,254.844 173.2,288.214 171.961,283.887 188.732,250.521                     "
                       id="polyline1322" />
                    <polyline
                       fill="#009600"
                       points="199.992,231.328 195.496,274.125 189.97,254.844 188.732,250.521 183.137,230.998            199.992,231.328          "
                       id="polyline1324" />
                  </g>
                </g>
              </g>
            </g>
          </g>
        </g>
      </g>
      <g
         id="g1362">
        <g
           id="g1360">
          <g
             enable-background="new    "
             id="g1358">
            <defs
               id="defs1341">
              <polygon
                 id="polygon1825"
                 enable-background="new    "
                 points="171.129,287.658 171.161,364.756 143.099,343.611 143.067,266.514 " />
            </defs>
            <clipPath
               id="SVGID_18_">
              <use
                 xlink:href="#SVGID_21_"
                 overflow="visible"
                 id="use1343"
                 x="0"
                 y="0"
                 width="100%"
                 height="100%" />
            </clipPath>
            <g
               clip-path="url(#SVGID_18_)"
               id="g1356">
              <g
                 id="g1354">
                <g
                   id="g1352">
                  <g
                     id="g1350">
                    <polyline
                       fill="#009600"
                       points="169.894,286.728 171.13,291.044 154.361,324.412 153.122,320.086 169.894,286.728                     "
                       id="polyline1346" />
                    <polyline
                       fill="#009600"
                       points="147.598,300.808 153.122,320.086 154.361,324.412 159.954,343.933 143.099,343.611            147.598,300.808          "
                       id="polyline1348" />
                  </g>
                </g>
              </g>
            </g>
          </g>
        </g>
      </g>
      <g
         id="g1386">
        <g
           id="g1384">
          <g
             enable-background="new    "
             id="g1382">
            <defs
               id="defs1365">
              <polygon
                 id="polygon1839"
                 enable-background="new    "
                 points="169.922,265.244 169.939,308.3 131.076,279.015 131.059,235.959 " />
            </defs>
            <clipPath
               id="SVGID_20_">
              <use
                 xlink:href="#SVGID_23_"
                 overflow="visible"
                 id="use1367"
                 x="0"
                 y="0"
                 width="100%"
                 height="100%" />
            </clipPath>
            <g
               clip-path="url(#SVGID_20_)"
               id="g1380">
              <g
                 id="g1378">
                <g
                   id="g1376">
                  <g
                     id="g1374">
                    <polyline
                       fill="#009600"
                       points="144.672,265.459 169.93,284.492 169.931,288.81 144.674,269.776 144.672,265.459                     "
                       id="polyline1370" />
                    <polyline
                       fill="#009600"
                       points="144.665,246.211 144.672,265.459 144.674,269.776 144.682,289.267 131.067,257.478            144.665,246.211          "
                       id="polyline1372" />
                  </g>
                </g>
              </g>
            </g>
          </g>
        </g>
      </g>
      <g
         id="g1410">
        <g
           id="g1408">
          <g
             enable-background="new    "
             id="g1406">
            <defs
               id="defs1389">
              <polygon
                 id="polygon1853"
                 enable-background="new    "
                 points="210.92,294.987 210.937,338.043 172.077,308.76 172.06,265.704 " />
            </defs>
            <clipPath
               id="SVGID_22_">
              <use
                 xlink:href="#SVGID_25_"
                 overflow="visible"
                 id="use1391"
                 x="0"
                 y="0"
                 width="100%"
                 height="100%" />
            </clipPath>
            <g
               clip-path="url(#SVGID_22_)"
               id="g1404">
              <g
                 id="g1402">
                <g
                   id="g1400">
                  <g
                     id="g1398">
                    <polyline
                       fill="#009600"
                       points="172.068,285.194 197.322,304.226 197.324,308.543 172.069,289.512 172.068,285.194                     "
                       id="polyline1394" />
                    <polyline
                       fill="#009600"
                       points="197.314,284.734 210.929,316.516 197.332,327.791 197.324,308.543 197.322,304.226            197.314,284.734          "
                       id="polyline1396" />
                  </g>
                </g>
              </g>
            </g>
          </g>
        </g>
      </g>
    </g>
  </g>
  <g
     id="g1502"
     transform="translate(-65.224,-35.726749)"
     style="fill:#ffffff">
    <g
       id="g1500"
       style="fill:#ffffff">
      <g
         enable-background="new    "
         id="g1498"
         style="fill:#ffffff">
        <defs
           id="defs1483">
          <polygon
             id="polygon1904"
             enable-background="new    "
             points="864.146,234.095 487.676,287.013 487.855,191.903 864.324,138.986 " />
        </defs>
        <clipPath
           id="SVGID_28_">
          <use
             xlink:href="#SVGID_27_"
             overflow="visible"
             id="use1485"
             x="0"
             y="0"
             width="100%"
             height="100%" />
        </clipPath>
        <g
           clip-path="url(#SVGID_28_)"
           id="g1496"
           style="fill:#ffffff">
          <g
             id="g1494"
             style="fill:#ffffff">
            <g
               id="g1492"
               style="fill:#ffffff">
              <g
                 id="g1490"
                 style="fill:#ffffff">
                <path
                   d="m 842.177,142.099 c -6.393,0.899 -8.909,19.249 -12.489,49.116 -1.382,11.492 -2.806,23.379 -4.545,32.215 -2.481,12.658 -4.678,13.927 -5.295,14.014 -0.608,0.085 -2.801,-0.566 -5.246,-12.532 -1.697,-8.353 -3.085,-19.845 -4.418,-30.955 -3.47,-28.876 -5.927,-46.528 -12.311,-45.63 -6.384,0.898 -8.9,19.248 -12.48,49.115 -1.383,11.493 -2.807,23.379 -4.545,32.215 -2.481,12.658 -4.679,13.927 -5.295,14.013 -0.609,0.086 -2.802,-0.565 -5.246,-12.531 -1.698,-8.353 -3.077,-19.846 -4.418,-30.955 -3.47,-28.876 -5.919,-46.529 -12.311,-45.63 -6.385,0.897 -8.901,19.248 -12.48,49.115 -1.383,11.492 -2.807,23.379 -4.537,32.213 -2.49,12.66 -4.687,13.928 -5.295,14.014 -0.617,0.087 -2.81,-0.564 -5.246,-12.532 -1.706,-8.352 -3.086,-19.844 -4.418,-30.955 -3.479,-28.875 -5.928,-46.527 -12.312,-45.63 -6.384,0.897 -8.9,19.248 -12.479,49.115 -1.384,11.492 -2.807,23.379 -4.545,32.215 -2.482,12.658 -4.679,13.927 -5.288,14.012 -0.616,0.087 -2.81,-0.564 -5.245,-12.531 -1.706,-8.352 -3.086,-19.845 -4.419,-30.955 -3.47,-28.876 -5.927,-46.527 -12.311,-45.63 -6.384,0.897 -8.9,19.248 -12.479,49.115 -1.384,11.492 -2.808,23.379 -4.537,32.213 -2.49,12.659 -4.688,13.928 -5.296,14.014 -0.617,0.087 -2.802,-0.565 -5.245,-12.532 -1.707,-8.351 -3.086,-19.844 -4.419,-30.955 -3.47,-28.876 -5.927,-46.527 -12.311,-45.63 -6.384,0.897 -8.9,19.248 -12.479,49.115 -1.384,11.492 -2.808,23.379 -4.545,32.215 -2.483,12.658 -4.68,13.927 -5.288,14.012 -0.617,0.087 -2.81,-0.564 -5.245,-12.531 -1.707,-8.352 -3.087,-19.844 -4.419,-30.955 -3.477,-28.875 -5.927,-46.527 -12.312,-45.63 -6.384,0.897 -8.9,19.248 -12.479,49.115 -1.383,11.492 -2.807,23.387 -4.545,32.215 -2.481,12.658 -4.679,13.926 -5.287,14.012 -0.616,0.087 -2.81,-0.564 -5.246,-12.531 -1.706,-8.353 -3.086,-19.845 -4.427,-30.954 -3.469,-28.876 -5.918,-46.529 -12.303,-45.632 -6.384,0.897 -8.9,19.248 -12.487,49.116 -1.375,11.491 -2.799,23.387 -4.537,32.214 -2.481,12.658 -4.679,13.927 -5.295,14.014 -0.608,0.085 -2.803,-0.566 -5.238,-12.533 -1.706,-8.352 -3.086,-19.845 -4.427,-30.954 -3.469,-28.876 -5.918,-46.528 -12.302,-45.631 l -0.006,2.879 c 0.608,-0.085 2.802,0.566 5.245,12.54 1.698,8.345 3.078,19.838 4.419,30.947 3.47,28.875 5.919,46.529 12.303,45.631 6.392,-0.898 8.908,-19.249 12.488,-49.107 1.375,-11.5 2.807,-23.388 4.536,-32.214 2.491,-12.667 4.688,-13.936 5.296,-14.021 0.617,-0.086 2.802,0.566 5.245,12.54 1.699,8.345 3.078,19.838 4.419,30.947 3.47,28.876 5.919,46.528 12.312,45.63 6.384,-0.897 8.9,-19.248 12.48,-49.106 1.382,-11.5 2.806,-23.387 4.535,-32.214 2.491,-12.667 4.688,-13.936 5.296,-14.021 0.617,-0.086 2.802,0.566 5.246,12.54 1.698,8.345 3.086,19.836 4.418,30.947 3.47,28.875 5.919,46.529 12.312,45.63 6.384,-0.897 8.9,-19.248 12.479,-49.106 1.384,-11.501 2.807,-23.388 4.537,-32.214 2.49,-12.667 4.687,-13.936 5.296,-14.021 0.616,-0.086 2.801,0.566 5.245,12.54 1.698,8.345 3.086,19.836 4.419,30.947 3.469,28.876 5.927,46.527 12.311,45.63 6.384,-0.897 8.9,-19.248 12.479,-49.115 1.384,-11.492 2.808,-23.379 4.545,-32.207 2.482,-12.667 4.68,-13.935 5.288,-14.021 0.617,-0.087 2.802,0.566 5.245,12.54 1.707,8.344 3.086,19.836 4.419,30.956 3.469,28.868 5.927,46.52 12.311,45.622 6.384,-0.898 8.9,-19.249 12.479,-49.106 1.384,-11.501 2.808,-23.388 4.537,-32.214 2.491,-12.667 4.688,-13.936 5.296,-14.021 0.617,-0.086 2.802,0.566 5.245,12.54 1.699,8.345 3.087,19.836 4.419,30.956 3.469,28.868 5.927,46.519 12.312,45.622 6.384,-0.897 8.9,-19.248 12.479,-49.115 1.383,-11.492 2.807,-23.379 4.545,-32.207 2.482,-12.666 4.679,-13.935 5.287,-14.02 0.617,-0.086 2.81,0.564 5.246,12.54 1.706,8.344 3.086,19.836 4.427,30.946 3.469,28.876 5.918,46.529 12.302,45.632 6.393,-0.898 8.909,-19.25 12.488,-49.116 1.383,-11.492 2.807,-23.379 4.537,-32.206 2.49,-12.667 4.687,-13.936 5.295,-14.021 0.617,-0.087 2.803,0.565 5.246,12.54 1.706,8.344 3.086,19.836 4.419,30.956 3.477,28.866 5.926,46.519 12.31,45.622 6.385,-0.897 8.91,-19.249 12.489,-49.107 1.382,-11.501 2.806,-23.388 4.545,-32.215 2.481,-12.667 4.678,-13.935 5.295,-14.021 0.608,-0.085 2.802,0.566 5.246,12.54 1.697,8.345 3.086,19.837 4.418,30.956 3.47,28.868 5.927,46.519 12.311,45.622 l 0.006,-2.879 c -0.617,0.087 -2.802,-0.566 -5.246,-12.532 -1.706,-8.352 -3.085,-19.844 -4.418,-30.955 -3.478,-28.889 -5.927,-46.541 -12.311,-45.644"
                   id="path1488"
                   style="fill:#ffffff" />
              </g>
            </g>
          </g>
        </g>
      </g>
    </g>
  </g>
  <text
     xml:space="preserve"
     style="font-style:italic;font-variant:normal;font-weight:normal;font-stretch:normal;font-size:32px;line-height:1.25;font-family:serif;-inkscape-font-specification:'serif Italic';stroke-width:1;fill:#ffffff"
     x="975.60394"
     y="250.21002"
     id="text38072-5"><tspan
       id="tspan38070-3"
       style="font-style:italic;font-variant:normal;font-weight:normal;font-stretch:normal;font-size:32px;font-family:serif;-inkscape-font-specification:'serif Italic';stroke-width:1;fill:#ffffff"
       x="975.60394"
       y="250.21002">I<tspan
   style="font-size:65%;baseline-shift:sub;fill:#ffffff"
   id="tspan107616">2</tspan> = 0</tspan></text>
  <text
     xml:space="preserve"
     style="font-style:italic;font-variant:normal;font-weight:normal;font-stretch:normal;font-size:32px;line-height:1.25;font-family:serif;-inkscape-font-specification:'serif Italic';stroke-width:1;fill:#ffffff"
     x="538.54114"
     y="65.122414"
     id="text38072"><tspan
       id="tspan38070"
       style="font-style:italic;font-variant:normal;font-weight:normal;font-stretch:normal;font-size:32px;font-family:serif;-inkscape-font-specification:'serif Italic';stroke-width:1;fill:#ffffff"
       x="538.54114"
       y="65.122414">I<tspan
   style="font-size:20.8px;baseline-shift:sub;stroke-width:1;fill:#ffffff"
   id="tspan88181">1</tspan> = I<tspan
   style="font-size:20.8px;baseline-shift:sub;stroke-width:1;fill:#ffffff"
   id="tspan92545">0</tspan>  0,5</tspan></text>
  <text
     xml:space="preserve"
     style="font-size:32px;line-height:1.25;font-family:sans-serif;word-spacing:0px;fill:#ffffff"
     x="553.90753"
     y="28.716164"
     id="text22233"><tspan
       sodipodi:role="line"
       id="tspan22231"
       x="553.90753"
       y="28.716164">Intensity:</tspan></text>
  <text
     xml:space="preserve"
     style="font-style:italic;font-variant:normal;font-weight:normal;font-stretch:normal;font-size:32px;line-height:1.25;font-family:serif;-inkscape-font-specification:'serif Italic';stroke-width:1;fill:#ffffff"
     x="251.80029"
     y="193.59265"
     id="text38072-3"><tspan
       id="tspan38070-6"
       style="font-style:italic;font-variant:normal;font-weight:normal;font-stretch:normal;font-size:32px;font-family:serif;-inkscape-font-specification:'serif Italic';stroke-width:1;fill:#ffffff"
       x="251.80029"
       y="193.59265">I<tspan
   style="font-size:20.8px;baseline-shift:sub;stroke-width:1;fill:#ffffff"
   id="tspan98163">0</tspan></tspan></text>
  <text
     xml:space="preserve"
     style="font-size:32px;line-height:1.25;font-family:sans-serif;word-spacing:0px;fill:#ffffff"
     x="190.38756"
     y="163.60828"
     id="text22233-3"><tspan
       sodipodi:role="line"
       id="tspan22231-6"
       x="190.38756"
       y="163.60828">Intensity:</tspan></text>
  <text
     xml:space="preserve"
     style="font-size:32px;line-height:1.25;font-family:sans-serif;word-spacing:0px;fill:#ffffff"
     x="947.65967"
     y="219.80377"
     id="text22233-3-2"><tspan
       sodipodi:role="line"
       id="tspan22231-6-0"
       x="947.65967"
       y="219.80377">Intensity:</tspan></text>
  <text
     xml:space="preserve"
     style="font-size:32px;line-height:1.25;font-family:sans-serif;word-spacing:0px;fill:#ffffff"
     x="99.68882"
     y="393.27594"
     id="text22233-35"><tspan
       sodipodi:role="line"
       id="tspan22231-62"
       x="99.68882"
       y="393.27594"
       style="text-align:center;text-anchor:middle;fill:#ffffff">Unpolarized</tspan><tspan
       sodipodi:role="line"
       x="99.68882"
       y="433.27594"
       id="tspan40812"
       style="text-align:center;text-anchor:middle;fill:#ffffff">light</tspan></text>
  <text
     xml:space="preserve"
     style="font-size:32px;line-height:1.25;font-family:sans-serif;word-spacing:0px;fill:#ffffff"
     x="440.2825"
     y="372.29254"
     id="text22233-35-9"><tspan
       sodipodi:role="line"
       x="440.2825"
       y="372.29254"
       id="tspan40812-2"
       style="text-align:center;text-anchor:middle;fill:#ffffff">Polarization filter</tspan><tspan
       sodipodi:role="line"
       x="440.2825"
       y="412.29254"
       style="text-align:center;text-anchor:middle;fill:#ffffff"
       id="tspan45221">with vertical</tspan><tspan
       sodipodi:role="line"
       x="440.2825"
       y="452.29254"
       style="text-align:center;text-anchor:middle;fill:#ffffff"
       id="tspan45223">polarization axis</tspan></text>
  <text
     xml:space="preserve"
     style="font-size:32px;line-height:1.25;font-family:sans-serif;word-spacing:0px;fill:#ffffff"
     x="851.91675"
     y="328.87955"
     id="text22233-35-9-1"><tspan
       sodipodi:role="line"
       x="851.91675"
       y="328.87955"
       id="tspan40812-2-8"
       style="text-align:center;text-anchor:middle;fill:#ffffff">Polarization filter</tspan><tspan
       sodipodi:role="line"
       x="851.91675"
       y="368.87955"
       style="text-align:center;text-anchor:middle;fill:#ffffff"
       id="tspan45221-7">with horizontal</tspan><tspan
       sodipodi:role="line"
       x="851.91675"
       y="408.87955"
       style="text-align:center;text-anchor:middle;fill:#ffffff"
       id="tspan45223-9">polarization axis</tspan></text>
</svg>
