<?xml version="1.0" encoding="UTF-8" standalone="no"?>
<!-- Created with Inkscape (http://www.inkscape.org/) -->

<svg
   width="1164"
   height="464"
   viewBox="0 0 1164 464"
   version="1.1"
   id="svg8"
   sodipodi:docname="parallel-polarization-filters.svg"
   inkscape:version="1.1.2 (0a00cf5339, 2022-02-04)"
   xmlns:inkscape="http://www.inkscape.org/namespaces/inkscape"
   xmlns:sodipodi="http://sodipodi.sourceforge.net/DTD/sodipodi-0.dtd"
   xmlns:xlink="http://www.w3.org/1999/xlink"
   xmlns="http://www.w3.org/2000/svg"
   xmlns:svg="http://www.w3.org/2000/svg"
   xmlns:rdf="http://www.w3.org/1999/02/22-rdf-syntax-ns#"
   xmlns:cc="http://creativecommons.org/ns#"
   xmlns:dc="http://purl.org/dc/elements/1.1/">
  <sodipodi:namedview
     id="namedview424"
     pagecolor="#ffffff"
     bordercolor="#666666"
     borderopacity="1.0"
     inkscape:pageshadow="2"
     inkscape:pageopacity="0.0"
     inkscape:pagecheckerboard="true"
     showgrid="false"
     inkscape:zoom="1.3858435"
     inkscape:cx="725.55091"
     inkscape:cy="84.425118"
     inkscape:window-width="2520"
     inkscape:window-height="1412"
     inkscape:window-x="40"
     inkscape:window-y="212"
     inkscape:window-maximized="1"
     inkscape:current-layer="svg8" />
  <defs
     id="defs2">
    <polygon
       id="SVGID_1_"
       enable-background="new    "
       points="436.676,339.047 436.564,69.757 534.822,143.794 534.934,413.084 " />
    <polygon
       id="SVGID_3_"
       enable-background="new    "
       points="859.676,280.052 859.564,10.754 957.822,84.791 957.934,354.089 " />
    <polygon
       id="SVGID_5_"
       enable-background="new    "
       points="682.647,212.987 682.604,106.485 696.568,117.008 696.612,223.51 " />
    <polygon
       id="SVGID_7_"
       enable-background="new    "
       points="99.712,282.629 1227.344,124.127 1227.285,155.375 99.654,313.877 " />
    <polygon
       id="SVGID_11_"
       enable-background="new    "
       points="162.537,390.33 162.495,283.83 178.205,295.669 178.248,402.169 " />
    <polygon
       id="SVGID_13_"
       enable-background="new    "
       points="164.793,279.334 164.751,172.834 180.458,184.671 180.501,291.17 " />
    <polygon
       id="SVGID_15_"
       enable-background="new    "
       points="144.163,270.257 144.13,193.341 172.262,214.538 172.294,291.454 " />
    <polygon
       id="SVGID_17_"
       enable-background="new    "
       points="170.83,359.394 170.797,282.477 198.929,303.674 198.961,380.591 " />
    <polygon
       id="SVGID_19_"
       enable-background="new    "
       points="171.962,287.281 171.93,210.183 199.992,231.328 200.024,308.426 " />
    <polygon
       id="SVGID_21_"
       enable-background="new    "
       points="143.099,343.611 143.067,266.514 171.129,287.658 171.161,364.756 " />
    <polygon
       id="SVGID_23_"
       enable-background="new    "
       points="131.076,279.015 131.059,235.959 169.922,265.244 169.939,308.3 " />
    <polygon
       id="SVGID_25_"
       enable-background="new    "
       points="172.077,308.76 172.06,265.704 210.92,294.987 210.937,338.043 " />
    <polygon
       id="SVGID_24_"
       enable-background="new    "
       points="1033.791,158.33 1033.747,51.828 1049.457,63.666 1049.502,170.167 " />
    <polygon
       id="SVGID_27_"
       enable-background="new    "
       points="487.855,191.903 864.324,138.986 864.146,234.095 487.676,287.013 " />
    <polygon
       id="SVGID_29_"
       enable-background="new    "
       points="797.851,148.406 1174.32,95.489 1174.143,190.598 797.672,243.516 " />
  </defs>
  <metadata
     id="metadata5">
    <rdf:RDF>
      <cc:Work
         rdf:about="">
        <dc:format>image/svg+xml</dc:format>
        <dc:type
           rdf:resource="http://purl.org/dc/dcmitype/StillImage" />
      </cc:Work>
    </rdf:RDF>
  </metadata>
  <g
     id="g879"
     transform="translate(-65.224,-35.726749)">
    <g
       enable-background="new    "
       id="g877">
      <defs
         id="defs828">
        <polygon
           id="polygon1546"
           enable-background="new    "
           points="534.822,143.794 534.934,413.084 436.676,339.047 436.564,69.757 " />
      </defs>
      <clipPath
         id="SVGID_2_">
        <use
           xlink:href="#SVGID_1_"
           overflow="visible"
           id="use830"
           x="0"
           y="0"
           width="100%"
           height="100%" />
      </clipPath>
      <g
         clip-path="url(#SVGID_2_)"
         id="g875">
        <g
           id="g873">
          <g
             id="g871">
            <g
               id="g869">
              <path
                 fill="#ffffff"
                 d="m 488.555,361.114 16.471,12.41 c -5.559,2.664 -11.692,2.02 -18.141,-2.438 l 1.67,-9.972 m -21.985,-16.566 17.695,13.334 1.683,12.532 c -0.049,-0.036 -0.097,-0.071 -0.146,-0.108 -6.845,-5.159 -13.357,-14.096 -19.232,-25.758 m 20.358,-3.843 29.191,21.996 c -2.724,4.267 -5.711,7.497 -8.914,9.591 l -18.223,-13.731 1.69,-10.095 -3.741,3.138 -0.003,-10.899 m -31.469,-23.711 30.418,22.921 0.005,10.902 -3.746,-8.783 1.699,12.649 -19.448,-14.654 c -3.205,-6.923 -6.198,-14.659 -8.928,-23.035 m 31.461,4.515 35.931,27.074 c -1.67,4.604 -3.521,8.666 -5.53,12.141 l -30.394,-22.902 -0.007,-16.313 m -38.208,-28.789 37.158,27.999 0.007,16.312 -31.621,-23.826 c -2.013,-6.506 -3.869,-13.361 -5.544,-20.485 m 38.199,9.6 40.469,30.493 c -1.098,4.875 -2.348,9.381 -3.733,13.494 l -36.729,-27.675 -0.007,-16.312 m -42.745,-32.208 41.696,31.418 0.007,16.313 -37.956,-28.6 c -1.391,-6.206 -2.644,-12.598 -3.747,-19.131 m 42.737,13.021 43.469,32.754 c -0.685,5.102 -1.506,9.926 -2.456,14.456 l -41.006,-30.897 -0.007,-16.313 m -45.746,-34.47 44.697,33.679 0.007,16.313 -42.234,-31.823 c -0.954,-5.965 -1.78,-12.031 -2.47,-18.169 m 45.739,15.281 45.225,34.077 c -0.343,5.305 -0.816,10.395 -1.411,15.243 l -43.807,-33.008 -0.007,-16.312 m -47.503,-35.793 46.454,35.003 0.007,16.313 -45.036,-33.935 c -0.599,-5.748 -1.078,-11.556 -1.425,-17.381 m 47.494,15.638 45.887,34.575 c -0.022,5.839 -0.188,11.479 -0.487,16.898 l -45.392,-34.202 -0.008,-17.271 m -48.164,-36.291 47.115,35.501 0.007,17.271 -46.62,-35.128 c -0.305,-5.876 -0.475,-11.768 -0.502,-17.644 m 48.156,17.103 45.449,34.246 c 0.271,5.543 0.421,11.101 0.444,16.643 l -45.887,-34.576 -0.006,-16.313 m -47.727,-35.962 46.678,35.171 0.007,16.313 -47.116,-35.502 c 0.019,-5.51 0.165,-10.844 0.431,-15.982 m 47.719,16.774 43.931,33.102 c 0.58,5.739 1.039,11.528 1.368,17.339 l -45.292,-34.128 -0.007,-16.313 m -46.208,-34.818 45.159,34.027 0.007,16.313 -46.521,-35.054 c 0.324,-5.318 0.779,-10.418 1.355,-15.286 m 46.2,15.63 41.205,31.048 c 0.932,5.95 1.736,12.002 2.404,18.119 l -43.603,-32.854 -0.006,-16.313 m -43.483,-32.765 42.434,31.974 0.007,16.313 -44.831,-33.781 c 0.662,-5.113 1.463,-9.955 2.39,-14.506 m 43.475,13.577 37.024,27.897 c 1.36,6.186 2.586,12.557 3.661,19.058 l -40.679,-30.651 -0.006,-16.304 m -39.301,-29.614 38.252,28.823 0.007,16.304 -41.907,-31.577 c 1.07,-4.884 2.291,-9.412 3.648,-13.55 m 39.294,10.417 30.834,23.233 c 1.968,6.485 3.78,13.308 5.415,20.388 l -36.243,-27.309 -0.006,-16.312 m -33.111,-24.948 32.061,24.158 0.007,16.313 -37.47,-28.234 c 1.629,-4.622 3.437,-8.716 5.402,-12.237 m 35.294,7.412 18.853,14.206 c 3.099,6.892 5.992,14.554 8.628,22.808 l -29.666,-22.353 -0.005,-11.866 3.746,8.779 -1.556,-11.574 m -25.512,-19.224 20.078,15.129 -1.546,9.237 3.741,-3.142 0.005,11.87 -30.893,-23.277 c 2.631,-4.286 5.52,-7.591 8.615,-9.817 m 23.236,2.287 c 6.8,5.538 13.251,14.785 19.054,26.703 l -17.207,-12.965 -1.847,-13.738 m -1.06,-0.831 c 0.057,0.043 0.111,0.085 0.169,0.128 l -1.84,10.992 -18.433,-13.888 c 6.098,-3.344 12.914,-2.65 20.104,2.768"
                 id="path833" />
              <path
                 fill="#0000ff"
                 d="m 486.755,113.367 -0.449,-3.341 -0.441,2.638 c -0.058,-0.043 -0.112,-0.085 -0.169,-0.128 -7.19,-5.418 -14.006,-6.112 -20.104,-2.768 l -3.262,-2.458 0.001,2.875 1.188,0.895 c -3.095,2.226 -5.983,5.531 -8.615,9.816 l -2.018,-1.521 10e-4,2.875 0.85,0.641 c -1.964,3.521 -3.772,7.616 -5.402,12.237 l -1.743,-1.313 0.001,2.884 0.961,0.724 c -1.356,4.138 -2.578,8.666 -3.648,13.55 l -1.506,-1.135 0.001,2.884 0.979,0.738 c -0.927,4.55 -1.728,9.392 -2.391,14.506 l -1.383,-1.042 0.001,2.876 1.056,0.795 c -0.576,4.868 -1.031,9.968 -1.355,15.286 l -1.445,-1.089 10e-4,2.875 1.289,0.971 c -0.266,5.138 -0.413,10.472 -0.432,15.982 l -1.2,-0.904 10e-4,2.875 1.201,0.905 c 0.027,5.876 0.197,11.769 0.502,17.644 l -1.346,-1.014 10e-4,2.884 1.512,1.14 c 0.348,5.825 0.826,11.632 1.425,17.381 l -1.179,-0.889 0.001,2.876 1.517,1.144 c 0.689,6.138 1.516,12.204 2.47,18.168 l -1.179,-0.889 10e-4,2.876 1.717,1.294 c 1.103,6.532 2.356,12.925 3.748,19.131 l -1.257,-0.947 10e-4,2.876 2.055,1.548 c 1.675,7.124 3.531,13.979 5.544,20.484 l -1.29,-0.972 10e-4,2.884 2.492,1.878 c 2.729,8.376 5.722,16.112 8.928,23.035 l -1.961,-1.478 0.001,2.875 4.143,3.121 c 5.875,11.662 12.387,20.6 19.232,25.758 0.049,0.037 0.097,0.072 0.146,0.108 l 0.467,3.479 0.47,-2.806 c 6.448,4.457 12.582,5.102 18.141,2.438 l 3.617,2.725 -0.002,-2.875 -1.436,-1.082 c 3.203,-2.094 6.19,-5.324 8.914,-9.591 l 2.317,1.746 -0.001,-2.884 -1.115,-0.84 c 2.009,-3.475 3.86,-7.537 5.53,-12.141 l 1.88,1.416 -10e-4,-2.876 -1.083,-0.815 c 1.386,-4.113 2.636,-8.619 3.733,-13.494 l 1.543,1.162 -0.002,-2.875 -1.005,-0.758 c 0.95,-4.53 1.771,-9.354 2.456,-14.456 l 1.344,1.012 -10e-4,-2.876 -1.006,-0.758 c 0.595,-4.849 1.068,-9.938 1.411,-15.243 l 0.989,0.745 -10e-4,-2.884 -0.822,-0.62 c 0.3,-5.42 0.465,-11.06 0.487,-16.898 l 1.027,0.774 -10e-4,-2.876 -1.027,-0.773 c -0.023,-5.542 -0.174,-11.1 -0.444,-16.643 l 0.766,0.577 -0.002,-2.876 -0.922,-0.694 c -0.329,-5.811 -0.788,-11.6 -1.368,-17.339 l 0.882,0.665 -0.002,-2.876 -1.209,-0.911 c -0.668,-6.117 -1.473,-12.168 -2.404,-18.119 l 0.806,0.607 -10e-4,-2.884 -1.332,-1.004 c -1.075,-6.5 -2.301,-12.872 -3.661,-19.058 l 0.786,0.593 -0.001,-2.884 -1.568,-1.182 c -1.635,-7.08 -3.447,-13.903 -5.415,-20.388 l 0.675,0.508 -0.002,-2.875 -1.843,-1.389 c -2.636,-8.254 -5.529,-15.917 -8.628,-22.808 l 0.662,0.498 -10e-4,-2.875 -2.736,-2.062 c -5.803,-11.917 -12.254,-21.164 -19.054,-26.702 m -1.062,-6.591 c 27.088,20.411 49.153,97.416 49.185,171.664 0.032,74.248 -21.984,118.037 -49.073,97.626 -27.091,-20.413 -49.154,-97.415 -49.185,-171.663 -0.031,-74.248 21.982,-118.04 49.073,-97.627"
                 id="path835" />
              <path
                 fill="#0000ff"
                 d="m 486.878,221.726 45.292,34.128 0.922,0.694 0.002,2.876 -0.766,-0.577 -45.449,-34.246 -0.001,-2.875 m -49.016,-36.934 1.445,1.089 46.521,35.054 0.001,2.875 -46.678,-35.171 -1.289,-0.971 v -2.876"
                 id="path837" />
              <path
                 fill="#0000ff"
                 d="m 486.886,240.914 45.887,34.576 1.027,0.773 0.001,2.876 -1.027,-0.774 -45.887,-34.575 -10e-4,-2.876 m -49.365,-37.197 1.2,0.904 47.116,35.502 0.001,2.876 -47.115,-35.501 -1.201,-0.905 -10e-4,-2.876"
                 id="path839" />
              <path
                 fill="#0000ff"
                 d="m 486.87,202.538 43.603,32.854 1.209,0.911 0.002,2.876 -0.882,-0.665 -43.931,-33.102 -10e-4,-2.874 m -47.264,-35.614 1.383,1.042 44.831,33.781 0.002,2.875 -45.159,-34.027 -1.056,-0.795 -0.001,-2.876"
                 id="path841" />
              <path
                 fill="#0000ff"
                 d="m 486.862,183.341 40.679,30.651 1.332,1.004 10e-4,2.884 -0.806,-0.607 -41.205,-31.048 -10e-4,-2.884 m -44.463,-33.503 1.506,1.135 41.907,31.577 10e-4,2.884 -42.433,-31.974 -0.979,-0.738 -0.002,-2.884"
                 id="path843" />
              <path
                 fill="#0000ff"
                 d="m 486.854,164.153 36.243,27.309 1.568,1.182 0.001,2.884 -0.786,-0.593 -37.024,-27.897 -0.002,-2.885 m -40.262,-30.338 1.743,1.313 37.47,28.234 10e-4,2.884 -38.252,-28.823 -0.961,-0.724 -0.001,-2.884"
                 id="path845" />
              <path
                 fill="#0000ff"
                 d="m 486.846,144.965 29.666,22.353 1.843,1.389 0.002,2.875 -0.675,-0.508 -30.834,-23.233 -0.002,-2.876 m -33.96,-25.59 2.018,1.521 30.893,23.277 10e-4,2.876 -32.061,-24.158 -0.85,-0.641 -10e-4,-2.875"
                 id="path847" />
              <path
                 fill="#0000ff"
                 d="m 488.602,127.105 17.207,12.965 2.736,2.062 10e-4,2.875 -0.662,-0.498 -18.853,-14.206 -0.429,-3.198 m -26.272,-19.795 3.262,2.458 18.433,13.888 -0.428,2.553 -20.078,-15.129 -1.188,-0.895 -0.001,-2.875"
                 id="path849" />
              <path
                 fill="#0000ff"
                 d="m 486.895,261.061 45.392,34.202 0.822,0.62 10e-4,2.884 -0.989,-0.745 -45.225,-34.077 -0.001,-2.884 m -49.016,-36.934 1.346,1.014 46.62,35.128 0.002,2.885 -46.454,-35.003 -1.512,-1.14 -0.002,-2.884"
                 id="path851" />
              <path
                 fill="#0000ff"
                 d="m 486.902,280.257 43.807,33.008 1.006,0.758 10e-4,2.876 -1.344,-1.012 -43.469,-32.754 -0.001,-2.876 m -47.263,-35.613 1.179,0.889 45.036,33.935 0.001,2.875 -44.697,-33.679 -1.517,-1.144 -0.002,-2.876"
                 id="path853" />
              <path
                 fill="#0000ff"
                 d="m 486.91,299.445 41.006,30.897 1.005,0.758 0.002,2.875 -1.543,-1.162 -40.469,-30.493 -10e-4,-2.875 m -44.462,-33.503 1.179,0.889 42.234,31.823 0.001,2.876 -41.696,-31.418 -1.717,-1.294 -0.001,-2.876"
                 id="path855" />
              <path
                 fill="#0000ff"
                 d="m 486.918,318.633 36.729,27.675 1.083,0.815 10e-4,2.876 -1.88,-1.416 -35.931,-27.074 -0.002,-2.876 m -40.262,-30.337 1.257,0.947 37.956,28.6 10e-4,2.876 -37.158,-27.999 -2.055,-1.548 -10e-4,-2.876"
                 id="path857" />
              <path
                 fill="#0000ff"
                 d="m 486.927,337.821 30.394,22.902 1.115,0.84 10e-4,2.884 -2.317,-1.746 -29.191,-21.996 -0.002,-2.884 m -33.961,-25.589 1.29,0.972 31.621,23.826 10e-4,2.885 -30.418,-22.921 -2.492,-1.878 -0.002,-2.884"
                 id="path859" />
              <path
                 fill="#0000ff"
                 d="m 488.982,358.561 18.223,13.731 1.436,1.082 0.002,2.875 -3.617,-2.725 -16.471,-12.41 0.427,-2.553 m -26.555,-20.009 1.961,1.478 19.448,14.654 0.43,3.198 -17.695,-13.334 -4.143,-3.121 -10e-4,-2.875"
                 id="path861" />
              <polyline
                 fill="#ff0000"
                 points="486.314,131.866 486.841,133.099 486.846,144.965 486.848,147.84 486.854,164.153          486.855,167.037 486.862,183.341 486.863,186.225 486.87,202.538 486.871,205.413 486.878,221.726 486.879,224.601          486.886,240.914 486.887,243.789 486.895,261.061 486.896,263.944 486.902,280.257 486.903,283.133 486.91,299.445          486.911,302.32 486.918,318.633 486.92,321.509 486.927,337.821 486.928,340.705 486.932,351.604 486.406,352.045          485.883,350.817 485.878,339.915 485.877,337.03 485.87,320.719 485.869,317.843 485.862,301.53 485.861,298.654          485.854,282.342 485.854,279.467 485.847,263.154 485.845,260.27 485.838,242.999 485.837,240.123 485.83,223.811          485.829,220.935 485.822,204.623 485.82,201.747 485.813,185.435 485.813,182.55 485.806,166.246 485.805,163.362          485.798,147.05 485.797,144.174 485.792,132.304 486.314,131.866        "
                 id="polyline863" />
              <polyline
                 fill="#ff0000"
                 points="486.306,110.026 486.755,113.367 488.602,127.105 489.031,130.304 490.587,141.878          486.841,133.099 486.314,131.866 485.792,132.304 482.051,135.446 483.597,126.209 484.024,123.656 485.864,112.665          486.306,110.026        "
                 id="polyline865" />
              <polyline
                 fill="#ff0000"
                 points="482.137,342.034 485.883,350.817 486.406,352.045 486.932,351.604 490.673,348.466          488.982,358.561 488.555,361.114 486.885,371.087 486.415,373.893 485.948,370.414 484.266,357.882 483.836,354.684          482.137,342.034        "
                 id="polyline867" />
            </g>
          </g>
        </g>
      </g>
    </g>
  </g>
  <g
     id="g935"
     transform="translate(-65.224,-35.726749)">
    <g
       enable-background="new    "
       id="g933">
      <defs
         id="defs884">
        <polygon
           id="polygon1576"
           enable-background="new    "
           points="957.822,84.791 957.934,354.089 859.676,280.052 859.564,10.754 " />
      </defs>
      <clipPath
         id="SVGID_4_">
        <use
           xlink:href="#SVGID_3_"
           overflow="visible"
           id="use886"
           x="0"
           y="0"
           width="100%"
           height="100%" />
      </clipPath>
      <g
         clip-path="url(#SVGID_4_)"
         id="g931">
        <g
           id="g929">
          <g
             id="g927">
            <g
               id="g925">
              <path
                 fill="#ffffff"
                 d="m 911.556,302.11 16.476,12.415 c -5.562,2.67 -11.694,2.027 -18.147,-2.435 l 1.671,-9.98 m -21.992,-16.57 17.7,13.337 1.685,12.543 c -0.049,-0.037 -0.098,-0.072 -0.146,-0.109 -6.849,-5.161 -13.362,-14.1 -19.239,-25.771 m 20.364,-3.838 29.193,21.997 c -2.722,4.264 -5.711,7.498 -8.911,9.593 l -18.227,-13.733 1.689,-10.088 -3.741,3.131 -0.003,-10.9 m -31.471,-23.713 30.421,22.922 0.005,10.903 -3.746,-8.775 1.698,12.64 -19.452,-14.657 c -3.203,-6.919 -6.198,-14.664 -8.926,-23.033 m 31.463,4.525 35.929,27.072 c -1.67,4.604 -3.521,8.667 -5.529,12.141 l -30.393,-22.9 -0.007,-16.313 m -38.206,-28.788 37.156,27.997 0.007,16.313 -31.62,-23.825 c -2.013,-6.506 -3.868,-13.36 -5.543,-20.485 m 38.197,9.599 40.468,30.492 c -1.098,4.871 -2.349,9.384 -3.734,13.494 l -36.727,-27.674 -0.007,-16.312 m -42.744,-32.207 41.695,31.417 0.007,16.313 -37.954,-28.599 c -1.39,-6.201 -2.645,-12.603 -3.748,-19.131 m 42.736,13.011 43.469,32.754 c -0.685,5.103 -1.506,9.926 -2.455,14.457 l -41.007,-30.898 -0.007,-16.313 m -45.746,-34.47 44.697,33.679 0.007,16.313 -42.234,-31.824 c -0.954,-5.965 -1.78,-12.03 -2.47,-18.168 m 45.739,15.282 45.226,34.077 c -0.344,5.304 -0.817,10.394 -1.412,15.244 l -43.807,-33.008 -0.007,-16.313 m -47.503,-35.794 46.454,35.003 0.007,16.312 -45.035,-33.934 c -0.6,-5.749 -1.079,-11.556 -1.426,-17.381 m 47.494,15.647 45.887,34.575 c -0.022,5.839 -0.188,11.479 -0.488,16.898 l -45.391,-34.203 -0.008,-17.27 m -48.164,-36.292 47.115,35.501 0.007,17.271 -46.62,-35.128 c -0.305,-5.875 -0.475,-11.767 -0.502,-17.644 m 48.156,17.104 45.449,34.246 c 0.271,5.546 0.422,11.097 0.445,16.642 l -45.888,-34.576 -0.006,-16.312 m -47.727,-35.962 46.678,35.172 0.007,16.313 -47.116,-35.502 c 0.018,-5.515 0.165,-10.842 0.431,-15.983 m 47.719,16.765 43.93,33.101 c 0.581,5.74 1.04,11.53 1.369,17.339 l -45.292,-34.128 -0.007,-16.312 m -46.208,-34.817 45.159,34.027 0.006,16.313 -46.521,-35.053 c 0.325,-5.318 0.78,-10.42 1.356,-15.287 m 46.2,15.629 41.205,31.048 c 0.931,5.95 1.736,12.002 2.404,18.119 l -43.603,-32.854 -0.006,-16.313 m -43.482,-32.764 42.433,31.974 0.007,16.313 -44.831,-33.78 c 0.663,-5.114 1.464,-9.957 2.391,-14.507 m 43.474,13.576 37.023,27.897 c 1.361,6.189 2.588,12.563 3.663,19.067 l -40.68,-30.652 -0.006,-16.312 m -39.3,-29.613 38.251,28.822 0.007,16.312 -41.907,-31.577 c 1.07,-4.887 2.291,-9.416 3.649,-13.557 m 39.292,10.425 30.837,23.235 c 1.968,6.486 3.78,13.307 5.414,20.387 l -36.244,-27.31 -0.007,-16.312 m -33.113,-24.95 32.063,24.16 0.007,16.313 -37.472,-28.235 c 1.631,-4.623 3.439,-8.716 5.402,-12.238 m 35.297,7.414 18.857,14.209 c 3.097,6.89 5.987,14.544 8.622,22.795 L 909.845,85.96 909.84,74.104 l 3.746,8.779 -1.555,-11.574 m -25.517,-19.228 20.083,15.133 -1.546,9.238 3.741,-3.143 0.005,11.861 -30.892,-23.277 c 2.63,-4.283 5.516,-7.585 8.609,-9.812 m 23.24,2.282 c 6.799,5.538 13.252,14.788 19.053,26.703 L 911.601,68.101 909.754,54.363 m -1.059,-0.831 c 0.057,0.043 0.111,0.085 0.169,0.129 l -1.84,10.992 -18.431,-13.888 c 6.096,-3.342 12.913,-2.65 20.102,2.767"
                 id="path889" />
              <path
                 fill="#0000ff"
                 d="m 909.754,54.363 -0.448,-3.34 -0.441,2.639 c -0.058,-0.044 -0.112,-0.086 -0.169,-0.129 -7.189,-5.417 -14.006,-6.109 -20.102,-2.767 l -3.264,-2.459 10e-4,2.884 1.183,0.891 c -3.093,2.227 -5.979,5.529 -8.608,9.813 l -2.02,-1.521 10e-4,2.884 0.848,0.639 c -1.964,3.522 -3.771,7.616 -5.401,12.237 l -1.741,-1.312 0.001,2.876 0.962,0.725 c -1.357,4.14 -2.579,8.669 -3.649,13.557 l -1.506,-1.134 0.001,2.875 0.98,0.738 c -0.927,4.55 -1.728,9.393 -2.392,14.506 l -1.383,-1.042 10e-4,2.875 1.056,0.795 c -0.576,4.868 -1.031,9.969 -1.355,15.286 l -1.445,-1.089 10e-4,2.884 1.289,0.971 c -0.267,5.142 -0.413,10.468 -0.432,15.982 l -1.2,-0.904 10e-4,2.876 1.201,0.905 c 0.027,5.876 0.197,11.769 0.502,17.644 l -1.346,-1.015 10e-4,2.876 1.513,1.14 c 0.348,5.825 0.826,11.631 1.426,17.381 l -1.18,-0.889 10e-4,2.876 1.518,1.143 c 0.689,6.138 1.516,12.203 2.47,18.168 l -1.179,-0.888 10e-4,2.884 1.718,1.294 c 1.103,6.529 2.358,12.93 3.748,19.131 l -1.259,-0.949 10e-4,2.876 2.057,1.549 c 1.675,7.125 3.53,13.979 5.543,20.484 l -1.291,-0.973 0.001,2.875 2.49,1.877 c 2.728,8.369 5.723,16.113 8.926,23.032 l -1.956,-1.474 10e-4,2.876 4.137,3.116 c 5.877,11.671 12.39,20.61 19.238,25.771 0.049,0.037 0.098,0.072 0.146,0.109 l 0.466,3.469 0.469,-2.798 c 6.453,4.462 12.586,5.104 18.147,2.435 l 3.61,2.721 -10e-4,-2.876 -1.431,-1.078 c 3.2,-2.095 6.189,-5.329 8.911,-9.593 l 2.315,1.744 -10e-4,-2.875 -1.116,-0.842 c 2.009,-3.474 3.859,-7.536 5.529,-12.141 l 1.882,1.418 -10e-4,-2.876 -1.085,-0.816 c 1.386,-4.11 2.637,-8.623 3.734,-13.494 l 1.544,1.163 -0.002,-2.884 -1.004,-0.757 c 0.949,-4.531 1.771,-9.354 2.455,-14.457 l 1.344,1.012 -10e-4,-2.875 -1.006,-0.758 c 0.595,-4.85 1.068,-9.939 1.412,-15.244 l 0.988,0.745 -0.001,-2.875 -0.823,-0.62 c 0.301,-5.419 0.466,-11.059 0.488,-16.898 l 1.027,0.774 -10e-4,-2.875 -1.026,-0.774 c -0.023,-5.545 -0.174,-11.096 -0.445,-16.642 l 0.766,0.576 -0.002,-2.884 -0.922,-0.694 c -0.329,-5.81 -0.788,-11.6 -1.369,-17.339 l 0.883,0.665 -0.002,-2.875 -1.209,-0.912 c -0.668,-6.117 -1.474,-12.169 -2.404,-18.119 l 0.806,0.607 -10e-4,-2.875 -1.331,-1.003 c -1.075,-6.504 -2.302,-12.878 -3.663,-19.067 l 0.787,0.593 -10e-4,-2.875 -1.567,-1.181 c -1.634,-7.081 -3.446,-13.901 -5.414,-20.387 l 0.673,0.507 -0.002,-2.884 -1.844,-1.39 c -2.635,-8.251 -5.525,-15.905 -8.622,-22.795 l 0.657,0.495 -10e-4,-2.884 -2.738,-2.063 C 923.006,69.151 916.553,59.9 909.754,54.363 m -1.061,-6.591 c 27.088,20.411 49.153,97.424 49.185,171.663 0.031,74.248 -21.984,118.046 -49.073,97.635 C 881.714,296.657 859.652,219.646 859.62,145.398 859.589,71.159 881.602,27.359 908.693,47.772"
                 id="path891" />
              <path
                 fill="#0000ff"
                 d="m 909.878,162.722 45.292,34.128 0.922,0.694 0.002,2.884 -0.766,-0.576 -45.449,-34.246 -10e-4,-2.884 m -49.016,-36.933 1.445,1.089 46.521,35.053 0.002,2.884 -46.678,-35.172 -1.289,-0.971 -0.001,-2.883"
                 id="path893" />
              <path
                 fill="#0000ff"
                 d="m 909.886,181.918 45.888,34.576 1.026,0.774 0.001,2.875 -1.027,-0.774 -45.887,-34.575 -10e-4,-2.876 m -49.365,-37.196 1.2,0.904 47.116,35.502 10e-4,2.875 -47.115,-35.501 -1.201,-0.905 -0.001,-2.875"
                 id="path895" />
              <path
                 fill="#0000ff"
                 d="m 909.87,143.534 43.603,32.854 1.209,0.912 0.002,2.875 -0.883,-0.665 -43.93,-33.101 -10e-4,-2.875 m -47.264,-35.613 1.383,1.042 44.831,33.78 0.002,2.875 -45.159,-34.027 -1.056,-0.795 -10e-4,-2.875"
                 id="path897" />
              <path
                 fill="#0000ff"
                 d="m 909.862,124.346 40.68,30.652 1.331,1.003 10e-4,2.875 -0.806,-0.607 -41.205,-31.048 -0.001,-2.875 m -44.463,-33.503 1.506,1.134 41.907,31.577 10e-4,2.876 -42.433,-31.974 -0.98,-0.738 -10e-4,-2.875"
                 id="path899" />
              <path
                 fill="#0000ff"
                 d="m 909.854,105.157 36.244,27.31 1.567,1.181 0.001,2.875 -0.787,-0.593 -37.023,-27.897 -0.002,-2.876 m -40.262,-30.337 1.741,1.312 37.472,28.235 0.001,2.876 -38.251,-28.823 -0.962,-0.725 -10e-4,-2.875"
                 id="path901" />
              <path
                 fill="#0000ff"
                 d="m 909.846,85.961 29.665,22.353 1.844,1.39 0.002,2.884 -0.673,-0.507 -30.837,-23.235 -10e-4,-2.885 m -33.96,-25.589 2.02,1.521 30.892,23.277 10e-4,2.884 -32.063,-24.16 -0.848,-0.639 -0.002,-2.883"
                 id="path903" />
              <path
                 fill="#0000ff"
                 d="m 911.601,68.101 17.206,12.965 2.738,2.063 0.001,2.884 -0.657,-0.495 -18.857,-14.209 -0.431,-3.208 m -26.271,-19.795 3.264,2.459 18.431,13.888 -0.428,2.561 -20.083,-15.133 -1.183,-0.891 -10e-4,-2.884"
                 id="path905" />
              <path
                 fill="#0000ff"
                 d="m 909.895,202.065 45.391,34.203 0.823,0.62 10e-4,2.875 -0.988,-0.745 -45.226,-34.077 -10e-4,-2.876 m -49.016,-36.933 1.346,1.015 46.62,35.128 0.002,2.876 -46.454,-35.003 -1.513,-1.14 -10e-4,-2.876"
                 id="path907" />
              <path
                 fill="#0000ff"
                 d="m 909.902,221.253 43.807,33.008 1.006,0.758 10e-4,2.875 -1.344,-1.012 -43.469,-32.754 -10e-4,-2.875 m -47.263,-35.613 1.18,0.889 45.035,33.934 10e-4,2.876 -44.697,-33.679 -1.518,-1.143 -10e-4,-2.877"
                 id="path909" />
              <path
                 fill="#0000ff"
                 d="m 909.91,240.441 41.007,30.898 1.004,0.757 0.002,2.884 -1.544,-1.163 -40.468,-30.492 -10e-4,-2.884 m -44.462,-33.502 1.179,0.888 42.234,31.824 10e-4,2.884 -41.695,-31.417 -1.718,-1.294 -10e-4,-2.885"
                 id="path911" />
              <path
                 fill="#0000ff"
                 d="m 909.918,259.638 36.727,27.674 1.085,0.816 10e-4,2.876 -1.882,-1.418 -35.929,-27.072 -0.002,-2.876 m -40.262,-30.338 1.259,0.949 37.954,28.599 10e-4,2.875 -37.156,-27.997 -2.057,-1.549 -0.001,-2.877"
                 id="path913" />
              <path
                 fill="#0000ff"
                 d="m 909.927,278.826 30.393,22.9 1.116,0.842 10e-4,2.875 -2.315,-1.744 -29.193,-21.997 -0.002,-2.876 m -33.961,-25.589 1.291,0.973 31.62,23.825 0.001,2.876 -30.421,-22.922 -2.49,-1.877 -10e-4,-2.875"
                 id="path915" />
              <path
                 fill="#0000ff"
                 d="m 911.983,299.559 18.227,13.733 1.431,1.078 0.001,2.876 -3.61,-2.721 -16.476,-12.415 0.427,-2.551 m -26.556,-20.011 1.956,1.474 19.452,14.657 0.43,3.198 -17.7,-13.337 -4.137,-3.116 -10e-4,-2.876"
                 id="path917" />
              <polyline
                 fill="#ff0000"
                 points="909.314,72.87 909.841,74.104 909.846,85.961 909.847,88.845 909.854,105.157          909.855,108.033 909.862,124.346 909.863,127.221 909.87,143.534 909.871,146.409 909.878,162.722 909.879,165.606          909.886,181.918 909.887,184.794 909.895,202.065 909.896,204.941 909.902,221.253 909.903,224.129 909.91,240.441          909.911,243.325 909.918,259.638 909.92,262.514 909.927,278.826 909.928,281.702 909.932,292.602 909.406,293.041          908.883,291.814 908.878,280.911 908.877,278.035 908.87,261.723 908.869,258.848 908.862,242.535 908.861,239.651          908.854,223.338 908.854,220.462 908.847,204.15 908.845,201.274 908.838,184.003 908.837,181.128 908.83,164.815          908.828,161.931 908.822,145.619 908.82,142.743 908.813,126.431 908.813,123.555 908.806,107.243 908.805,104.367          908.798,88.054 908.797,85.17 908.792,73.309 909.314,72.87        "
                 id="polyline919" />
              <polyline
                 fill="#ff0000"
                 points="909.306,51.022 909.754,54.363 911.601,68.101 912.031,71.309 913.587,82.884          909.841,74.104 909.314,72.87 908.792,73.309 905.051,76.452 906.597,67.214 907.024,64.653 908.864,53.661 909.306,51.022                 "
                 id="polyline921" />
              <polyline
                 fill="#ff0000"
                 points="905.137,283.039 908.883,291.814 909.406,293.041 909.932,292.602 913.673,289.471          911.983,299.559 911.556,302.11 909.884,312.091 909.415,314.889 908.949,311.42 907.265,298.877 906.835,295.679          905.137,283.039        "
                 id="polyline923" />
            </g>
          </g>
        </g>
      </g>
    </g>
  </g>
  <g
     id="g1192"
     transform="translate(-65.224,-35.726749)">
    <g
       enable-background="new    "
       id="g1190">
      <defs
         id="defs1173">
        <polygon
           id="polygon1727"
           enable-background="new    "
           points="696.568,117.008 696.612,223.51 682.647,212.987 682.604,106.485 " />
      </defs>
      <clipPath
         id="SVGID_6_">
        <use
           xlink:href="#SVGID_5_"
           overflow="visible"
           id="use1175"
           x="0"
           y="0"
           width="100%"
           height="100%" />
      </clipPath>
      <g
         clip-path="url(#SVGID_6_)"
         id="g1188">
        <g
           id="g1186">
          <g
             id="g1184">
            <g
               id="g1182">
              <polyline
                 fill="#009600"
                 points="688.938,144.391 690.337,145.445 690.367,218.804 688.969,217.75 688.938,144.391                 "
                 id="polyline1178" />
              <polyline
                 fill="#009600"
                 points="689.586,111.747 696.582,150.151 690.337,145.445 688.938,144.391 682.617,139.628          689.586,111.747        "
                 id="polyline1180" />
            </g>
          </g>
        </g>
      </g>
    </g>
  </g>
  <g
     id="g1216"
     transform="translate(-65.224,-35.726749)"
     style="fill:#ffffff">
    <g
       enable-background="new    "
       id="g1214"
       style="fill:#ffffff">
      <defs
         id="defs1197">
        <polygon
           id="polygon1741"
           enable-background="new    "
           points="1227.285,155.375 99.654,313.877 99.712,282.629 1227.344,124.127 " />
      </defs>
      <clipPath
         id="SVGID_8_">
        <use
           xlink:href="#SVGID_7_"
           overflow="visible"
           id="use1199"
           x="0"
           y="0"
           width="100%"
           height="100%" />
      </clipPath>
      <g
         clip-path="url(#SVGID_8_)"
         id="g1212"
         style="fill:#ffffff">
        <g
           id="g1210"
           style="fill:#ffffff">
          <g
             id="g1208"
             style="fill:#ffffff">
            <g
               id="g1206"
               style="fill:#ffffff">
              <polyline
                 points="1199.269,141.774 99.687,296.333 99.68,300.173 1199.262,145.613 1200.297,143.549 1199.269,141.774                 "
                 id="polyline1202"
                 style="fill:#ffffff" />
              <polyline
                 points="1191.924,129.105 1199.269,141.774 1200.297,143.549 1199.262,145.613 1191.865,160.354 1227.314,139.751          1191.924,129.105        "
                 id="polyline1204"
                 style="fill:#ffffff" />
            </g>
          </g>
        </g>
      </g>
    </g>
  </g>
  <g
     id="g1242"
     transform="translate(-65.224,-35.726749)">
    <g
       id="g1240">
      <g
         enable-background="new    "
         id="g1238">
        <defs
           id="defs1221">
          <polygon
             id="polygon1755"
             enable-background="new    "
             points="178.205,295.669 178.248,402.169 162.537,390.33 162.495,283.83 " />
        </defs>
        <clipPath
           id="SVGID_9_">
          <use
             xlink:href="#SVGID_11_"
             overflow="visible"
             id="use1223"
             x="0"
             y="0"
             width="100%"
             height="100%" />
        </clipPath>
        <g
           clip-path="url(#SVGID_9_)"
           id="g1236">
          <g
             id="g1234">
            <g
               id="g1232">
              <g
                 id="g1230">
                <polyline
                   fill="#009600"
                   points="169.518,289.123 171.094,290.311 171.121,359.53 169.545,358.344 169.518,289.123                   "
                   id="polyline1226" />
                <polyline
                   fill="#009600"
                   points="162.522,353.051 169.545,358.344 171.121,359.53 178.232,364.89 170.389,396.247           162.522,353.051         "
                   id="polyline1228" />
              </g>
            </g>
          </g>
        </g>
      </g>
    </g>
  </g>
  <g
     id="g1412"
     transform="translate(-65.224,-35.726749)">
    <g
       id="g1266">
      <g
         id="g1264">
        <g
           enable-background="new    "
           id="g1262">
          <defs
             id="defs1245">
            <polygon
               id="polygon1769"
               enable-background="new    "
               points="180.458,184.671 180.501,291.17 164.793,279.334 164.751,172.834 " />
          </defs>
          <clipPath
             id="SVGID_10_">
            <use
               xlink:href="#SVGID_13_"
               overflow="visible"
               id="use1247"
               x="0"
               y="0"
               width="100%"
               height="100%" />
          </clipPath>
          <g
             clip-path="url(#SVGID_10_)"
             id="g1260">
            <g
               id="g1258">
              <g
                 id="g1256">
                <g
                   id="g1254">
                  <polyline
                     fill="#009600"
                     points="171.874,215.47 173.449,216.657 173.477,285.878 171.901,284.69 171.874,215.47                     "
                     id="polyline1250" />
                  <polyline
                     fill="#009600"
                     points="172.606,178.754 180.473,221.95 173.449,216.657 171.874,215.47 164.766,210.113            172.606,178.754          "
                     id="polyline1252" />
                </g>
              </g>
            </g>
          </g>
        </g>
      </g>
    </g>
    <g
       id="g1290">
      <g
         id="g1288">
        <g
           enable-background="new    "
           id="g1286">
          <defs
             id="defs1269">
            <polygon
               id="polygon1783"
               enable-background="new    "
               points="172.262,214.538 172.294,291.454 144.163,270.257 144.13,193.341 " />
          </defs>
          <clipPath
             id="SVGID_12_">
            <use
               xlink:href="#SVGID_15_"
               overflow="visible"
               id="use1271"
               x="0"
               y="0"
               width="100%"
               height="100%" />
          </clipPath>
          <g
             clip-path="url(#SVGID_12_)"
             id="g1284">
            <g
               id="g1282">
              <g
                 id="g1280">
                <g
                   id="g1278">
                  <polyline
                     fill="#009600"
                     points="155.483,229.395 172.293,288.061 171.056,290.521 154.248,231.853 155.483,229.395                     "
                     id="polyline1274" />
                  <polyline
                     fill="#009600"
                     points="144.13,193.341 160.996,218.429 155.483,229.395 154.248,231.853 148.668,242.954            144.13,193.341          "
                     id="polyline1276" />
                </g>
              </g>
            </g>
          </g>
        </g>
      </g>
    </g>
    <g
       id="g1314">
      <g
         id="g1312">
        <g
           enable-background="new    "
           id="g1310">
          <defs
             id="defs1293">
            <polygon
               id="polygon1797"
               enable-background="new    "
               points="198.929,303.674 198.961,380.591 170.83,359.394 170.797,282.477 " />
          </defs>
          <clipPath
             id="SVGID_14_">
            <use
               xlink:href="#SVGID_17_"
               overflow="visible"
               id="use1295"
               x="0"
               y="0"
               width="100%"
               height="100%" />
          </clipPath>
          <g
             clip-path="url(#SVGID_14_)"
             id="g1308">
            <g
               id="g1306">
              <g
                 id="g1304">
                <g
                   id="g1302">
                  <polyline
                     fill="#009600"
                     points="172.036,283.41 188.844,342.081 187.608,344.538 170.799,285.871 172.036,283.41                     "
                     id="polyline1298" />
                  <polyline
                     fill="#009600"
                     points="194.426,330.979 198.961,380.591 182.095,355.503 187.608,344.538 188.844,342.081            194.426,330.979          "
                     id="polyline1300" />
                </g>
              </g>
            </g>
          </g>
        </g>
      </g>
    </g>
    <g
       id="g1338">
      <g
         id="g1336">
        <g
           enable-background="new    "
           id="g1334">
          <defs
             id="defs1317">
            <polygon
               id="polygon1811"
               enable-background="new    "
               points="199.992,231.328 200.024,308.426 171.962,287.281 171.93,210.183 " />
          </defs>
          <clipPath
             id="SVGID_16_">
            <use
               xlink:href="#SVGID_19_"
               overflow="visible"
               id="use1319"
               x="0"
               y="0"
               width="100%"
               height="100%" />
          </clipPath>
          <g
             clip-path="url(#SVGID_16_)"
             id="g1332">
            <g
               id="g1330">
              <g
                 id="g1328">
                <g
                   id="g1326">
                  <polyline
                     fill="#009600"
                     points="188.732,250.521 189.97,254.844 173.2,288.214 171.961,283.887 188.732,250.521                     "
                     id="polyline1322" />
                  <polyline
                     fill="#009600"
                     points="199.992,231.328 195.496,274.125 189.97,254.844 188.732,250.521 183.137,230.998            199.992,231.328          "
                     id="polyline1324" />
                </g>
              </g>
            </g>
          </g>
        </g>
      </g>
    </g>
    <g
       id="g1362">
      <g
         id="g1360">
        <g
           enable-background="new    "
           id="g1358">
          <defs
             id="defs1341">
            <polygon
               id="polygon1825"
               enable-background="new    "
               points="171.129,287.658 171.161,364.756 143.099,343.611 143.067,266.514 " />
          </defs>
          <clipPath
             id="SVGID_18_">
            <use
               xlink:href="#SVGID_21_"
               overflow="visible"
               id="use1343"
               x="0"
               y="0"
               width="100%"
               height="100%" />
          </clipPath>
          <g
             clip-path="url(#SVGID_18_)"
             id="g1356">
            <g
               id="g1354">
              <g
                 id="g1352">
                <g
                   id="g1350">
                  <polyline
                     fill="#009600"
                     points="169.894,286.728 171.13,291.044 154.361,324.412 153.122,320.086 169.894,286.728                     "
                     id="polyline1346" />
                  <polyline
                     fill="#009600"
                     points="147.598,300.808 153.122,320.086 154.361,324.412 159.954,343.933 143.099,343.611            147.598,300.808          "
                     id="polyline1348" />
                </g>
              </g>
            </g>
          </g>
        </g>
      </g>
    </g>
    <g
       id="g1386">
      <g
         id="g1384">
        <g
           enable-background="new    "
           id="g1382">
          <defs
             id="defs1365">
            <polygon
               id="polygon1839"
               enable-background="new    "
               points="169.922,265.244 169.939,308.3 131.076,279.015 131.059,235.959 " />
          </defs>
          <clipPath
             id="SVGID_20_">
            <use
               xlink:href="#SVGID_23_"
               overflow="visible"
               id="use1367"
               x="0"
               y="0"
               width="100%"
               height="100%" />
          </clipPath>
          <g
             clip-path="url(#SVGID_20_)"
             id="g1380">
            <g
               id="g1378">
              <g
                 id="g1376">
                <g
                   id="g1374">
                  <polyline
                     fill="#009600"
                     points="144.672,265.459 169.93,284.492 169.931,288.81 144.674,269.776 144.672,265.459                     "
                     id="polyline1370" />
                  <polyline
                     fill="#009600"
                     points="144.665,246.211 144.672,265.459 144.674,269.776 144.682,289.267 131.067,257.478            144.665,246.211          "
                     id="polyline1372" />
                </g>
              </g>
            </g>
          </g>
        </g>
      </g>
    </g>
    <g
       id="g1410">
      <g
         id="g1408">
        <g
           enable-background="new    "
           id="g1406">
          <defs
             id="defs1389">
            <polygon
               id="polygon1853"
               enable-background="new    "
               points="210.92,294.987 210.937,338.043 172.077,308.76 172.06,265.704 " />
          </defs>
          <clipPath
             id="SVGID_22_">
            <use
               xlink:href="#SVGID_25_"
               overflow="visible"
               id="use1391"
               x="0"
               y="0"
               width="100%"
               height="100%" />
          </clipPath>
          <g
             clip-path="url(#SVGID_22_)"
             id="g1404">
            <g
               id="g1402">
              <g
                 id="g1400">
                <g
                   id="g1398">
                  <polyline
                     fill="#009600"
                     points="172.068,285.194 197.322,304.226 197.324,308.543 172.069,289.512 172.068,285.194                     "
                     id="polyline1394" />
                  <polyline
                     fill="#009600"
                     points="197.314,284.734 210.929,316.516 197.332,327.791 197.324,308.543 197.322,304.226            197.314,284.734          "
                     id="polyline1396" />
                </g>
              </g>
            </g>
          </g>
        </g>
      </g>
    </g>
  </g>
  <g
     id="g1478"
     transform="translate(-65.224,-35.726749)">
    <g
       enable-background="new    "
       id="g1476">
      <defs
         id="defs1459">
        <polygon
           id="polygon1890"
           enable-background="new    "
           points="1049.457,63.666 1049.502,170.167 1033.791,158.33 1033.747,51.828 " />
      </defs>
      <clipPath
         id="SVGID_26_">
        <use
           xlink:href="#SVGID_24_"
           overflow="visible"
           id="use1461"
           x="0"
           y="0"
           width="100%"
           height="100%" />
      </clipPath>
      <g
         clip-path="url(#SVGID_26_)"
         id="g1474">
        <g
           id="g1472">
          <g
             id="g1470">
            <g
               id="g1468">
              <polyline
                 fill="#009600"
                 points="1040.874,94.474 1042.449,95.661 1042.479,164.875 1040.903,163.688 1040.874,94.474                 "
                 id="polyline1464" />
              <polyline
                 fill="#009600"
                 points="1041.603,57.747 1049.473,100.954 1042.449,95.661 1040.874,94.474 1033.763,89.116          1041.603,57.747        "
                 id="polyline1466" />
            </g>
          </g>
        </g>
      </g>
    </g>
  </g>
  <g
     id="g1500"
     transform="translate(-65.224,-35.726749)"
     style="fill:#ffffff">
    <g
       enable-background="new    "
       id="g1498"
       style="fill:#ffffff">
      <defs
         id="defs1483">
        <polygon
           id="polygon1904"
           enable-background="new    "
           points="864.146,234.095 487.676,287.013 487.855,191.903 864.324,138.986 " />
      </defs>
      <clipPath
         id="SVGID_28_">
        <use
           xlink:href="#SVGID_27_"
           overflow="visible"
           id="use1485"
           x="0"
           y="0"
           width="100%"
           height="100%" />
      </clipPath>
      <g
         clip-path="url(#SVGID_28_)"
         id="g1496"
         style="fill:#ffffff">
        <g
           id="g1494"
           style="fill:#ffffff">
          <g
             id="g1492"
             style="fill:#ffffff">
            <g
               id="g1490"
               style="fill:#ffffff">
              <path
                 d="m 842.177,142.099 c -6.393,0.899 -8.909,19.249 -12.489,49.116 -1.382,11.492 -2.806,23.379 -4.545,32.215 -2.481,12.658 -4.678,13.927 -5.295,14.014 -0.608,0.085 -2.801,-0.566 -5.246,-12.532 -1.697,-8.353 -3.085,-19.845 -4.418,-30.955 -3.47,-28.876 -5.927,-46.528 -12.311,-45.63 -6.384,0.898 -8.9,19.248 -12.48,49.115 -1.383,11.493 -2.807,23.379 -4.545,32.215 -2.481,12.658 -4.679,13.927 -5.295,14.013 -0.609,0.086 -2.802,-0.565 -5.246,-12.531 -1.698,-8.353 -3.077,-19.846 -4.418,-30.955 -3.47,-28.876 -5.919,-46.529 -12.311,-45.63 -6.385,0.897 -8.901,19.248 -12.48,49.115 -1.383,11.492 -2.807,23.379 -4.537,32.213 -2.49,12.66 -4.687,13.928 -5.295,14.014 -0.617,0.087 -2.81,-0.564 -5.246,-12.532 -1.706,-8.352 -3.086,-19.844 -4.418,-30.955 -3.479,-28.875 -5.928,-46.527 -12.312,-45.63 -6.384,0.897 -8.9,19.248 -12.479,49.115 -1.384,11.492 -2.807,23.379 -4.545,32.215 -2.482,12.658 -4.679,13.927 -5.288,14.012 -0.616,0.087 -2.81,-0.564 -5.245,-12.531 -1.706,-8.352 -3.086,-19.845 -4.419,-30.955 -3.47,-28.876 -5.927,-46.527 -12.311,-45.63 -6.384,0.897 -8.9,19.248 -12.479,49.115 -1.384,11.492 -2.808,23.379 -4.537,32.213 -2.49,12.659 -4.688,13.928 -5.296,14.014 -0.617,0.087 -2.802,-0.565 -5.245,-12.532 -1.707,-8.351 -3.086,-19.844 -4.419,-30.955 -3.47,-28.876 -5.927,-46.527 -12.311,-45.63 -6.384,0.897 -8.9,19.248 -12.479,49.115 -1.384,11.492 -2.808,23.379 -4.545,32.215 -2.483,12.658 -4.68,13.927 -5.288,14.012 -0.617,0.087 -2.81,-0.564 -5.245,-12.531 -1.707,-8.352 -3.087,-19.844 -4.419,-30.955 -3.477,-28.875 -5.927,-46.527 -12.312,-45.63 -6.384,0.897 -8.9,19.248 -12.479,49.115 -1.383,11.492 -2.807,23.387 -4.545,32.215 -2.481,12.658 -4.679,13.926 -5.287,14.012 -0.616,0.087 -2.81,-0.564 -5.246,-12.531 -1.706,-8.353 -3.086,-19.845 -4.427,-30.954 -3.469,-28.876 -5.918,-46.529 -12.303,-45.632 -6.384,0.897 -8.9,19.248 -12.487,49.116 -1.375,11.491 -2.799,23.387 -4.537,32.214 -2.481,12.658 -4.679,13.927 -5.295,14.014 -0.608,0.085 -2.803,-0.566 -5.238,-12.533 -1.706,-8.352 -3.086,-19.845 -4.427,-30.954 -3.469,-28.876 -5.918,-46.528 -12.302,-45.631 l -0.006,2.879 c 0.608,-0.085 2.802,0.566 5.245,12.54 1.698,8.345 3.078,19.838 4.419,30.947 3.47,28.875 5.919,46.529 12.303,45.631 6.392,-0.898 8.908,-19.249 12.488,-49.107 1.375,-11.5 2.807,-23.388 4.536,-32.214 2.491,-12.667 4.688,-13.936 5.296,-14.021 0.617,-0.086 2.802,0.566 5.245,12.54 1.699,8.345 3.078,19.838 4.419,30.947 3.47,28.876 5.919,46.528 12.312,45.63 6.384,-0.897 8.9,-19.248 12.48,-49.106 1.382,-11.5 2.806,-23.387 4.535,-32.214 2.491,-12.667 4.688,-13.936 5.296,-14.021 0.617,-0.086 2.802,0.566 5.246,12.54 1.698,8.345 3.086,19.836 4.418,30.947 3.47,28.875 5.919,46.529 12.312,45.63 6.384,-0.897 8.9,-19.248 12.479,-49.106 1.384,-11.501 2.807,-23.388 4.537,-32.214 2.49,-12.667 4.687,-13.936 5.296,-14.021 0.616,-0.086 2.801,0.566 5.245,12.54 1.698,8.345 3.086,19.836 4.419,30.947 3.469,28.876 5.927,46.527 12.311,45.63 6.384,-0.897 8.9,-19.248 12.479,-49.115 1.384,-11.492 2.808,-23.379 4.545,-32.207 2.482,-12.667 4.68,-13.935 5.288,-14.021 0.617,-0.087 2.802,0.566 5.245,12.54 1.707,8.344 3.086,19.836 4.419,30.956 3.469,28.868 5.927,46.52 12.311,45.622 6.384,-0.898 8.9,-19.249 12.479,-49.106 1.384,-11.501 2.808,-23.388 4.537,-32.214 2.491,-12.667 4.688,-13.936 5.296,-14.021 0.617,-0.086 2.802,0.566 5.245,12.54 1.699,8.345 3.087,19.836 4.419,30.956 3.469,28.868 5.927,46.519 12.312,45.622 6.384,-0.897 8.9,-19.248 12.479,-49.115 1.383,-11.492 2.807,-23.379 4.545,-32.207 2.482,-12.666 4.679,-13.935 5.287,-14.02 0.617,-0.086 2.81,0.564 5.246,12.54 1.706,8.344 3.086,19.836 4.427,30.946 3.469,28.876 5.918,46.529 12.302,45.632 6.393,-0.898 8.909,-19.25 12.488,-49.116 1.383,-11.492 2.807,-23.379 4.537,-32.206 2.49,-12.667 4.687,-13.936 5.295,-14.021 0.617,-0.087 2.803,0.565 5.246,12.54 1.706,8.344 3.086,19.836 4.419,30.956 3.477,28.866 5.926,46.519 12.31,45.622 6.385,-0.897 8.91,-19.249 12.489,-49.107 1.382,-11.501 2.806,-23.388 4.545,-32.215 2.481,-12.667 4.678,-13.935 5.295,-14.021 0.608,-0.085 2.802,0.566 5.246,12.54 1.697,8.345 3.086,19.837 4.418,30.956 3.47,28.868 5.927,46.519 12.311,45.622 l 0.006,-2.879 c -0.617,0.087 -2.802,-0.566 -5.246,-12.532 -1.706,-8.352 -3.085,-19.844 -4.418,-30.955 -3.478,-28.889 -5.927,-46.541 -12.311,-45.644"
                 id="path1488"
                 style="fill:#ffffff" />
            </g>
          </g>
        </g>
      </g>
    </g>
  </g>
  <g
     id="g1522"
     transform="translate(-65.224,-35.726749)"
     style="fill:#ffffff;fill-opacity:1">
    <g
       enable-background="new    "
       id="g1520"
       style="fill:#ffffff;fill-opacity:1">
      <defs
         id="defs1505">
        <polygon
           id="polygon1917"
           enable-background="new    "
           points="1174.143,190.598 797.672,243.516 797.851,148.406 1174.32,95.489 " />
      </defs>
      <clipPath
         id="SVGID_30_">
        <use
           xlink:href="#SVGID_29_"
           overflow="visible"
           id="use1507"
           x="0"
           y="0"
           width="100%"
           height="100%" />
      </clipPath>
      <g
         clip-path="url(#SVGID_30_)"
         id="g1518"
         style="fill:#ffffff;fill-opacity:1">
        <g
           id="g1516"
           style="fill:#ffffff;fill-opacity:1">
          <g
             id="g1514"
             style="fill:#ffffff;fill-opacity:1">
            <g
               id="g1512"
               style="fill:#ffffff;fill-opacity:1">
              <path
                 d="m 1152.173,98.602 c -6.385,0.897 -8.909,19.25 -12.489,49.108 -1.374,11.5 -2.806,23.387 -4.535,32.214 -2.491,12.667 -4.688,13.927 -5.297,14.013 -0.616,0.086 -2.809,-0.556 -5.245,-12.531 -1.706,-8.344 -3.086,-19.836 -4.427,-30.954 -3.47,-28.868 -5.919,-46.521 -12.303,-45.623 -6.392,0.898 -8.908,19.249 -12.488,49.107 -1.375,11.5 -2.807,23.388 -4.537,32.214 -2.49,12.667 -4.687,13.927 -5.295,14.013 -0.617,0.087 -2.802,-0.557 -5.245,-12.531 -1.707,-8.343 -3.087,-19.836 -4.419,-30.956 -3.478,-28.866 -5.927,-46.519 -12.311,-45.622 -6.384,0.897 -8.9,19.248 -12.488,49.107 -1.375,11.5 -2.799,23.387 -4.536,32.214 -2.491,12.667 -4.68,13.926 -5.297,14.013 -0.608,0.086 -2.801,-0.557 -5.245,-12.531 -1.698,-8.345 -3.078,-19.838 -4.418,-30.956 -3.47,-28.868 -5.919,-46.521 -12.304,-45.623 -6.392,0.898 -8.908,19.25 -12.487,49.116 -1.375,11.491 -2.807,23.379 -4.537,32.206 -2.49,12.667 -4.679,13.926 -5.296,14.013 -0.608,0.085 -2.801,-0.558 -5.245,-12.531 -1.698,-8.345 -3.078,-19.838 -4.419,-30.956 -3.469,-28.868 -5.919,-46.521 -12.303,-45.623 -6.384,0.898 -8.9,19.249 -12.487,49.107 -1.376,11.5 -2.799,23.387 -4.537,32.214 -2.49,12.667 -4.679,13.926 -5.296,14.013 -0.608,0.086 -2.802,-0.557 -5.245,-12.531 -1.698,-8.345 -3.078,-19.838 -4.419,-30.956 -3.469,-28.868 -5.919,-46.521 -12.303,-45.623 -6.384,0.898 -8.908,19.25 -12.488,49.107 -1.375,11.5 -2.807,23.388 -4.536,32.214 -2.49,12.667 -4.68,13.926 -5.295,14.013 -0.609,0.086 -2.803,-0.557 -5.247,-12.531 -1.698,-8.345 -3.077,-19.838 -4.418,-30.956 -3.469,-28.868 -5.919,-46.521 -12.303,-45.623 -6.392,0.898 -8.909,19.25 -12.488,49.116 -1.382,11.492 -2.806,23.379 -4.536,32.206 -2.49,12.667 -4.688,13.927 -5.296,14.013 -0.616,0.086 -2.802,-0.558 -5.246,-12.531 -1.698,-8.345 -3.086,-19.836 -4.418,-30.956 -3.47,-28.867 -5.918,-46.521 -12.303,-45.623 -6.392,0.898 -8.909,19.25 -12.488,49.116 -1.383,11.492 -2.807,23.379 -4.537,32.206 -2.489,12.667 -4.686,13.927 -5.295,14.013 -0.617,0.086 -2.803,-0.558 -5.246,-12.531 -1.697,-8.345 -3.086,-19.836 -4.419,-30.956 -3.469,-28.868 -5.918,-46.52 -12.31,-45.622 l -0.006,2.879 c 0.617,-0.087 2.81,0.564 5.246,12.531 1.705,8.344 3.085,19.836 4.418,30.956 3.47,28.876 5.927,46.527 12.311,45.63 6.384,-0.897 8.9,-19.248 12.48,-49.115 1.383,-11.492 2.807,-23.379 4.545,-32.215 2.482,-12.658 4.679,-13.926 5.295,-14.013 0.609,-0.085 2.802,0.566 5.238,12.532 1.706,8.344 3.086,19.836 4.418,30.956 3.478,28.875 5.927,46.527 12.311,45.63 6.385,-0.897 8.901,-19.248 12.481,-49.115 1.382,-11.492 2.806,-23.379 4.545,-32.215 2.481,-12.658 4.678,-13.926 5.295,-14.013 0.608,-0.085 2.801,0.565 5.237,12.532 1.706,8.344 3.086,19.845 4.427,30.954 3.47,28.876 5.919,46.529 12.303,45.632 6.384,-0.897 8.908,-19.249 12.488,-49.116 1.374,-11.491 2.798,-23.386 4.536,-32.214 2.49,-12.659 4.679,-13.926 5.296,-14.013 0.608,-0.085 2.801,0.566 5.237,12.532 1.706,8.344 3.086,19.845 4.427,30.955 3.47,28.876 5.919,46.528 12.303,45.631 6.384,-0.897 8.908,-19.249 12.488,-49.116 1.375,-11.5 2.807,-23.388 4.536,-32.214 2.491,-12.659 4.679,-13.926 5.296,-14.013 0.609,-0.086 2.802,0.565 5.245,12.531 1.698,8.345 3.078,19.837 4.419,30.956 3.47,28.876 5.919,46.528 12.303,45.631 6.384,-0.897 8.9,-19.248 12.488,-49.116 1.375,-11.491 2.799,-23.378 4.536,-32.214 2.483,-12.658 4.68,-13.926 5.296,-14.013 0.609,-0.085 2.802,0.565 5.237,12.532 1.707,8.344 3.087,19.845 4.427,30.955 3.47,28.876 5.919,46.528 12.303,45.631 6.385,-0.897 8.909,-19.249 12.488,-49.116 1.375,-11.5 2.807,-23.388 4.537,-32.214 2.49,-12.659 4.679,-13.926 5.296,-14.013 0.608,-0.085 2.801,0.565 5.245,12.531 1.698,8.345 3.086,19.836 4.418,30.956 3.47,28.876 5.928,46.527 12.312,45.63 6.384,-0.897 8.9,-19.248 12.487,-49.116 1.375,-11.5 2.799,-23.387 4.537,-32.214 2.49,-12.659 4.68,-13.926 5.295,-14.013 0.609,-0.085 2.803,0.566 5.246,12.531 1.699,8.345 3.078,19.847 4.419,30.956 3.469,28.876 5.919,46.529 12.31,45.63 6.385,-0.897 8.902,-19.248 12.489,-49.116 1.374,-11.49 2.798,-23.386 4.537,-32.214 2.489,-12.659 4.679,-13.926 5.295,-14.013 0.616,-0.086 2.802,0.566 5.246,12.531 1.706,8.344 3.086,19.845 4.419,30.956 3.477,28.875 5.926,46.527 12.311,45.63 v -2.888 c -0.608,0.086 -2.802,-0.557 -5.245,-12.531 -1.698,-8.345 -3.086,-19.836 -4.419,-30.956 -3.47,-28.864 -5.927,-46.515 -12.311,-45.618"
                 id="path1510"
                 style="fill:#ffffff;fill-opacity:1" />
            </g>
          </g>
        </g>
      </g>
    </g>
  </g>
  <text
     xml:space="preserve"
     style="font-style:italic;font-variant:normal;font-weight:normal;font-stretch:normal;font-size:32px;line-height:1.25;font-family:serif;-inkscape-font-specification:'serif Italic';stroke-width:1;fill:#ffffff"
     x="242.18922"
     y="196.64862"
     id="text38072-3"><tspan
       id="tspan38070-6"
       style="font-style:italic;font-variant:normal;font-weight:normal;font-stretch:normal;font-size:32px;font-family:serif;-inkscape-font-specification:'serif Italic';stroke-width:1;fill:#ffffff"
       x="242.18922"
       y="196.64862">I<tspan
   style="font-size:20.8px;baseline-shift:sub;stroke-width:1;fill:#ffffff"
   id="tspan98163">0</tspan></tspan></text>
  <text
     xml:space="preserve"
     style="font-style:italic;font-variant:normal;font-weight:normal;font-stretch:normal;font-size:32px;line-height:1.25;font-family:serif;-inkscape-font-specification:'serif Italic';stroke-width:1;fill:#ffffff"
     x="531.16217"
     y="68.046005"
     id="text38072"><tspan
       id="tspan38070"
       style="font-style:italic;font-variant:normal;font-weight:normal;font-stretch:normal;font-size:32px;font-family:serif;-inkscape-font-specification:'serif Italic';stroke-width:1;fill:#ffffff"
       x="531.16217"
       y="68.046005">I<tspan
   style="font-size:20.8px;baseline-shift:sub;stroke-width:1;fill:#ffffff"
   id="tspan88181">1</tspan> = I<tspan
   style="font-size:20.8px;baseline-shift:sub;stroke-width:1;fill:#ffffff"
   id="tspan92545">0</tspan>  0,5</tspan></text>
  <text
     xml:space="preserve"
     style="font-style:italic;font-variant:normal;font-weight:normal;font-stretch:normal;font-size:32px;line-height:1.25;font-family:serif;-inkscape-font-specification:'serif Italic';stroke-width:1;fill:#ffffff"
     x="975.60394"
     y="250.21002"
     id="text38072-5"><tspan
       id="tspan38070-3"
       style="font-style:italic;font-variant:normal;font-weight:normal;font-stretch:normal;font-size:32px;font-family:serif;-inkscape-font-specification:'serif Italic';stroke-width:1;fill:#ffffff"
       x="975.60394"
       y="250.21002">I<tspan
   style="font-size:65%;baseline-shift:sub;fill:#ffffff"
   id="tspan107616">2</tspan> = I<tspan
   style="font-size:65%;baseline-shift:sub;fill:#ffffff"
   id="tspan111482">1</tspan></tspan></text>
  <text
     xml:space="preserve"
     style="font-size:32px;line-height:1.25;font-family:sans-serif;word-spacing:0px;fill:#ffffff"
     x="543.9447"
     y="32.711304"
     id="text22233"><tspan
       sodipodi:role="line"
       id="tspan22231"
       x="543.9447"
       y="32.711304">Intensity:</tspan></text>
  <text
     xml:space="preserve"
     style="font-size:32px;line-height:1.25;font-family:sans-serif;word-spacing:0px;fill:#ffffff"
     x="177.5034"
     y="163.69511"
     id="text22233-2"><tspan
       sodipodi:role="line"
       id="tspan22231-3"
       x="177.5034"
       y="163.69511">Intensity:</tspan></text>
  <text
     xml:space="preserve"
     style="font-size:32px;line-height:1.25;font-family:sans-serif;word-spacing:0px;fill:#ffffff"
     x="109.8088"
     y="396.71826"
     id="text22233-35"><tspan
       sodipodi:role="line"
       id="tspan22231-62"
       x="109.8088"
       y="396.71826"
       style="text-align:center;text-anchor:middle;fill:#ffffff">Unpolarized</tspan><tspan
       sodipodi:role="line"
       x="109.8088"
       y="436.71826"
       id="tspan40812"
       style="text-align:center;text-anchor:middle;fill:#ffffff">light</tspan></text>
  <text
     xml:space="preserve"
     style="font-size:32px;line-height:1.25;font-family:sans-serif;word-spacing:0px;fill:#ffffff"
     x="432.392"
     y="370.55811"
     id="text22233-35-9"><tspan
       sodipodi:role="line"
       x="432.392"
       y="370.55811"
       id="tspan40812-2"
       style="text-align:center;text-anchor:middle;fill:#ffffff">Polarization filter</tspan><tspan
       sodipodi:role="line"
       x="432.392"
       y="410.55811"
       style="text-align:center;text-anchor:middle;fill:#ffffff"
       id="tspan45221">with vertical</tspan><tspan
       sodipodi:role="line"
       x="432.392"
       y="450.55811"
       style="text-align:center;text-anchor:middle;fill:#ffffff"
       id="tspan45223">polarization axis</tspan></text>
  <text
     xml:space="preserve"
     style="font-size:32px;line-height:1.25;font-family:sans-serif;word-spacing:0px;fill:#ffffff"
     x="852.04181"
     y="321.40863"
     id="text22233-35-9-7"><tspan
       sodipodi:role="line"
       x="852.04181"
       y="321.40863"
       id="tspan40812-2-5"
       style="text-align:center;text-anchor:middle;fill:#ffffff">Polarization filter</tspan><tspan
       sodipodi:role="line"
       x="852.04181"
       y="361.40863"
       style="text-align:center;text-anchor:middle;fill:#ffffff"
       id="tspan45221-9">with vertical</tspan><tspan
       sodipodi:role="line"
       x="852.04181"
       y="401.40863"
       style="text-align:center;text-anchor:middle;fill:#ffffff"
       id="tspan45223-2">polarization axis</tspan></text>
  <text
     xml:space="preserve"
     style="font-size:32px;line-height:1.25;font-family:sans-serif;word-spacing:0px;fill:#ffffff"
     x="941.91846"
     y="212.65453"
     id="text22233-7"><tspan
       sodipodi:role="line"
       id="tspan22231-5"
       x="941.91846"
       y="212.65453">Intensity:</tspan></text>
</svg>
