<?xml version="1.0" encoding="UTF-8" standalone="no"?>
<!-- Creator: CorelDRAW -->

<svg
   xml:space="preserve"
   width="800px"
   height="453px"
   style="shape-rendering:geometricPrecision; text-rendering:geometricPrecision; image-rendering:optimizeQuality; fill-rule:evenodd"
   viewBox="0 0 800 452"
   version="1.1"
   id="svg142"
   sodipodi:docname="tranversal-waves-longitudinal-waves.svg"
   inkscape:version="1.1.2 (0a00cf5339, 2022-02-04)"
   xmlns:inkscape="http://www.inkscape.org/namespaces/inkscape"
   xmlns:sodipodi="http://sodipodi.sourceforge.net/DTD/sodipodi-0.dtd"
   xmlns="http://www.w3.org/2000/svg"
   xmlns:svg="http://www.w3.org/2000/svg"><sodipodi:namedview
   id="namedview144"
   pagecolor="#ffffff"
   bordercolor="#666666"
   borderopacity="1.0"
   inkscape:pageshadow="2"
   inkscape:pageopacity="0.0"
   inkscape:pagecheckerboard="true"
   showgrid="false"
   inkscape:zoom="2.1034932"
   inkscape:cx="310.6737"
   inkscape:cy="235.79825"
   inkscape:window-width="2520"
   inkscape:window-height="1412"
   inkscape:window-x="40"
   inkscape:window-y="212"
   inkscape:window-maximized="1"
   inkscape:current-layer="svg142" />
 <defs
   id="defs4">
  <style
   type="text/css"
   id="style2">
   <![CDATA[
    .str1 {stroke:#1F1A17;stroke-width:2}
    .str0 {stroke:#C2C1C1;stroke-width:2}
    .fil0 {fill:none}
    .fil1 {fill:#1F1A17}
   ]]>
  </style>
 
  
 
   
   
   
   
   
   
   
   
   
   
   
   
   
   
   
   
   
   
   
   
   
   
   
   
   
   
   
   
   
   
   
   
   
   
   
   
   
   
   
   
   
   
   
   
   
   
   
   
   
  
    
    
   
    
    
   
    
    
   </defs>
 <path
   class="fil0 str0"
   d="M 300,7 V 294"
   id="path6" /><path
   class="fil0 str0"
   d="M 149,7 V 445"
   id="path8" /><path
   class="fil0 str0"
   d="M 133,83 H 783"
   id="path10" /><path
   class="fil0 str0"
   d="M 133,219 H 783"
   id="path12" /><path
   class="fil0 str0"
   d="M 133,355 H 783"
   id="path14" /><path
   class="fil0 str1"
   d="m 149,83 c 25,-61 50,-61 75,0 26,61 51,61 76,0"
   id="path16"
   style="stroke:#ffffff;stroke-opacity:1" /><path
   class="fil0 str1"
   d="m 300,83 c 25,-61 50,-61 75,0 26,61 51,61 75,0"
   id="path18"
   style="stroke:#ffffff;stroke-opacity:1" /><path
   class="fil0 str1"
   d="m 450,83 c 26,-60 51,-60 76,0 26,61 51,61 75,0"
   id="path20"
   style="stroke:#ffffff;stroke-opacity:1" /><path
   class="fil0 str1"
   d="m 601,84 c 26,-61 51,-61 76,0 26,61 51,61 75,0"
   id="path22"
   style="stroke:#ffffff;stroke-opacity:1" /><path
   class="fil0 str1"
   d="m 149,219 c 66,-41 91,-41 75,0 -15,41 10,41 76,0"
   id="path24"
   style="stroke:#ffffff;stroke-opacity:1" /><path
   class="fil0 str1"
   d="m 300,219 c 66,-41 91,-41 75,0 -15,42 10,42 76,0"
   id="path26"
   style="stroke:#ffffff;stroke-opacity:1" /><path
   class="fil0 str1"
   d="m 450,220 c 67,-41 92,-41 76,0 -15,41 10,41 75,0"
   id="path28"
   style="stroke:#ffffff;stroke-opacity:1" /><path
   class="fil0 str1"
   d="m 601,220 c 66,-41 91,-41 75,0 -15,41 10,41 76,0"
   id="path30"
   style="stroke:#ffffff;stroke-opacity:1" /><g
   id="g38"
   style="fill:#ffffff;fill-opacity:1">
    <path
   class="fil1"
   d="m 133,188 -6,15 v 0 0 -1 0 0 -1 h -1 v 0 -1 0 0 l -1,-1 v 0 0 -1 h -1 v 0 -1 h -1 v 0 0 -1 h -1 v 0 0 l -1,-1 v 0 h -1 v 0 0 h -1 v -1 h -1 z"
   id="path32"
   style="fill:#ffffff;fill-opacity:1" />
    <path
   class="fil1"
   d="m 79,244 50,-50 -2,-1 -49,50 z"
   id="path34"
   style="fill:#ffffff;fill-opacity:1" />
    <path
   class="fil1"
   d="m 73,249 15,-6 v 0 -1 h -1 v 0 0 h -1 v 0 l -1,-1 v 0 0 h -1 v 0 -1 h -1 v 0 0 -1 h -1 v 0 -1 h -1 v 0 -1 0 0 l -1,-1 v 0 0 -1 0 l -1,-1 v 0 0 z"
   id="path36"
   style="fill:#ffffff;fill-opacity:1" />
   </g><g
   id="g46"
   style="fill:#ffffff">
    <path
   class="fil1"
   d="m 103,37 7,15 v 0 h -1 v 0 h -1 v 0 -1 h -1 v 0 h -1 v 0 0 h -1 v 0 h -1 v 0 0 h -1 v 0 h -1 v 0 0 h -1 v 0 h -1 v 0 0 h -1 v 0 l -1,1 v 0 0 h -1 v 0 z"
   id="path40"
   style="fill:#ffffff" />
    <path
   class="fil1"
   d="M 104,120 V 45 h -2 v 75 z"
   id="path42"
   style="fill:#ffffff" />
    <path
   class="fil1"
   d="m 103,128 7,-15 v 0 h -1 v 0 l -1,1 v 0 0 h -1 v 0 h -1 v 0 0 h -1 v 0 l -1,1 v 0 0 h -1 v 0 h -1 v 0 -1 h -1 v 0 h -1 v 0 0 h -1 v 0 h -1 v 0 -1 h -1 v 0 z"
   id="path44"
   style="fill:#ffffff" />
   </g><g
   id="g54"
   style="fill:#ffffff;fill-opacity:1">
    <path
   class="fil1"
   d="m 58,354 15,-6 v 0 0 1 h -1 v 1 0 0 1 0 1 0 h -1 v 1 0 1 0 0 1 0 1 0 0 l 1,1 v 0 0 1 0 1 0 0 l 1,1 v 0 1 z"
   id="path48"
   style="fill:#ffffff;fill-opacity:1" />
    <path
   class="fil1"
   d="M 111,353 H 65 v 2 h 46 z"
   id="path50"
   style="fill:#ffffff;fill-opacity:1" />
    <path
   class="fil1"
   d="m 118,354 -15,-6 v 0 h 1 v 1 0 1 0 0 l 1,1 v 0 1 0 0 1 0 1 0 0 1 0 1 0 0 1 0 0 1 h -1 v 1 0 0 1 0 l -1,1 z"
   id="path52"
   style="fill:#ffffff;fill-opacity:1" />
   </g><path
   class="fil1"
   d="M 37,92 H 35 V 77 c 0,1 -1,2 -2,2 -1,1 -2,1 -2,1 v -2 c 1,-1 2,-1 3,-2 1,-1 1,-2 2,-3 h 1 z"
   id="path56"
   style="fill:#ffffff;stroke:#ffffff;stroke-opacity:1;fill-opacity:1" /><circle
   class="fil0 str1"
   cx="33"
   cy="83"
   r="15"
   id="circle58"
   style="fill:none;stroke:#ffffff;stroke-opacity:1" /><path
   class="fil1"
   d="m 39,225 v 3 H 27 c 0,-1 0,-1 0,-2 0,-1 1,-2 2,-2 0,-1 1,-2 3,-3 2,-2 3,-3 4,-4 0,-1 1,-2 1,-3 0,-1 -1,-1 -1,-2 -1,-1 -2,-1 -3,-1 -1,0 -2,0 -2,1 -1,1 -1,2 -1,3 h -3 c 0,-2 1,-3 2,-4 1,-1 3,-2 4,-2 2,0 3,1 4,2 1,1 2,2 2,3 0,1 0,2 0,3 -1,0 -1,1 -2,2 -1,1 -2,2 -3,3 -2,1 -3,2 -3,2 0,1 -1,1 -1,1 z"
   id="path62"
   style="fill:#ffffff" /><circle
   class="fil0 str1"
   cx="33"
   cy="218"
   r="15"
   id="circle64"
   style="stroke:#ffffff;stroke-opacity:1" /><path
   class="fil1"
   d="m 27,358 h 2 c 1,1 1,2 2,3 0,1 1,1 2,1 1,0 2,-1 3,-1 0,-1 1,-2 1,-3 0,-1 -1,-2 -1,-3 -1,0 -2,-1 -3,-1 0,0 -1,0 -1,1 v -2 c 0,0 0,0 0,0 1,0 2,-1 3,-1 1,-1 1,-1 1,-2 0,-1 0,-2 -1,-2 -1,-1 -1,-1 -2,-1 -1,0 -2,0 -2,1 -1,0 -1,1 -1,2 h -3 c 1,-2 1,-3 2,-4 1,-1 2,-1 4,-1 1,0 2,0 3,1 0,0 1,1 2,1 0,1 0,2 0,3 0,0 0,1 0,2 -1,1 -1,1 -2,1 1,1 2,1 2,2 1,1 1,2 1,3 0,2 0,3 -2,4 -1,1 -2,2 -4,2 -2,0 -3,-1 -4,-2 -1,-1 -2,-2 -2,-4 z"
   id="path68"
   style="stroke:#ffffff;stroke-opacity:1;fill:#ffffff;fill-opacity:1" /><circle
   class="fil0 str1"
   cx="33"
   cy="354"
   r="15"
   id="circle70"
   style="stroke:#ffffff;stroke-opacity:1" /><rect
   class="fil1 str1"
   x="149"
   y="339"
   width="29"
   height="30"
   id="rect74"
   style="fill:#ffffff;fill-opacity:1;stroke:#ffffff;stroke-opacity:1" /><rect
   class="fil1 str1"
   x="244"
   y="339"
   width="29"
   height="30"
   id="rect76" /><rect
   class="fil1 str1"
   x="340"
   y="339"
   width="29"
   height="30"
   id="rect78" /><rect
   class="fil1 str1"
   x="436"
   y="339"
   width="29"
   height="30"
   id="rect80" /><rect
   class="fil1 str1"
   x="532"
   y="339"
   width="29"
   height="30"
   id="rect82" /><rect
   class="fil1 str1"
   x="627"
   y="339"
   width="29"
   height="30"
   id="rect84" /><rect
   class="fil1 str1"
   x="193"
   y="339"
   width="15"
   height="30"
   id="rect86"
   style="fill:#ffffff;fill-opacity:1;stroke:#ffffff;stroke-opacity:1" /><rect
   class="fil1 str1"
   x="288"
   y="339"
   width="15"
   height="30"
   id="rect88"
   style="fill:#ffffff;fill-opacity:1;stroke:#ffffff;stroke-opacity:1" /><rect
   class="fil1 str1"
   x="384"
   y="339"
   width="15"
   height="30"
   id="rect90"
   style="fill:#ffffff;fill-opacity:1;stroke:#ffffff;stroke-opacity:1" /><rect
   class="fil1 str1"
   x="480"
   y="339"
   width="15"
   height="30"
   id="rect92"
   style="fill:#ffffff;fill-opacity:1;stroke:#ffffff;stroke-opacity:1" /><rect
   class="fil1 str1"
   x="576"
   y="339"
   width="15"
   height="30"
   id="rect94"
   style="fill:#ffffff;fill-opacity:1;stroke:#ffffff;stroke-opacity:1" /><rect
   class="fil1 str1"
   x="672"
   y="339"
   width="15"
   height="30"
   id="rect96"
   style="fill:#ffffff;fill-opacity:1;stroke:#ffffff;stroke-opacity:1" /><rect
   class="fil1 str1"
   x="215"
   y="339"
   width="15"
   height="30"
   id="rect98"
   style="fill:#ffffff;fill-opacity:1;stroke:#ffffff;stroke-opacity:1" /><rect
   class="fil1 str1"
   x="310"
   y="339"
   width="15"
   height="30"
   id="rect100"
   style="fill:#ffffff;fill-opacity:1;stroke:#ffffff;stroke-opacity:1" /><rect
   class="fil1 str1"
   x="406"
   y="339"
   width="15"
   height="30"
   id="rect102"
   style="fill:#ffffff;fill-opacity:1;stroke:#ffffff;stroke-opacity:1" /><rect
   class="fil1 str1"
   x="502"
   y="339"
   width="15"
   height="30"
   id="rect104"
   style="fill:#ffffff;fill-opacity:1;stroke:#ffffff;stroke-opacity:1" /><rect
   class="fil1 str1"
   x="598"
   y="339"
   width="15"
   height="30"
   id="rect106"
   style="fill:#ffffff;fill-opacity:1;stroke:#ffffff;stroke-opacity:1" /><rect
   class="fil1 str1"
   x="693"
   y="339"
   width="15"
   height="30"
   id="rect108"
   style="fill:#ffffff;fill-opacity:1;stroke:#ffffff;stroke-opacity:1" /><rect
   class="fil1 str1"
   x="244"
   y="339"
   width="29"
   height="30"
   id="rect110"
   style="fill:#ffffff;fill-opacity:1;stroke:#ffffff;stroke-opacity:1" /><rect
   class="fil1 str1"
   x="340"
   y="339"
   width="29"
   height="30"
   id="rect112"
   style="fill:#ffffff;fill-opacity:1;stroke:#ffffff;stroke-opacity:1" /><rect
   class="fil1 str1"
   x="436"
   y="339"
   width="29"
   height="30"
   id="rect114"
   style="fill:#ffffff;fill-opacity:1;stroke:#ffffff;stroke-opacity:1" /><rect
   class="fil1 str1"
   x="531"
   y="339"
   width="29"
   height="30"
   id="rect116"
   style="fill:#ffffff;fill-opacity:1;stroke:#ffffff;stroke-opacity:1" /><rect
   class="fil1 str1"
   x="627"
   y="339"
   width="29"
   height="30"
   id="rect118"
   style="fill:#ffffff;fill-opacity:1;stroke:#ffffff;stroke-opacity:1" /><rect
   class="fil1 str1"
   x="723"
   y="339"
   width="29"
   height="30"
   id="rect120"
   style="fill:#ffffff;fill-opacity:1;stroke:#ffffff;stroke-opacity:1" /><path
   class="fil1"
   d="m 73,92 7,-19 h 3 l 7,19 h -3 l -2,-6 h -7 l -2,6 z m 5,-8 h 7 l -2,-5 c -1,-1 -1,-3 -2,-4 0,2 0,3 -1,4 z"
   id="path122"
   style="fill:#ffffff" /><path
   class="fil1"
   d="m 88,218 7,-18 h 3 l 7,18 h -2 l -3,-5 h -7 l -2,5 z m 5,-7 h 7 l -2,-5 c -1,-2 -1,-3 -2,-4 0,1 0,2 -1,4 z"
   id="path124"
   style="fill:#ffffff;fill-opacity:1" /><path
   class="fil1"
   d="m 80,345 7,-18 h 3 l 7,18 h -2 l -3,-5 h -7 l -2,5 z m 6,-7 h 6 l -2,-5 c -1,-2 -1,-3 -1,-4 -1,1 -1,2 -1,3 z"
   id="path126"
   style="fill:#ffffff;fill-opacity:1" /><g
   id="g134"
   style="fill:#ffffff;fill-opacity:1">
    <path
   class="fil1"
   d="m 149,263 14,-6 v 0 0 1 0 1 0 0 l -1,1 v 0 1 0 0 1 0 1 0 0 1 0 1 0 0 1 0 1 0 h 1 v 1 0 1 0 0 1 z"
   id="path128"
   style="fill:#ffffff;fill-opacity:1" />
    <path
   class="fil1"
   d="M 292,262 H 156 v 3 h 136 z"
   id="path130"
   style="fill:#ffffff;fill-opacity:1" />
    <path
   class="fil1"
   d="m 300,263 -15,-6 v 0 0 1 0 1 h 1 v 0 1 0 1 0 0 1 0 1 0 0 1 0 1 0 0 1 0 1 0 0 1 h -1 v 1 0 0 1 z"
   id="path132"
   style="fill:#ffffff;fill-opacity:1" />
   </g><path
   class="fil1"
   d="m 218,294 v -18 h 7 c 1,0 2,0 3,0 1,0 1,0 2,1 1,0 1,1 2,1 0,1 0,2 0,3 0,1 0,3 -1,4 -1,1 -3,1 -6,1 h -4 v 8 z m 3,-10 h 4 c 2,0 3,0 4,-1 0,0 1,-1 1,-2 0,-1 -1,-1 -1,-2 0,-1 -1,-1 -2,-1 0,0 -1,0 -2,0 h -4 z"
   id="path136"
   style="fill:#ffffff;fill-opacity:1" /><path
   class="fil0 str0"
   d="M 88,279 209,158"
   id="path138" />
</svg>
