<?xml version="1.0" encoding="UTF-8" standalone="no"?>
<svg
   version="1.1"
   width="620"
   height="200"
   viewBox="-180 -70 620 200"
   id="svg181"
   sodipodi:docname="parallaxbarriere-linsenraster.svg"
   inkscape:version="1.1.2 (0a00cf5339, 2022-02-04)"
   xmlns:inkscape="http://www.inkscape.org/namespaces/inkscape"
   xmlns:sodipodi="http://sodipodi.sourceforge.net/DTD/sodipodi-0.dtd"
   xmlns:xlink="http://www.w3.org/1999/xlink"
   xmlns="http://www.w3.org/2000/svg"
   xmlns:svg="http://www.w3.org/2000/svg"
   xmlns:rdf="http://www.w3.org/1999/02/22-rdf-syntax-ns#"
   xmlns:cc="http://creativecommons.org/ns#"
   xmlns:dc="http://purl.org/dc/elements/1.1/">
  <sodipodi:namedview
     id="namedview312"
     pagecolor="#ffffff"
     bordercolor="#666666"
     borderopacity="1.0"
     inkscape:pageshadow="2"
     inkscape:pageopacity="0.0"
     inkscape:pagecheckerboard="true"
     showgrid="false"
     inkscape:zoom="2.1965706"
     inkscape:cx="287.03835"
     inkscape:cy="117.45582"
     inkscape:window-width="2520"
     inkscape:window-height="1412"
     inkscape:window-x="40"
     inkscape:window-y="212"
     inkscape:window-maximized="1"
     inkscape:current-layer="svg181" />
  <title
     id="title2">Comparison of parallax-barrier and lenticular autostereoscopic displays</title>
  <desc
     id="desc4">Comparison of two autostereoscopic displays: Parallax barrier and Lenticular, by CMG Lee.</desc>
  <defs
     id="defs177">
    <radialGradient
       id="grad_eye"
       cx="0.5"
       cy="0.5"
       r="0.5"
       fx="0.25"
       fy="0.25">
      <stop
         offset="25%"
         stop-color="#ffffff"
         id="stop6" />
      <stop
         offset="100%"
         stop-color="#cccccc"
         id="stop8" />
    </radialGradient>
    <linearGradient
       id="grad_lens"
       x1="1"
       y1="0"
       x2="0"
       y2="0">
      <stop
         offset="0%"
         stop-color="#0099ff"
         stop-opacity="0.5"
         id="stop11" />
      <stop
         offset="100%"
         stop-color="#ffffff"
         stop-opacity="0.5"
         id="stop13" />
    </linearGradient>
    <path
       id="bar"
       d="M -7,-3 7,4 V 44 L -7,37 Z"
       fill="#333333" />
    <g
       id="barrier">
      <use
         transform="translate(-84,-22)"
         xlink:href="#bar"
         id="use17"
         x="0"
         y="0"
         width="100%"
         height="100%" />
      <use
         transform="translate(-52,-6)"
         xlink:href="#bar"
         id="use19"
         x="0"
         y="0"
         width="100%"
         height="100%" />
      <use
         transform="translate(-20,10)"
         xlink:href="#bar"
         id="use21"
         x="0"
         y="0"
         width="100%"
         height="100%" />
      <use
         transform="translate(12,26)"
         xlink:href="#bar"
         id="use23"
         x="0"
         y="0"
         width="100%"
         height="100%" />
      <use
         transform="translate(44,42)"
         xlink:href="#bar"
         id="use25"
         x="0"
         y="0"
         width="100%"
         height="100%" />
      <line
         x1="-90"
         y1="-15"
         x2="-110"
         y2="-25"
         stroke-width="0.5"
         id="line27" />
      <text
         x="-140"
         y="-25"
         stroke="none"
         id="text33"><tspan
           id="tspan29">Parallax</tspan><tspan
           x="-140"
           dy="1em"
           id="tspan31">barrier</tspan></text>
    </g>
    <path
       id="lens"
       d="M -16,-8 Q -16,8 16,8 V 48 Q -16,48 -16,32 Z"
       fill="url(#grad_lens)" />
    <g
       id="lenses">
      <path
         d="M -64,-32 V 8 L 64,72"
         fill="none"
         id="path37" />
      <path
         d="M -64,8 -84,18 V -22 L -64,-32 64,32 V 72 L 44,82 V 62"
         fill="url(#grad_lens)"
         id="path39" />
      <path
         d="M 64,32 44,42"
         id="path41" />
      <use
         transform="translate(-68,-14)"
         xlink:href="#lens"
         id="use43"
         x="0"
         y="0"
         width="100%"
         height="100%" />
      <use
         transform="translate(-36,2)"
         xlink:href="#lens"
         id="use45"
         x="0"
         y="0"
         width="100%"
         height="100%" />
      <use
         transform="translate(-4,18)"
         xlink:href="#lens"
         id="use47"
         x="0"
         y="0"
         width="100%"
         height="100%" />
      <use
         transform="translate(28,34)"
         xlink:href="#lens"
         id="use49"
         x="0"
         y="0"
         width="100%"
         height="100%" />
      <line
         x1="-84"
         y1="-22"
         x2="-100"
         y2="-30"
         stroke-width="0.5"
         id="line51" />
      <text
         x="-135"
         y="-25"
         stroke="none"
         id="text57"><tspan
           id="tspan53">Lenticular</tspan><tspan
           x="-135"
           dy="1em"
           id="tspan55">lens</tspan></text>
    </g>
    <g
       id="col">
      <path
         d="M -10,-5 0,-10 20,0 V 40 L 10,45 -10,35 Z"
         id="path60" />
      <path
         d="M 10,5 20,0 v 40 l -10,5 z"
         fill="#000000"
         fill-opacity="0.6"
         id="path62" />
      <path
         d="M 10,5 -10,-5 v 40 l 20,10 z"
         fill="#000000"
         fill-opacity="0.5"
         id="path64" />
    </g>
    <g
       id="col_r">
      <use
         xlink:href="#col"
         fill="#ff9999"
         id="use67"
         x="0"
         y="0"
         width="100%"
         height="100%" />
      <text
         x="10"
         y="-8"
         text-anchor="start"
         stroke="none"
         id="text69">R</text>
    </g>
    <g
       id="col_l">
      <use
         xlink:href="#col"
         fill="#99cc66"
         id="use72"
         x="0"
         y="0"
         width="100%"
         height="100%" />
      <text
         x="10"
         y="-8"
         text-anchor="start"
         stroke="none"
         id="text74">L</text>
    </g>
    <g
       id="screen">
      <use
         transform="translate(-70,-35)"
         xlink:href="#col_r"
         id="use77"
         x="0"
         y="0"
         width="100%"
         height="100%" />
      <use
         transform="translate(-50,-25)"
         xlink:href="#col_l"
         id="use79"
         x="0"
         y="0"
         width="100%"
         height="100%" />
      <use
         transform="translate(-30,-15)"
         xlink:href="#col_r"
         id="use81"
         x="0"
         y="0"
         width="100%"
         height="100%" />
      <use
         transform="translate(-10,-5)"
         xlink:href="#col_l"
         id="use83"
         x="0"
         y="0"
         width="100%"
         height="100%" />
      <use
         transform="translate(10,5)"
         xlink:href="#col_r"
         id="use85"
         x="0"
         y="0"
         width="100%"
         height="100%" />
      <use
         transform="translate(30,15)"
         xlink:href="#col_l"
         id="use87"
         x="0"
         y="0"
         width="100%"
         height="100%" />
      <use
         transform="translate(50,25)"
         xlink:href="#col_r"
         id="use89"
         x="0"
         y="0"
         width="100%"
         height="100%" />
      <use
         transform="translate(70,35)"
         xlink:href="#col_l"
         id="use91"
         x="0"
         y="0"
         width="100%"
         height="100%" />
      <line
         x1="-70"
         y1="-40"
         x2="-90"
         y2="-50"
         stroke-width="0.5"
         id="line93" />
      <text
         x="-90"
         y="-50"
         text-anchor="end"
         stroke="none"
         id="text95">Screen</text>
    </g>
    <g
       id="parallax_l"
       stroke="#669900"
       fill="#99cc66"
       fill-opacity="0.75">
      <path
         d="m -60,-30 -80,60 100,-50"
         id="path98" />
      <path
         d="M -20,-10 -140,30 0,0"
         id="path100" />
      <path
         d="M 20,10 -140,30 40,20"
         id="path102" />
      <path
         d="M 60,30 H -140 L 80,40"
         id="path104" />
    </g>
    <g
       id="parallax_r"
       stroke="#cc6666"
       fill="#ff9999"
       fill-opacity="0.5">
      <path
         d="M -80,-40 -60,70 V -30"
         id="path107" />
      <path
         d="m -40,-20 -20,90 40,-80"
         id="path109" />
      <path
         d="M 0,0 -60,70 20,10"
         id="path111" />
      <path
         d="M 40,20 -60,70 60,30"
         id="path113" />
    </g>
    <g
       id="lenticular_l"
       stroke="#669900"
       fill="#99cc66"
       fill-opacity="0.75">
      <path
         d="m -60,-30 -24,10 -56,50 84,-36 16,-14"
         id="path116" />
      <path
         d="M -20,-10 -52,-4 -140,30 -24,10 0,0"
         id="path118" />
      <path
         d="M 20,10 -20,12 -140,30 6,26 40,20"
         id="path120" />
      <path
         d="M 60,30 12,28 -140,30 38,42 80,40"
         id="path122" />
    </g>
    <g
       id="lenticular_r"
       stroke="#cc6666"
       fill="#ff9999"
       fill-opacity="0.5">
      <path
         d="m -80,-40 -4,20 24,90 6,-76 -6,-24"
         id="path125" />
      <path
         d="m -40,-20 -12,16 -8,74 36,-60 4,-20"
         id="path127" />
      <path
         d="M 0,0 -20,12 -60,70 6,26 20,10"
         id="path129" />
      <path
         d="M 40,20 10,28 -60,70 38,42 60,30"
         id="path131" />
    </g>
    <g
       id="eye_l"
       transform="translate(-140,30)">
      <circle
         cx="0"
         cy="0"
         fill="url(#grad_eye)"
         id="ellipse134"
         r="20" />
      <ellipse
         transform="rotate(-20,-7.1782045,-42.198973)"
         cx="0"
         cy="0"
         rx="5"
         ry="10"
         fill="#996600"
         id="ellipse136" />
      <ellipse
         transform="rotate(-20,-9.0138455,-48.370255)"
         cx="0"
         cy="0"
         rx="2"
         ry="6"
         fill="#000000"
         id="ellipse138" />
      <!-- <ellipse cx="15" cy="-9" rx="1" ry="2" stroke="none" fill="#cccccc"/> -->
      <text
         x="0"
         y="40"
         text-anchor="middle"
         stroke="none"
         id="text140">Left eye</text>
    </g>
    <g
       id="eye_r"
       transform="translate(-60,70)">
      <circle
         cx="0"
         cy="0"
         fill="url(#grad_eye)"
         id="ellipse143"
         r="20" />
      <text
         x="0"
         y="40"
         text-anchor="middle"
         stroke="none"
         id="text145">Right eye</text>
    </g>
    <g
       id="main"
       text-anchor="middle"
       font-family="sans-serif"
       font-size="16px"
       stroke="#000000"
       fill="#000000">
      <g
         id="g160">
        <use
           xlink:href="#screen"
           id="use148"
           x="0"
           y="0"
           width="100%"
           height="100%" />
        <use
           xlink:href="#barrier"
           id="use150"
           x="0"
           y="0"
           width="100%"
           height="100%" />
        <use
           xlink:href="#parallax_l"
           id="use152"
           x="0"
           y="0"
           width="100%"
           height="100%" />
        <use
           xlink:href="#parallax_r"
           id="use154"
           x="0"
           y="0"
           width="100%"
           height="100%" />
        <use
           xlink:href="#eye_l"
           id="use156"
           x="0"
           y="0"
           width="100%"
           height="100%" />
        <use
           xlink:href="#eye_r"
           id="use158"
           x="0"
           y="0"
           width="100%"
           height="100%" />
      </g>
      <g
         transform="translate(0,220)"
         id="g174">
        <use
           xlink:href="#screen"
           id="use162"
           x="0"
           y="0"
           width="100%"
           height="100%" />
        <use
           xlink:href="#lenses"
           id="use164"
           x="0"
           y="0"
           width="100%"
           height="100%" />
        <use
           xlink:href="#lenticular_l"
           id="use166"
           x="0"
           y="0"
           width="100%"
           height="100%" />
        <use
           xlink:href="#lenticular_r"
           id="use168"
           x="0"
           y="0"
           width="100%"
           height="100%" />
        <use
           xlink:href="#eye_l"
           id="use170"
           x="0"
           y="0"
           width="100%"
           height="100%" />
        <use
           xlink:href="#eye_r"
           id="use172"
           x="0"
           y="0"
           width="100%"
           height="100%" />
      </g>
    </g>
    <radialGradient
       xlink:href="#grad_eye"
       id="radialGradient1224"
       cx="0"
       cy="0"
       fx="-10.25"
       fy="-10.25"
       r="20.5"
       gradientUnits="userSpaceOnUse"
       gradientTransform="matrix(1.1489853,0,0,1.1415322,-144.83925,34.878271)" />
    <radialGradient
       xlink:href="#grad_eye"
       id="radialGradient1232"
       cx="0"
       cy="0"
       fx="-10.25"
       fy="-10.25"
       r="20.5"
       gradientUnits="userSpaceOnUse"
       gradientTransform="matrix(1.1489853,0,0,1.1415322,-52.920431,80.539559)" />
    <linearGradient
       xlink:href="#grad_lens"
       id="linearGradient1392"
       x1="56.75568"
       y1="-37.001701"
       x2="-74.35434"
       y2="-37.001701"
       gradientTransform="matrix(1.2939638,0,0,1.0044719,336.95581,0.63230859)"
       gradientUnits="userSpaceOnUse" />
    <linearGradient
       xlink:href="#grad_lens"
       id="linearGradient1396"
       x1="21.589928"
       y1="-6.1139622"
       x2="-21.589928"
       y2="-6.1139622"
       gradientTransform="matrix(0.87017079,0,0,1.4936726,259.53091,-15.349142)"
       gradientUnits="userSpaceOnUse" />
    <linearGradient
       xlink:href="#grad_lens"
       id="linearGradient1400"
       x1="21.589928"
       y1="-6.1139622"
       x2="-21.589928"
       y2="-6.1139622"
       gradientTransform="matrix(0.87017079,0,0,1.4936726,295.96616,2.915373)"
       gradientUnits="userSpaceOnUse" />
    <linearGradient
       xlink:href="#grad_lens"
       id="linearGradient1404"
       x1="21.589928"
       y1="-6.1139622"
       x2="-21.589928"
       y2="-6.1139622"
       gradientTransform="matrix(0.87017079,0,0,1.4936726,332.4014,21.179888)"
       gradientUnits="userSpaceOnUse" />
    <linearGradient
       xlink:href="#grad_lens"
       id="linearGradient1408"
       x1="21.589928"
       y1="-6.1139622"
       x2="-21.589928"
       y2="-6.1139622"
       gradientTransform="matrix(0.87017079,0,0,1.4936726,368.83665,39.444403)"
       gradientUnits="userSpaceOnUse" />
    <radialGradient
       xlink:href="#grad_eye"
       id="radialGradient1440"
       cx="0"
       cy="0"
       fx="-10.25"
       fy="-10.25"
       r="20.5"
       gradientUnits="userSpaceOnUse"
       gradientTransform="matrix(1.1386015,0,0,1.1415322,177.5516,34.878275)" />
    <radialGradient
       xlink:href="#grad_eye"
       id="radialGradient1448"
       cx="0"
       cy="0"
       fx="-10.25"
       fy="-10.25"
       r="20.5"
       gradientUnits="userSpaceOnUse"
       gradientTransform="matrix(1.1386015,0,0,1.1415322,268.63972,80.539563)" />
  </defs>
  <g
     id="use1052"
     style="font-size:16px;font-family:sans-serif;text-anchor:middle;fill:#ff9999;stroke:#000000"
     transform="matrix(1.1489853,0,0,1.1415322,-64.410284,-39.321322)">
    <path
       d="M -10,-5 0,-10 20,0 V 40 L 10,45 -10,35 Z"
       id="path1058" />
    <path
       d="M 10,5 20,0 v 40 l -10,5 z"
       fill="#000000"
       fill-opacity="0.6"
       id="path1060" />
    <path
       d="M 10,5 -10,-5 v 40 l 20,10 z"
       fill="#000000"
       fill-opacity="0.5"
       id="path1062" />
  </g>
  <g
     aria-label="R"
     id="text1054"
     style="font-size:16px;font-family:sans-serif;text-anchor:start;fill:#ffffff;stroke:none"
     transform="matrix(1.1489853,0,0,1.1415322,-64.410284,-39.321322)">
    <path
       d="m 17.101562,-13.46875 q 0.507813,0.171875 0.984375,0.734375 0.484375,0.5625 0.96875,1.546875 L 20.65625,-8 h -1.695313 l -1.492187,-2.992188 q -0.578125,-1.171875 -1.125,-1.554687 -0.539062,-0.382813 -1.476562,-0.382813 h -1.71875 V -8 h -1.578125 v -11.664062 h 3.5625 q 1.999999,0 2.984374,0.835937 0.984375,0.835938 0.984375,2.523438 0,1.101562 -0.515625,1.828124 -0.507812,0.726563 -1.484375,1.007813 z m -3.953124,-4.898437 v 4.140624 h 1.984375 q 1.140624,0 1.718749,-0.523437 0.585938,-0.53125 0.585938,-1.554687 0,-1.023438 -0.585938,-1.539063 -0.578125,-0.523437 -1.718749,-0.523437 z"
       id="path1450"
       style="fill:#ffffff" />
  </g>
  <g
     id="use1066"
     style="font-size:16px;font-family:sans-serif;text-anchor:middle;fill:#99cc66;stroke:#000000"
     transform="matrix(1.1489853,0,0,1.1415322,-41.430578,-27.906)">
    <path
       d="M -10,-5 0,-10 20,0 V 40 L 10,45 -10,35 Z"
       id="path1072" />
    <path
       d="M 10,5 20,0 v 40 l -10,5 z"
       fill="#000000"
       fill-opacity="0.6"
       id="path1074" />
    <path
       d="M 10,5 -10,-5 v 40 l 20,10 z"
       fill="#000000"
       fill-opacity="0.5"
       id="path1076" />
  </g>
  <g
     aria-label="L"
     id="text1068"
     style="font-size:16px;font-family:sans-serif;text-anchor:start;fill:#ffffff;stroke:none"
     transform="matrix(1.1489853,0,0,1.1415322,-41.430578,-27.906)">
    <path
       d="m 11.570313,-19.664062 h 1.578125 v 10.335937 h 5.679687 V -8 h -7.257812 z"
       id="path1453"
       style="fill:#ffffff" />
  </g>
  <g
     id="use1080"
     style="font-size:16px;font-family:sans-serif;text-anchor:middle;fill:#ff9999;stroke:#000000"
     transform="matrix(1.1489853,0,0,1.1415322,-18.450872,-16.490678)">
    <path
       d="M -10,-5 0,-10 20,0 V 40 L 10,45 -10,35 Z"
       id="path1086" />
    <path
       d="M 10,5 20,0 v 40 l -10,5 z"
       fill="#000000"
       fill-opacity="0.6"
       id="path1088" />
    <path
       d="M 10,5 -10,-5 v 40 l 20,10 z"
       fill="#000000"
       fill-opacity="0.5"
       id="path1090" />
  </g>
  <g
     aria-label="R"
     id="text1082"
     style="font-size:16px;font-family:sans-serif;text-anchor:start;fill:#ffffff;stroke:none"
     transform="matrix(1.1489853,0,0,1.1415322,-18.450872,-16.490678)">
    <path
       d="m 17.101562,-13.46875 q 0.507813,0.171875 0.984375,0.734375 0.484375,0.5625 0.96875,1.546875 L 20.65625,-8 h -1.695313 l -1.492187,-2.992188 q -0.578125,-1.171875 -1.125,-1.554687 -0.539062,-0.382813 -1.476562,-0.382813 h -1.71875 V -8 h -1.578125 v -11.664062 h 3.5625 q 1.999999,0 2.984374,0.835937 0.984375,0.835938 0.984375,2.523438 0,1.101562 -0.515625,1.828124 -0.507812,0.726563 -1.484375,1.007813 z m -3.953124,-4.898437 v 4.140624 h 1.984375 q 1.140624,0 1.718749,-0.523437 0.585938,-0.53125 0.585938,-1.554687 0,-1.023438 -0.585938,-1.539063 -0.578125,-0.523437 -1.718749,-0.523437 z"
       id="path1456"
       style="fill:#ffffff" />
  </g>
  <g
     id="use1094"
     style="font-size:16px;font-family:sans-serif;text-anchor:middle;fill:#99cc66;stroke:#000000"
     transform="matrix(1.1489853,0,0,1.1415322,4.528834,-5.0753561)">
    <path
       d="M -10,-5 0,-10 20,0 V 40 L 10,45 -10,35 Z"
       id="path1100" />
    <path
       d="M 10,5 20,0 v 40 l -10,5 z"
       fill="#000000"
       fill-opacity="0.6"
       id="path1102" />
    <path
       d="M 10,5 -10,-5 v 40 l 20,10 z"
       fill="#000000"
       fill-opacity="0.5"
       id="path1104" />
  </g>
  <g
     aria-label="L"
     id="text1096"
     style="font-size:16px;font-family:sans-serif;text-anchor:start;fill:#ffffff;stroke:none"
     transform="matrix(1.1489853,0,0,1.1415322,4.528834,-5.0753561)">
    <path
       d="m 11.570313,-19.664062 h 1.578125 v 10.335937 h 5.679687 V -8 h -7.257812 z"
       id="path1459"
       style="fill:#ffffff" />
  </g>
  <g
     id="use1108"
     style="font-size:16px;font-family:sans-serif;text-anchor:middle;fill:#ff9999;stroke:#000000"
     transform="matrix(1.1489853,0,0,1.1415322,27.50854,6.3399659)">
    <path
       d="M -10,-5 0,-10 20,0 V 40 L 10,45 -10,35 Z"
       id="path1114" />
    <path
       d="M 10,5 20,0 v 40 l -10,5 z"
       fill="#000000"
       fill-opacity="0.6"
       id="path1116" />
    <path
       d="M 10,5 -10,-5 v 40 l 20,10 z"
       fill="#000000"
       fill-opacity="0.5"
       id="path1118" />
  </g>
  <g
     aria-label="R"
     id="text1110"
     style="font-size:16px;font-family:sans-serif;text-anchor:start;fill:#ffffff;stroke:none"
     transform="matrix(1.1489853,0,0,1.1415322,27.50854,6.3399659)">
    <path
       d="m 17.101562,-13.46875 q 0.507813,0.171875 0.984375,0.734375 0.484375,0.5625 0.96875,1.546875 L 20.65625,-8 h -1.695313 l -1.492187,-2.992188 q -0.578125,-1.171875 -1.125,-1.554687 -0.539062,-0.382813 -1.476562,-0.382813 h -1.71875 V -8 h -1.578125 v -11.664062 h 3.5625 q 1.999999,0 2.984374,0.835937 0.984375,0.835938 0.984375,2.523438 0,1.101562 -0.515625,1.828124 -0.507812,0.726563 -1.484375,1.007813 z m -3.953124,-4.898437 v 4.140624 h 1.984375 q 1.140624,0 1.718749,-0.523437 0.585938,-0.53125 0.585938,-1.554687 0,-1.023438 -0.585938,-1.539063 -0.578125,-0.523437 -1.718749,-0.523437 z"
       id="path1462"
       style="fill:#ffffff" />
  </g>
  <g
     id="use1122"
     style="font-size:16px;font-family:sans-serif;text-anchor:middle;fill:#99cc66;stroke:#000000"
     transform="matrix(1.1489853,0,0,1.1415322,50.488246,17.755288)">
    <path
       d="M -10,-5 0,-10 20,0 V 40 L 10,45 -10,35 Z"
       id="path1128" />
    <path
       d="M 10,5 20,0 v 40 l -10,5 z"
       fill="#000000"
       fill-opacity="0.6"
       id="path1130" />
    <path
       d="M 10,5 -10,-5 v 40 l 20,10 z"
       fill="#000000"
       fill-opacity="0.5"
       id="path1132" />
  </g>
  <g
     aria-label="L"
     id="text1124"
     style="font-size:16px;font-family:sans-serif;text-anchor:start;fill:#ffffff;stroke:none"
     transform="matrix(1.1489853,0,0,1.1415322,50.488246,17.755288)">
    <path
       d="m 11.570313,-19.664062 h 1.578125 v 10.335937 h 5.679687 V -8 h -7.257812 z"
       id="path1465"
       style="fill:#ffffff" />
  </g>
  <g
     id="use1136"
     style="font-size:16px;font-family:sans-serif;text-anchor:middle;fill:#ff9999;stroke:#000000"
     transform="matrix(1.1489853,0,0,1.1415322,73.467952,29.17061)">
    <path
       d="M -10,-5 0,-10 20,0 V 40 L 10,45 -10,35 Z"
       id="path1142" />
    <path
       d="M 10,5 20,0 v 40 l -10,5 z"
       fill="#000000"
       fill-opacity="0.6"
       id="path1144" />
    <path
       d="M 10,5 -10,-5 v 40 l 20,10 z"
       fill="#000000"
       fill-opacity="0.5"
       id="path1146" />
  </g>
  <g
     aria-label="R"
     id="text1138"
     style="font-size:16px;font-family:sans-serif;text-anchor:start;fill:#ffffff;stroke:none"
     transform="matrix(1.1489853,0,0,1.1415322,73.467952,29.17061)">
    <path
       d="m 17.101562,-13.46875 q 0.507813,0.171875 0.984375,0.734375 0.484375,0.5625 0.96875,1.546875 L 20.65625,-8 h -1.695313 l -1.492187,-2.992188 q -0.578125,-1.171875 -1.125,-1.554687 -0.539062,-0.382813 -1.476562,-0.382813 h -1.71875 V -8 h -1.578125 v -11.664062 h 3.5625 q 1.999999,0 2.984374,0.835937 0.984375,0.835938 0.984375,2.523438 0,1.101562 -0.515625,1.828124 -0.507812,0.726563 -1.484375,1.007813 z m -3.953124,-4.898437 v 4.140624 h 1.984375 q 1.140624,0 1.718749,-0.523437 0.585938,-0.53125 0.585938,-1.554687 0,-1.023438 -0.585938,-1.539063 -0.578125,-0.523437 -1.718749,-0.523437 z"
       id="path1468"
       style="fill:#ffffff" />
  </g>
  <g
     id="use1150"
     style="font-size:16px;font-family:sans-serif;text-anchor:middle;fill:#99cc66;stroke:#000000"
     transform="matrix(1.1489853,0,0,1.1415322,96.447658,40.585932)">
    <path
       d="M -10,-5 0,-10 20,0 V 40 L 10,45 -10,35 Z"
       id="path1156" />
    <path
       d="M 10,5 20,0 v 40 l -10,5 z"
       fill="#000000"
       fill-opacity="0.6"
       id="path1158" />
    <path
       d="M 10,5 -10,-5 v 40 l 20,10 z"
       fill="#000000"
       fill-opacity="0.5"
       id="path1160" />
  </g>
  <g
     aria-label="L"
     id="text1152"
     style="font-size:16px;font-family:sans-serif;text-anchor:start;fill:#ffffff;stroke:none"
     transform="matrix(1.1489853,0,0,1.1415322,96.447658,40.585932)">
    <path
       d="m 11.570313,-19.664062 h 1.578125 v 10.335937 h 5.679687 V -8 h -7.257812 z"
       id="path1471"
       style="fill:#ffffff" />
  </g>
  <path
     id="line1046"
     style="font-size:16px;font-family:sans-serif;text-anchor:middle;fill:#000000;stroke:#000000;stroke-width:0.572626"
     d="M -64.410284,-45.028983 -87.38999,-56.444305" />
  <text
     xml:space="preserve"
     style="font-size:16px;line-height:1.25;font-family:sans-serif;text-anchor:end;fill:#ffffff;stroke:none;stroke-width:1"
     x="-91.517365"
     y="-54.736645"
     id="text5866"><tspan
       id="tspan5864"
       style="font-size:16px;stroke-width:1;fill:#ffffff"
       x="-91.517365"
       y="-54.736645">Display</tspan></text>
  <text
     xml:space="preserve"
     style="font-size:16px;line-height:1.25;font-family:sans-serif;-inkscape-font-specification:sans-serif;text-align:center;word-spacing:0px;text-anchor:middle;fill:#ffffff;stroke:none;stroke-width:1"
     x="-144.06616"
     y="-31.683222"
     id="text40911"><tspan
       sodipodi:role="line"
       id="tspan40909"
       style="text-align:center;text-anchor:middle;stroke-width:1;fill:#ffffff"
       x="-144.06616"
       y="-31.683222">Parallax</tspan><tspan
       sodipodi:role="line"
       style="text-align:center;text-anchor:middle;stroke-width:1;fill:#ffffff"
       x="-144.06616"
       y="-11.683222"
       id="tspan40913">barrier</tspan></text>
  <text
     xml:space="preserve"
     style="font-size:16px;line-height:1.25;font-family:sans-serif;-inkscape-font-specification:sans-serif;text-align:center;word-spacing:0px;text-anchor:middle;fill:#ffffff;stroke:none;stroke-width:1"
     x="182.60738"
     y="-30.845812"
     id="text40911-3"><tspan
       sodipodi:role="line"
       style="text-align:center;text-anchor:middle;stroke-width:1;fill:#ffffff"
       x="182.60738"
       y="-30.845812"
       id="tspan40913-7">Lenticular</tspan><tspan
       sodipodi:role="line"
       style="text-align:center;text-anchor:middle;stroke-width:1;fill:#ffffff"
       x="182.60738"
       y="-10.845813"
       id="tspan45661">grid</tspan></text>
  <g
     aria-label="Screen"
     id="text1048-1"
     style="font-size:16px;font-family:sans-serif;text-anchor:end;fill:#ffffff;stroke:none"
     transform="matrix(1.1489853,0,0,1.1415322,339.22188,-1.3676953)">
    <text
       xml:space="preserve"
       style="font-size:13.9707px;line-height:1.25;font-family:sans-serif;stroke-width:0.87317;fill:#ffffff"
       x="-93.897224"
       y="-46.600151"
       id="text5866-2"
       transform="scale(0.99675138,1.0032592)"><tspan
         id="tspan5864-70"
         style="font-size:13.9707px;stroke-width:0.87317;fill:#ffffff"
         x="-93.897224"
         y="-46.600151">Display</tspan></text>
  </g>
  <path
     id="use1164"
     d="m -88.538975,-27.906 16.085794,7.990725 v 45.661288 l -16.085794,-7.990725 z"
     fill="#333333"
     style="font-size:16px;font-family:sans-serif;text-anchor:middle;stroke:#000000;stroke-width:1.14525" />
  <path
     id="use1166"
     d="m -51.771446,-9.6414849 16.085794,7.9907254 V 44.010528 l -16.085794,-7.990725 z"
     fill="#333333"
     style="font-size:16px;font-family:sans-serif;text-anchor:middle;stroke:#000000;stroke-width:1.14525" />
  <path
     id="use1168"
     d="M -15.003916,8.6230303 1.0818781,16.613756 V 62.275044 L -15.003916,54.284318 Z"
     fill="#333333"
     style="font-size:16px;font-family:sans-serif;text-anchor:middle;stroke:#000000;stroke-width:1.14525" />
  <path
     id="use1170"
     d="m 21.763613,26.887545 16.085795,7.990726 V 80.539559 L 21.763613,72.548833 Z"
     fill="#333333"
     style="font-size:16px;font-family:sans-serif;text-anchor:middle;stroke:#000000;stroke-width:1.14525" />
  <path
     id="use1172"
     d="m 58.531143,45.152061 16.085794,7.990725 V 98.804074 L 58.531143,90.813349 Z"
     fill="#333333"
     style="font-size:16px;font-family:sans-serif;text-anchor:middle;stroke:#000000;stroke-width:1.14525" />
  <path
     id="line1174"
     style="font-size:16px;font-family:sans-serif;text-anchor:middle;fill:#000000;stroke:#000000;stroke-width:0.572626"
     d="M -87.38999,-16.490678 -110.3697,-27.906" />
  <g
     id="use1004"
     stroke="#669900"
     fill="#99cc66"
     fill-opacity="0.75"
     transform="matrix(1.1489853,0,0,1.1415322,16.018687,0.63230488)"
     style="font-size:16px;font-family:sans-serif;text-anchor:middle">
    <path
       d="m -60,-30 -80,60 100,-50"
       id="path1194" />
    <path
       d="M -20,-10 -140,30 0,0"
       id="path1196" />
    <path
       d="M 20,10 -140,30 40,20"
       id="path1198" />
    <path
       d="M 60,30 H -140 L 80,40"
       id="path1200" />
  </g>
  <g
     id="use1006"
     stroke="#cc6666"
     fill="#ff9999"
     fill-opacity="0.5"
     transform="matrix(1.1489853,0,0,1.1415322,16.018687,0.63230488)"
     style="font-size:16px;font-family:sans-serif;text-anchor:middle">
    <path
       d="M -80,-40 -60,70 V -30"
       id="path1204" />
    <path
       d="m -40,-20 -20,90 40,-80"
       id="path1206" />
    <path
       d="M 0,0 -60,70 20,10"
       id="path1208" />
    <path
       d="M 40,20 -60,70 60,30"
       id="path1210" />
  </g>
  <path
     id="ellipse1214"
     style="font-size:16px;font-family:sans-serif;text-anchor:middle;fill:url(#radialGradient1224);stroke:#000000;stroke-width:1.14525"
     d="m -121.85954,34.878271 a 22.979706,22.830644 0 0 1 -22.97971,22.830644 22.979706,22.830644 0 0 1 -22.97971,-22.830644 22.979706,22.830644 0 0 1 22.97971,-22.830644 22.979706,22.830644 0 0 1 22.97971,22.830644 z" />
  <path
     id="ellipse1216"
     style="font-size:16px;font-family:sans-serif;text-anchor:middle;fill:#996600;stroke:#000000;stroke-width:1.14525"
     d="m -123.35499,27.218475 a 11.4241,5.7405125 69.798902 0 1 -1.46871,12.679029 11.4241,5.7405125 69.798902 0 1 -9.32822,-8.774759 11.4241,5.7405125 69.798902 0 1 1.4687,-12.679029 11.4241,5.7405125 69.798902 0 1 9.32823,8.774759 z" />
  <path
     id="ellipse1218"
     d="m -124.2961,27.248224 a 6.854447,2.2962093 69.849566 0 1 0.19847,7.21699 6.854447,2.2962093 69.849566 0 1 -4.51725,-5.655282 6.854447,2.2962093 69.849566 0 1 -0.19847,-7.21699 6.854447,2.2962093 69.849566 0 1 4.51725,5.655282 z"
     style="font-size:16px;font-family:sans-serif;text-anchor:middle;fill:#000000;stroke:#000000;stroke-width:1.14525" />
  <path
     id="ellipse1226"
     style="font-size:16px;font-family:sans-serif;text-anchor:middle;fill:url(#radialGradient1232);stroke:#000000;stroke-width:1.14525"
     d="M -29.940725,80.539559 A 22.979706,22.830644 0 0 1 -52.920431,103.3702 22.979706,22.830644 0 0 1 -75.900137,80.539559 22.979706,22.830644 0 0 1 -52.920431,57.708915 22.979706,22.830644 0 0 1 -29.940725,80.539559 Z" />
  <g
     id="use1256"
     style="font-size:16px;font-family:sans-serif;text-anchor:middle;fill:#ff9999;stroke:#000000"
     transform="matrix(1.1386015,0,0,1.1415322,257.2537,-39.321318)">
    <path
       d="M -10,-5 0,-10 20,0 V 40 L 10,45 -10,35 Z"
       id="path1262" />
    <path
       d="M 10,5 20,0 v 40 l -10,5 z"
       fill="#000000"
       fill-opacity="0.6"
       id="path1264" />
    <path
       d="M 10,5 -10,-5 v 40 l 20,10 z"
       fill="#000000"
       fill-opacity="0.5"
       id="path1266" />
  </g>
  <g
     aria-label="R"
     id="text1258"
     style="font-size:16px;font-family:sans-serif;text-anchor:start;fill:#ffffff;stroke:none"
     transform="matrix(1.1386015,0,0,1.1415322,257.2537,-39.321318)">
    <path
       d="m 17.101562,-13.46875 q 0.507813,0.171875 0.984375,0.734375 0.484375,0.5625 0.96875,1.546875 L 20.65625,-8 h -1.695313 l -1.492187,-2.992188 q -0.578125,-1.171875 -1.125,-1.554687 -0.539062,-0.382813 -1.476562,-0.382813 h -1.71875 V -8 h -1.578125 v -11.664062 h 3.5625 q 1.999999,0 2.984374,0.835937 0.984375,0.835938 0.984375,2.523438 0,1.101562 -0.515625,1.828124 -0.507812,0.726563 -1.484375,1.007813 z m -3.953124,-4.898437 v 4.140624 h 1.984375 q 1.140624,0 1.718749,-0.523437 0.585938,-0.53125 0.585938,-1.554687 0,-1.023438 -0.585938,-1.539063 -0.578125,-0.523437 -1.718749,-0.523437 z"
       id="path1556"
       style="fill:#ffffff" />
  </g>
  <g
     id="use1270"
     style="font-size:16px;font-family:sans-serif;text-anchor:middle;fill:#99cc66;stroke:#000000"
     transform="matrix(1.1386015,0,0,1.1415322,280.02573,-27.905996)">
    <path
       d="M -10,-5 0,-10 20,0 V 40 L 10,45 -10,35 Z"
       id="path1276" />
    <path
       d="M 10,5 20,0 v 40 l -10,5 z"
       fill="#000000"
       fill-opacity="0.6"
       id="path1278" />
    <path
       d="M 10,5 -10,-5 v 40 l 20,10 z"
       fill="#000000"
       fill-opacity="0.5"
       id="path1280" />
  </g>
  <g
     aria-label="L"
     id="text1272"
     style="font-size:16px;font-family:sans-serif;text-anchor:start;fill:#ffffff;stroke:none"
     transform="matrix(1.1386015,0,0,1.1415322,280.02573,-27.905996)">
    <path
       d="m 11.570313,-19.664062 h 1.578125 v 10.335937 h 5.679687 V -8 h -7.257812 z"
       id="path1559"
       style="fill:#ffffff" />
  </g>
  <g
     id="use1284"
     style="font-size:16px;font-family:sans-serif;text-anchor:middle;fill:#ff9999;stroke:#000000"
     transform="matrix(1.1386015,0,0,1.1415322,302.79776,-16.490674)">
    <path
       d="M -10,-5 0,-10 20,0 V 40 L 10,45 -10,35 Z"
       id="path1290" />
    <path
       d="M 10,5 20,0 v 40 l -10,5 z"
       fill="#000000"
       fill-opacity="0.6"
       id="path1292" />
    <path
       d="M 10,5 -10,-5 v 40 l 20,10 z"
       fill="#000000"
       fill-opacity="0.5"
       id="path1294" />
  </g>
  <g
     aria-label="R"
     id="text1286"
     style="font-size:16px;font-family:sans-serif;text-anchor:start;fill:#ffffff;stroke:none"
     transform="matrix(1.1386015,0,0,1.1415322,302.79776,-16.490674)">
    <path
       d="m 17.101562,-13.46875 q 0.507813,0.171875 0.984375,0.734375 0.484375,0.5625 0.96875,1.546875 L 20.65625,-8 h -1.695313 l -1.492187,-2.992188 q -0.578125,-1.171875 -1.125,-1.554687 -0.539062,-0.382813 -1.476562,-0.382813 h -1.71875 V -8 h -1.578125 v -11.664062 h 3.5625 q 1.999999,0 2.984374,0.835937 0.984375,0.835938 0.984375,2.523438 0,1.101562 -0.515625,1.828124 -0.507812,0.726563 -1.484375,1.007813 z m -3.953124,-4.898437 v 4.140624 h 1.984375 q 1.140624,0 1.718749,-0.523437 0.585938,-0.53125 0.585938,-1.554687 0,-1.023438 -0.585938,-1.539063 -0.578125,-0.523437 -1.718749,-0.523437 z"
       id="path1562"
       style="fill:#ffffff" />
  </g>
  <g
     id="use1298"
     style="font-size:16px;font-family:sans-serif;text-anchor:middle;fill:#99cc66;stroke:#000000"
     transform="matrix(1.1386015,0,0,1.1415322,325.56979,-5.0753524)">
    <path
       d="M -10,-5 0,-10 20,0 V 40 L 10,45 -10,35 Z"
       id="path1304" />
    <path
       d="M 10,5 20,0 v 40 l -10,5 z"
       fill="#000000"
       fill-opacity="0.6"
       id="path1306" />
    <path
       d="M 10,5 -10,-5 v 40 l 20,10 z"
       fill="#000000"
       fill-opacity="0.5"
       id="path1308" />
  </g>
  <g
     aria-label="L"
     id="text1300"
     style="font-size:16px;font-family:sans-serif;text-anchor:start;fill:#ffffff;stroke:none"
     transform="matrix(1.1386015,0,0,1.1415322,325.56979,-5.0753524)">
    <path
       d="m 11.570313,-19.664062 h 1.578125 v 10.335937 h 5.679687 V -8 h -7.257812 z"
       id="path1565"
       style="fill:#ffffff" />
  </g>
  <g
     id="use1312"
     style="font-size:16px;font-family:sans-serif;text-anchor:middle;fill:#ff9999;stroke:#000000"
     transform="matrix(1.1386015,0,0,1.1415322,348.34182,6.3399696)">
    <path
       d="M -10,-5 0,-10 20,0 V 40 L 10,45 -10,35 Z"
       id="path1318" />
    <path
       d="M 10,5 20,0 v 40 l -10,5 z"
       fill="#000000"
       fill-opacity="0.6"
       id="path1320" />
    <path
       d="M 10,5 -10,-5 v 40 l 20,10 z"
       fill="#000000"
       fill-opacity="0.5"
       id="path1322" />
  </g>
  <g
     aria-label="R"
     id="text1314"
     style="font-size:16px;font-family:sans-serif;text-anchor:start;fill:#ffffff;stroke:none"
     transform="matrix(1.1386015,0,0,1.1415322,348.34182,6.3399696)">
    <path
       d="m 17.101562,-13.46875 q 0.507813,0.171875 0.984375,0.734375 0.484375,0.5625 0.96875,1.546875 L 20.65625,-8 h -1.695313 l -1.492187,-2.992188 q -0.578125,-1.171875 -1.125,-1.554687 -0.539062,-0.382813 -1.476562,-0.382813 h -1.71875 V -8 h -1.578125 v -11.664062 h 3.5625 q 1.999999,0 2.984374,0.835937 0.984375,0.835938 0.984375,2.523438 0,1.101562 -0.515625,1.828124 -0.507812,0.726563 -1.484375,1.007813 z m -3.953124,-4.898437 v 4.140624 h 1.984375 q 1.140624,0 1.718749,-0.523437 0.585938,-0.53125 0.585938,-1.554687 0,-1.023438 -0.585938,-1.539063 -0.578125,-0.523437 -1.718749,-0.523437 z"
       id="path1568"
       style="fill:#ffffff" />
  </g>
  <g
     id="use1326"
     style="font-size:16px;font-family:sans-serif;text-anchor:middle;fill:#99cc66;stroke:#000000"
     transform="matrix(1.1386015,0,0,1.1415322,371.11385,17.755292)">
    <path
       d="M -10,-5 0,-10 20,0 V 40 L 10,45 -10,35 Z"
       id="path1332" />
    <path
       d="M 10,5 20,0 v 40 l -10,5 z"
       fill="#000000"
       fill-opacity="0.6"
       id="path1334" />
    <path
       d="M 10,5 -10,-5 v 40 l 20,10 z"
       fill="#000000"
       fill-opacity="0.5"
       id="path1336" />
  </g>
  <g
     aria-label="L"
     id="text1328"
     style="font-size:16px;font-family:sans-serif;text-anchor:start;fill:#ffffff;stroke:none"
     transform="matrix(1.1386015,0,0,1.1415322,371.11385,17.755292)">
    <path
       d="m 11.570313,-19.664062 h 1.578125 v 10.335937 h 5.679687 V -8 h -7.257812 z"
       id="path1571"
       style="fill:#ffffff" />
  </g>
  <g
     id="use1340"
     style="font-size:16px;font-family:sans-serif;text-anchor:middle;fill:#ff9999;stroke:#000000"
     transform="matrix(1.1386015,0,0,1.1415322,393.88588,29.170614)">
    <path
       d="M -10,-5 0,-10 20,0 V 40 L 10,45 -10,35 Z"
       id="path1346" />
    <path
       d="M 10,5 20,0 v 40 l -10,5 z"
       fill="#000000"
       fill-opacity="0.6"
       id="path1348" />
    <path
       d="M 10,5 -10,-5 v 40 l 20,10 z"
       fill="#000000"
       fill-opacity="0.5"
       id="path1350" />
  </g>
  <g
     aria-label="R"
     id="text1342"
     style="font-size:16px;font-family:sans-serif;text-anchor:start;fill:#ffffff;stroke:none"
     transform="matrix(1.1386015,0,0,1.1415322,393.88588,29.170614)">
    <path
       d="m 17.101562,-13.46875 q 0.507813,0.171875 0.984375,0.734375 0.484375,0.5625 0.96875,1.546875 L 20.65625,-8 h -1.695313 l -1.492187,-2.992188 q -0.578125,-1.171875 -1.125,-1.554687 -0.539062,-0.382813 -1.476562,-0.382813 h -1.71875 V -8 h -1.578125 v -11.664062 h 3.5625 q 1.999999,0 2.984374,0.835937 0.984375,0.835938 0.984375,2.523438 0,1.101562 -0.515625,1.828124 -0.507812,0.726563 -1.484375,1.007813 z m -3.953124,-4.898437 v 4.140624 h 1.984375 q 1.140624,0 1.718749,-0.523437 0.585938,-0.53125 0.585938,-1.554687 0,-1.023438 -0.585938,-1.539063 -0.578125,-0.523437 -1.718749,-0.523437 z"
       id="path1574"
       style="fill:#ffffff" />
  </g>
  <g
     id="use1354"
     style="font-size:16px;font-family:sans-serif;text-anchor:middle;fill:#99cc66;stroke:#000000"
     transform="matrix(1.1386015,0,0,1.1415322,416.65791,40.585936)">
    <path
       d="M -10,-5 0,-10 20,0 V 40 L 10,45 -10,35 Z"
       id="path1360" />
    <path
       d="M 10,5 20,0 v 40 l -10,5 z"
       fill="#000000"
       fill-opacity="0.6"
       id="path1362" />
    <path
       d="M 10,5 -10,-5 v 40 l 20,10 z"
       fill="#000000"
       fill-opacity="0.5"
       id="path1364" />
  </g>
  <g
     aria-label="L"
     id="text1356"
     style="font-size:16px;font-family:sans-serif;text-anchor:start;fill:#ffffff;stroke:none"
     transform="matrix(1.1386015,0,0,1.1415322,416.65791,40.585936)">
    <path
       d="m 11.570313,-19.664062 h 1.578125 v 10.335937 h 5.679687 V -8 h -7.257812 z"
       id="path1577"
       style="fill:#ffffff" />
  </g>
  <path
     id="line1250"
     style="font-size:16px;font-family:sans-serif;text-anchor:middle;fill:#000000;stroke:#000000;stroke-width:0.570033"
     d="M 257.2537,-45.028979 234.48167,-56.444301" />
  <path
     d="M 264.08531,-35.896722 V 9.7645662 l 145.741,73.0580608"
     fill="none"
     id="path1368"
     style="font-size:16px;font-family:sans-serif;text-anchor:middle;stroke:#000000;stroke-width:1.14007" />
  <path
     d="M 264.08531,9.7645662 241.31328,21.179888 V -24.4814 l 22.77203,-11.415322 145.741,73.058061 V 82.822627 L 387.05428,94.237949 V 71.407305"
     fill="url(#grad_lens)"
     id="path1370"
     style="font-size:16px;font-family:sans-serif;text-anchor:middle;fill:url(#linearGradient1392);stroke:#000000;stroke-width:1.14007" />
  <path
     d="M 409.82631,37.161339 387.05428,48.576661"
     id="path1372"
     style="font-size:16px;font-family:sans-serif;text-anchor:middle;fill:#000000;stroke:#000000;stroke-width:1.14007" />
  <path
     id="use1374"
     d="m 241.31328,-24.4814 q 0,18.2645154 36.43525,18.2645154 V 39.444403 q -36.43525,0 -36.43525,-18.264515 z"
     fill="url(#grad_lens)"
     style="font-size:16px;font-family:sans-serif;text-anchor:middle;fill:url(#linearGradient1396);stroke:#000000;stroke-width:1.14007" />
  <path
     id="use1376"
     d="m 277.74853,-6.2168846 q 0,18.2645156 36.43525,18.2645156 v 45.661288 q -36.43525,0 -36.43525,-18.264516 z"
     fill="url(#grad_lens)"
     style="font-size:16px;font-family:sans-serif;text-anchor:middle;fill:url(#linearGradient1400);stroke:#000000;stroke-width:1.14007" />
  <path
     id="use1378"
     d="m 314.18378,12.047631 q 0,18.264515 36.43525,18.264515 v 45.661288 q -36.43525,0 -36.43525,-18.264515 z"
     fill="url(#grad_lens)"
     style="font-size:16px;font-family:sans-serif;text-anchor:middle;fill:url(#linearGradient1404);stroke:#000000;stroke-width:1.14007" />
  <path
     id="use1380"
     d="m 350.61903,30.312146 q 0,18.264515 36.43525,18.264515 v 45.661288 q -36.43525,0 -36.43525,-18.264515 z"
     fill="url(#grad_lens)"
     style="font-size:16px;font-family:sans-serif;text-anchor:middle;fill:url(#linearGradient1408);stroke:#000000;stroke-width:1.14007" />
  <path
     id="line1382"
     style="font-size:16px;font-family:sans-serif;text-anchor:middle;fill:#000000;stroke:#000000;stroke-width:0.570033"
     d="m 241.31328,-24.4814 -18.21762,-9.132257" />
  <g
     id="use1018"
     stroke="#669900"
     fill="#99cc66"
     fill-opacity="0.75"
     transform="matrix(1.1386015,0,0,1.1415322,336.95581,0.63230859)"
     style="font-size:16px;font-family:sans-serif;text-anchor:middle">
    <path
       d="m -60,-30 -24,10 -56,50 84,-36 16,-14"
       id="path1410" />
    <path
       d="M -20,-10 -52,-4 -140,30 -24,10 0,0"
       id="path1412" />
    <path
       d="M 20,10 -20,12 -140,30 6,26 40,20"
       id="path1414" />
    <path
       d="M 60,30 12,28 -140,30 38,42 80,40"
       id="path1416" />
  </g>
  <g
     id="use1020"
     stroke="#cc6666"
     fill="#ff9999"
     fill-opacity="0.5"
     transform="matrix(1.1386015,0,0,1.1415322,336.95581,0.63230859)"
     style="font-size:16px;font-family:sans-serif;text-anchor:middle">
    <path
       d="m -80,-40 -4,20 24,90 6,-76 -6,-24"
       id="path1420" />
    <path
       d="m -40,-20 -12,16 -8,74 36,-60 4,-20"
       id="path1422" />
    <path
       d="M 0,0 -20,12 -60,70 6,26 20,10"
       id="path1424" />
    <path
       d="M 40,20 10,28 -60,70 38,42 60,30"
       id="path1426" />
  </g>
  <path
     id="ellipse1430"
     style="font-size:16px;font-family:sans-serif;text-anchor:middle;fill:url(#radialGradient1440);stroke:#000000;stroke-width:1.14007"
     d="M 200.32363,34.878275 A 22.77203,22.830644 0 0 1 177.5516,57.708919 22.77203,22.830644 0 0 1 154.77957,34.878275 22.77203,22.830644 0 0 1 177.5516,12.047631 22.77203,22.830644 0 0 1 200.32363,34.878275 Z" />
  <path
     id="ellipse1432"
     style="font-size:16px;font-family:sans-serif;text-anchor:middle;fill:#996600;stroke:#000000;stroke-width:1.14007"
     d="m 198.8417,27.218479 a 11.411903,5.6947131 70.078684 0 1 -1.45543,12.679029 11.411903,5.6947131 70.078684 0 1 -9.24393,-8.774759 11.411903,5.6947131 70.078684 0 1 1.45543,-12.679029 11.411903,5.6947131 70.078684 0 1 9.24393,8.774759 z" />
  <path
     id="ellipse1434"
     d="m 197.90909,27.248228 a 6.8471398,2.2778859 70.059073 0 1 0.19668,7.21699 6.8471398,2.2778859 70.059073 0 1 -4.47642,-5.655282 6.8471398,2.2778859 70.059073 0 1 -0.19668,-7.21699 6.8471398,2.2778859 70.059073 0 1 4.47642,5.655282 z"
     style="font-size:16px;font-family:sans-serif;text-anchor:middle;fill:#000000;stroke:#000000;stroke-width:1.14007" />
  <path
     id="ellipse1442"
     style="font-size:16px;font-family:sans-serif;text-anchor:middle;fill:url(#radialGradient1448);stroke:#000000;stroke-width:1.14007"
     d="M 291.41175,80.539563 A 22.77203,22.830644 0 0 1 268.63972,103.37021 22.77203,22.830644 0 0 1 245.86769,80.539563 22.77203,22.830644 0 0 1 268.63972,57.708919 22.77203,22.830644 0 0 1 291.41175,80.539563 Z" />
  <metadata
     id="metadata2044">
    <rdf:RDF>
      <cc:Work
         rdf:about="">
        <dc:title>Comparison of parallax-barrier and lenticular autostereoscopic displays</dc:title>
      </cc:Work>
    </rdf:RDF>
  </metadata>
  <g
     aria-label="Screen"
     id="text1048-5"
     style="font-size:16px;font-family:sans-serif;text-anchor:end;fill:#ffffff;stroke:none"
     transform="matrix(1.1489853,0,0,1.1415322,-3.0532376,123.80672)">
    <text
       xml:space="preserve"
       style="font-size:13.9707px;line-height:1.25;font-family:sans-serif;stroke-width:0.87317;fill:#ffffff"
       x="-124.01168"
       y="-45.386532"
       id="text5866-3"
       transform="scale(0.99675138,1.0032592)"><tspan
         style="font-size:13.9707px;text-align:center;text-anchor:middle;stroke-width:0.87317;fill:#ffffff"
         x="-124.01168"
         y="-45.386532"
         id="tspan18812">Left eye</tspan></text>
  </g>
  <g
     aria-label="Screen"
     id="text1048-5-5"
     style="font-size:16px;font-family:sans-serif;text-anchor:end;fill:#ffffff;stroke:none"
     transform="matrix(1.1489853,0,0,1.1415322,93.234064,208.5576)">
    <text
       xml:space="preserve"
       style="font-size:13.9707px;line-height:1.25;font-family:sans-serif;stroke-width:0.87317;fill:#ffffff"
       x="-130.55727"
       y="-76.934143"
       id="text5866-3-35"
       transform="scale(0.99675138,1.0032592)"><tspan
         style="font-size:13.9707px;text-align:center;text-anchor:middle;stroke-width:0.87317;fill:#ffffff"
         x="-130.55727"
         y="-76.934143"
         id="tspan18812-62">Right eye</tspan></text>
  </g>
  <g
     aria-label="Screen"
     id="text1048-5-6"
     style="font-size:16px;font-family:sans-serif;text-anchor:end;fill:#000000;stroke:none;font-variation-settings:normal;opacity:1;vector-effect:none;fill-opacity:1;stroke-width:0.87317;stroke-linecap:butt;stroke-linejoin:miter;stroke-miterlimit:4;stroke-dasharray:none;stroke-dashoffset:0;stroke-opacity:1;-inkscape-stroke:none;stop-color:#000000;stop-opacity:1"
     transform="matrix(1.1489853,0,0,1.1415322,102.53606,204.81713)">
    <g
       aria-label="Rechtes Auge"
       transform="scale(0.99675138,1.0032592)"
       id="text5866-3-2"
       style="font-size:13.9707px;line-height:1.25;stroke-width:0.87317;font-variation-settings:normal;vector-effect:none;fill:#000000;fill-opacity:1;stroke:none;stroke-linecap:butt;stroke-linejoin:miter;stroke-miterlimit:4;stroke-dasharray:none;stroke-dashoffset:0;stroke-opacity:1;-inkscape-stroke:none;stop-color:#000000;stop-opacity:1" />
  </g>
  <text
     xml:space="preserve"
     style="font-weight:bold;font-size:18.6667px;line-height:1.25;font-family:sans-serif;-inkscape-font-specification:'sans-serif Bold';word-spacing:0px"
     x="-175.57838"
     y="-131.34113"
     id="text30885"><tspan
       sodipodi:role="line"
       x="-175.57838"
       y="-131.34113"
       id="tspan30887" /></text>
  <g
     aria-label="Screen"
     id="text1048-5-9"
     style="font-size:16px;font-family:sans-serif;text-anchor:end;fill:#ffffff;stroke:none"
     transform="matrix(1.1489853,0,0,1.1415322,320.13009,127.97745)">
    <text
       xml:space="preserve"
       style="font-size:13.9707px;line-height:1.25;font-family:sans-serif;stroke-width:0.87317;fill:#ffffff"
       x="-124.01168"
       y="-45.386532"
       id="text5866-3-1"
       transform="scale(0.99675138,1.0032592)"><tspan
         style="font-size:13.9707px;text-align:center;text-anchor:middle;stroke-width:0.87317;fill:#ffffff"
         x="-124.01168"
         y="-45.386532"
         id="tspan18812-2">Left eye</tspan></text>
  </g>
  <g
     aria-label="Screen"
     id="text1048-5-5-7"
     style="font-size:16px;font-family:sans-serif;text-anchor:end;fill:#ffffff;stroke:none"
     transform="matrix(1.1489853,0,0,1.1415322,418.02722,207.17472)">
    <text
       xml:space="preserve"
       style="font-size:13.9707px;line-height:1.25;font-family:sans-serif;stroke-width:0.87317;fill:#ffffff"
       x="-130.55727"
       y="-76.934143"
       id="text5866-3-35-0"
       transform="scale(0.99675138,1.0032592)"><tspan
         style="font-size:13.9707px;text-align:center;text-anchor:middle;stroke-width:0.87317;fill:#ffffff"
         x="-130.55727"
         y="-76.934143"
         id="tspan18812-62-9">Right eye</tspan></text>
  </g>
</svg>
